<svg width="24" height="24" viewBox="0 0 24 24" fill="none" xmlns="http://www.w3.org/2000/svg">
<path fill-rule="evenodd" clip-rule="evenodd" d="M16.9659 8.0419C17.0688 7.93138 17.2082 7.8693 17.3537 7.8693C17.4991 7.8693 17.6386 7.93138 17.7415 8.0419L17.7429 8.04347L17.7451 8.04505L17.7502 8.05055L17.7649 8.06629L17.8102 8.12059C17.8468 8.16544 17.898 8.22918 17.9573 8.31023C18.6334 9.25525 19 10.4141 19 11.6065C19 12.7988 18.6334 13.9577 17.9573 14.9028C17.896 14.9869 17.8316 15.0682 17.7641 15.1467L17.7495 15.1624L17.7451 15.1679L17.7429 15.1695L17.7422 15.1703L17.369 14.7706L17.7422 15.1719C17.6392 15.2826 17.4996 15.3448 17.354 15.3448C17.2084 15.3448 17.0688 15.2826 16.9659 15.1719C16.8629 15.0612 16.8051 14.911 16.8051 14.7544C16.8051 14.5979 16.8629 14.4477 16.9659 14.337L16.9651 14.3378L16.9637 14.3386L16.9673 14.3346L16.9915 14.3063C17.0149 14.279 17.0488 14.2352 17.0932 14.1749C17.5561 13.525 17.8335 12.7446 17.8917 11.9283C17.9499 11.1121 17.7863 10.2953 17.421 9.57711C17.3256 9.38811 17.216 9.20783 17.0932 9.0381C17.0534 8.98288 17.0114 8.92958 16.9673 8.87836L16.9637 8.87442C16.8616 8.76352 16.8046 8.61368 16.805 8.45767C16.8054 8.30166 16.8632 8.15218 16.9659 8.0419ZM12.6246 5.22956C13.4756 4.62602 14.6098 5.28307 14.6098 6.37921V17.6207C14.6098 18.7176 13.4756 19.3739 12.6246 18.7703L8.23439 15.6582C8.20469 15.6369 8.16984 15.6254 8.13415 15.6251H6.0122C5.47853 15.6251 4.96672 15.3971 4.58936 14.9913C4.212 14.5855 4 14.0351 4 13.4612V10.5387C4 9.96478 4.212 9.41437 4.58936 9.00855C4.96672 8.60274 5.47853 8.37475 6.0122 8.37475H8.13415C8.17002 8.37488 8.20513 8.36366 8.23512 8.34249L12.6246 5.22956Z" fill="#003950"/>
</svg>
