<svg width="24" height="24" viewBox="0 0 24 24" fill="none" xmlns="http://www.w3.org/2000/svg">
<g clip-path="url(#clip0_91_3734)">
<path fill-rule="evenodd" clip-rule="evenodd" d="M12.0623 19.707C11.8748 19.8944 11.6205 19.9998 11.3553 19.9998C11.0901 19.9998 10.8358 19.8944 10.6483 19.707L4.99129 14.05C4.89578 13.9577 4.8196 13.8474 4.76719 13.7254C4.71478 13.6034 4.68719 13.4722 4.68604 13.3394C4.68488 13.2066 4.71019 13.0749 4.76047 12.952C4.81075 12.8291 4.885 12.7175 4.97889 12.6236C5.07279 12.5297 5.18444 12.4554 5.30733 12.4052C5.43023 12.3549 5.56191 12.3296 5.69469 12.3307C5.82747 12.3319 5.95869 12.3595 6.08069 12.4119C6.2027 12.4643 6.31304 12.5405 6.40529 12.636L11.3553 17.586L16.3053 12.636C16.4939 12.4538 16.7465 12.353 17.0087 12.3553C17.2709 12.3576 17.5217 12.4627 17.7071 12.6482C17.8925 12.8336 17.9977 13.0844 18 13.3466C18.0022 13.6088 17.9014 13.8614 17.7193 14.05L12.0623 19.707Z" fill="white" fill-opacity="0.32"/>
</g>
<defs>
<clipPath id="clip0_91_3734">
<rect width="24" height="24" fill="white" transform="translate(24) rotate(90)"/>
</clipPath>
</defs>
</svg>
