<svg width="234" height="425" viewBox="0 0 234 425" fill="none" xmlns="http://www.w3.org/2000/svg">
<g clip-path="url(#clip0_1_2971)">
<path d="M62.4577 47.0536V43.1349H58.0691V63.959H62.4577V60.0403V47.0536Z" fill="url(#paint0_linear_1_2971)"/>
<path d="M99.516 43.1349H65.9451V47.0536H95.1274V60.0403H65.9451V63.959H99.516V43.1349Z" fill="url(#paint1_linear_1_2971)"/>
<path d="M81.1092 78.6688H76.7206H2.47656V82.5875H76.7206H81.1092H111.467V78.6688H81.1092Z" fill="url(#paint2_linear_1_2971)"/>
<path d="M76.7205 84.921V105.381C76.7205 110.038 74.0364 110.776 53.5529 107.468L52.9456 110.166C77.083 116.172 81.1091 113.356 81.1091 106.119V84.9308H76.7205V84.921Z" fill="url(#paint3_linear_1_2971)"/>
<path d="M81.1093 67.3952H76.7207V76.3353H81.1093V67.3952Z" fill="url(#paint4_linear_1_2971)"/>
<path d="M89.3968 17.89V5.14941H20.0311V9.06809H85.0082V17.89H6.37549V21.6905H85.0082V35.0416H89.3968V21.6905H109.155V17.89H89.3968Z" fill="url(#paint5_linear_1_2971)"/>
<path d="M81.5304 31.1229H19.4236V35.0416H81.5304V31.1229Z" fill="url(#paint6_linear_1_2971)"/>
<path d="M26.2515 88.1012C30.7674 91.9017 40.0247 100.97 44.0508 105.253L47.5872 101.698C42.4639 96.7951 33.3242 89.3221 27.956 85.7677L26.2515 88.0913V88.1012Z" fill="url(#paint7_linear_1_2971)"/>
<path d="M7.71753 47.0536H26.7414H31.13H50.7514V43.1349H7.71753V47.0536Z" fill="url(#paint8_linear_1_2971)"/>
<path d="M52.7008 63.7227L52.0934 60.7788C46.1178 61.9997 38.6827 63.2304 31.1201 64.2052L26.7315 64.8156C18.689 65.9183 10.8816 66.9029 5.15088 67.3854L5.88558 71.7963C17.3469 70.6936 37.5855 67.5035 52.7008 63.7129V63.7227Z" fill="url(#paint9_linear_1_2971)"/>
<path d="M215.707 11.1554L211.2 8.70378C206.322 19.9773 197.055 35.4157 192.304 41.914L194.861 43.8734C200.836 37.0108 210.711 22.3108 215.707 11.1554Z" fill="url(#paint10_linear_1_2971)"/>
<path d="M230.459 49.2591H127.199V53.1777H230.459V49.2591Z" fill="url(#paint11_linear_1_2971)"/>
<path d="M180.96 0H176.572V49.2591H180.96V0Z" fill="url(#paint12_linear_1_2971)"/>
<path d="M188.278 56.6829V94.2352C188.278 106.001 190.59 108.325 202.178 108.817C207.547 109.063 217.666 109.181 222.907 108.935C234.368 108.325 234.368 104.406 232.664 75.6067H229.735C230.097 103.54 229 104.278 222.907 104.652C218.273 104.898 209.378 104.898 203.031 104.534C193.156 103.924 192.666 101.836 192.666 94.245V56.6927" fill="url(#paint13_linear_1_2971)"/>
<path d="M162.191 39.8267C157.92 32.1075 145.606 14.7098 140.365 8.70378L138.053 10.6631C142.442 17.2796 153.903 34.9234 157.93 42.7706L162.201 39.8267H162.191Z" fill="url(#paint14_linear_1_2971)"/>
<path d="M168.411 56.6829C167.922 89.8931 153.904 106.119 124.643 114.449L123.791 111.505C150.25 102.801 163.533 88.5344 164.023 56.6829" fill="url(#paint15_linear_1_2971)"/>
<path d="M86.4677 162.674H8.20728V158.509H87.6334L86.4677 162.674Z" fill="url(#paint16_linear_1_2971)"/>
<path d="M45.4027 131.423L43.0908 133.136C48.1456 139.91 54.2191 149.057 58.6763 156.599L62.8788 153.734C58.1473 146.507 50.7611 136.907 45.4125 131.423H45.4027Z" fill="url(#paint17_linear_1_2971)"/>
<path d="M28.4359 205.336C24.0081 215.881 14.6725 232.186 8.82429 240.851L4.31812 238.399C12.2235 228.396 20.0897 215.212 25.4971 204.175L28.4457 205.327L28.4359 205.336Z" fill="url(#paint18_linear_1_2971)"/>
<path d="M73.9189 235.455C50.7513 235.337 41.1218 225.284 35.3911 217.073C35.3911 217.073 31.0515 210.702 30.1405 209.304C29.6409 210.377 29.1021 211.48 28.5437 212.613C33.2654 219.564 41.6704 239.295 73.4291 240.102C87.0847 240.467 98.6636 240.102 109.635 239L111.467 233.122C99.8881 234.589 87.2023 235.573 73.9189 235.445V235.455Z" fill="url(#paint19_linear_1_2971)"/>
<path d="M151.582 155.201C149.025 148.338 144.881 139.024 141.708 132.782L144.264 131.433C148.046 136.829 153.404 146.871 155.971 153.488L151.582 155.201Z" fill="url(#paint20_linear_1_2971)"/>
<path d="M188.768 131.915C184.379 147.846 177.189 163.285 169.019 172.845L171.331 174.932C176.944 168.926 181.45 161.817 185.104 154.591L187.053 150.672C189.737 144.548 191.804 138.66 193.274 133.392L188.758 131.925L188.768 131.915Z" fill="url(#paint21_linear_1_2971)"/>
<path d="M190.54 150.662L188.591 154.591H229.852V150.662H190.54Z" fill="url(#paint22_linear_1_2971)"/>
<path d="M217.783 162.064C210.956 166.228 195.84 172.599 186.211 175.05L181.94 173.583V231.477L186.328 230.493V177.63C201.973 174.617 217.049 167.823 220.947 165.5L217.774 162.073L217.783 162.064Z" fill="url(#paint23_linear_1_2971)"/>
<path d="M207.909 228.474C202.668 230.187 194.381 232.275 186.328 233.988L181.94 234.973C177.551 235.829 173.407 236.568 170.233 236.932L171.575 241.707C179.745 240.476 199.004 235.583 208.879 231.29L207.899 228.474H207.909Z" fill="url(#paint24_linear_1_2971)"/>
<path d="M208.879 204.214L208.144 201.27C206.302 193.758 204.941 185.379 203.893 176.301C202.913 176.645 201.904 176.98 200.875 177.315C204.03 211.579 213.787 233.466 229.597 243.42L232.526 239.128C220.213 231.527 213.267 219.642 208.879 204.204V204.214Z" fill="url(#paint25_linear_1_2971)"/>
<path d="M225.953 189.258L222.544 186.442C219.057 190.636 214.874 195.038 211.044 198.651C211.289 199.793 211.543 200.925 211.808 202.038C216.373 198.513 221.78 193.777 225.963 189.258H225.953Z" fill="url(#paint26_linear_1_2971)"/>
<path d="M26.7412 61.3203V50.5489H31.1298V60.7099L26.7412 61.3203Z" fill="url(#paint27_linear_1_2971)"/>
<path d="M149.339 178.605H169.753C169.509 201.516 168.539 223.945 167.197 235.091C165.737 246.857 155.128 244.523 142.207 239.866L142.942 237.168C158.792 240.723 162.201 240.23 162.935 233.742C164.033 224.556 165.012 204.46 165.247 182.523H149.221L149.339 178.605Z" fill="url(#paint28_linear_1_2971)"/>
<path d="M175.837 156.058H126.465V159.976H175.837V156.058Z" fill="url(#paint29_linear_1_2971)"/>
<path d="M141.58 163.481C141.472 216.167 138.759 229.419 126.592 244.159L128.669 246C141.717 233.131 144.881 216.472 145.734 182.523C145.734 182.523 145.91 171.043 145.959 163.481H141.58Z" fill="url(#paint30_linear_1_2971)"/>
<path d="M96.3518 160.222L91.3558 157.032L89.2791 162.674C80.1296 181.194 58.882 201.752 36.3218 213.321C36.9683 214.276 37.5953 215.202 38.0753 215.901C62.8984 204.549 85.7623 181.874 96.3518 160.222Z" fill="url(#paint31_linear_1_2971)"/>
</g>
<path d="M71.4507 400.216C69.7178 400.216 68.4736 399.149 68.3721 397.582H69.4956C69.5972 398.559 70.3843 399.213 71.4634 399.213C72.6631 399.213 73.4565 398.35 73.4565 397.067C73.4565 395.83 72.6631 394.998 71.5078 394.998C70.6382 394.998 69.9526 395.398 69.5908 396.077H68.5181L69.0449 390.84H74.1294V391.862H69.9399L69.6543 394.846H69.7559C70.2002 394.293 70.8794 394.014 71.7935 394.014C73.3296 394.014 74.5991 395.22 74.5991 397.036C74.5991 398.921 73.3232 400.216 71.4507 400.216Z" fill="white" fill-opacity="0.26"/>
<path d="M60.4883 393.424C60.4883 391.792 61.7451 390.625 63.4971 390.625C65.0967 390.625 66.3218 391.71 66.3218 393.195C66.3218 394.249 65.8647 395.011 64.2144 396.718L62.1323 398.87V398.972H66.4741V400H60.5454V399.213L63.6431 395.861C64.811 394.598 65.1538 394.122 65.1538 393.316C65.1538 392.345 64.5 391.621 63.4209 391.621C62.3228 391.621 61.5928 392.338 61.5928 393.424H60.4883Z" fill="white" fill-opacity="0.26"/>
<path d="M55.4355 400.216C53.3726 400.216 52.1855 398.464 52.1855 395.417C52.1855 392.396 53.3853 390.625 55.4355 390.625C57.4731 390.625 58.6729 392.402 58.6729 395.436C58.6729 398.477 57.4922 400.216 55.4355 400.216ZM55.4355 399.219C56.7876 399.219 57.5239 397.874 57.5239 395.417C57.5239 392.986 56.7749 391.627 55.4355 391.627C54.0962 391.627 53.3345 392.999 53.3345 395.417C53.3345 397.867 54.0835 399.219 55.4355 399.219Z" fill="white" fill-opacity="0.26"/>
<path d="M44.4414 393.424C44.4414 391.792 45.6982 390.625 47.4502 390.625C49.0498 390.625 50.2749 391.71 50.2749 393.195C50.2749 394.249 49.8179 395.011 48.1675 396.718L46.0854 398.87V398.972H50.4272V400H44.4985V399.213L47.5962 395.861C48.7642 394.598 49.1069 394.122 49.1069 393.316C49.1069 392.345 48.4531 391.621 47.374 391.621C46.2759 391.621 45.5459 392.338 45.5459 393.424H44.4414Z" fill="white" fill-opacity="0.26"/>
<path d="M227.641 399.209C225.648 399.209 224.194 397.661 224.194 394.576C224.194 391.427 225.553 389.625 227.717 389.625C229.387 389.625 230.485 390.545 230.72 391.967H229.545C229.355 391.116 228.682 390.64 227.755 390.64C226.232 390.64 225.343 391.91 225.305 394.398H225.407C225.857 393.509 226.752 392.989 227.844 392.989C229.59 392.989 230.853 394.277 230.853 396.055C230.853 397.896 229.52 399.209 227.641 399.209ZM227.628 398.207C228.803 398.207 229.698 397.292 229.698 396.093C229.698 394.842 228.854 393.979 227.641 393.979C226.429 393.979 225.559 394.842 225.559 396.055C225.559 397.28 226.454 398.207 227.628 398.207Z" fill="white" fill-opacity="0.26"/>
<path d="M216.488 392.424C216.488 390.792 217.745 389.625 219.497 389.625C221.097 389.625 222.322 390.71 222.322 392.195C222.322 393.249 221.865 394.011 220.214 395.718L218.132 397.87V397.972H222.474V399H216.545V398.213L219.643 394.861C220.811 393.598 221.154 393.122 221.154 392.316C221.154 391.345 220.5 390.621 219.421 390.621C218.323 390.621 217.593 391.338 217.593 392.424H216.488Z" fill="white" fill-opacity="0.26"/>
<path d="M211.436 399.216C209.373 399.216 208.186 397.464 208.186 394.417C208.186 391.396 209.385 389.625 211.436 389.625C213.473 389.625 214.673 391.402 214.673 394.436C214.673 397.477 213.492 399.216 211.436 399.216ZM211.436 398.219C212.788 398.219 213.524 396.874 213.524 394.417C213.524 391.986 212.775 390.627 211.436 390.627C210.096 390.627 209.334 391.999 209.334 394.417C209.334 396.867 210.083 398.219 211.436 398.219Z" fill="white" fill-opacity="0.26"/>
<path d="M200.441 392.424C200.441 390.792 201.698 389.625 203.45 389.625C205.05 389.625 206.275 390.71 206.275 392.195C206.275 393.249 205.818 394.011 204.167 395.718L202.085 397.87V397.972H206.427V399H200.499V398.213L203.596 394.861C204.764 393.598 205.107 393.122 205.107 392.316C205.107 391.345 204.453 390.621 203.374 390.621C202.276 390.621 201.546 391.338 201.546 392.424H200.441Z" fill="white" fill-opacity="0.26"/>
<path d="M67.7817 385H66.6519L63.2749 375.84H64.4746L67.166 383.521H67.2676L69.959 375.84H71.1587L67.7817 385Z" fill="white" fill-opacity="0.26"/>
<path d="M58.1396 375.625C60.7422 375.625 62.3418 377.478 62.3418 380.417C62.3418 383.343 60.7549 385.216 58.1396 385.216C55.5117 385.216 53.9375 383.35 53.9375 380.417C53.9375 377.472 55.5498 375.625 58.1396 375.625ZM58.1396 376.678C56.2734 376.678 55.1118 378.125 55.1118 380.417C55.1118 382.689 56.2354 384.162 58.1396 384.162C60.0186 384.162 61.1675 382.689 61.1675 380.417C61.1675 378.125 60.0122 376.678 58.1396 376.678Z" fill="white" fill-opacity="0.26"/>
<path d="M45.7744 385H44.6445V375.84H45.7554L50.7256 382.969H50.8271V375.84H51.957V385H50.8462L45.876 377.897H45.7744V385Z" fill="white" fill-opacity="0.26"/>
<path d="M223.483 384H222.341V380.058L219.091 374.84H220.392L222.861 378.909H222.963L225.432 374.84H226.733L223.483 380.058V384Z" fill="white" fill-opacity="0.26"/>
<path d="M217.961 384L217.041 381.378H213.397L212.477 384H211.277L214.654 374.84H215.784L219.161 384H217.961ZM215.168 376.319L213.733 380.407H216.704L215.27 376.319H215.168Z" fill="white" fill-opacity="0.26"/>
<path d="M209.671 384H208.604V377.005H208.528L205.64 384H204.675L201.787 377.005H201.711V384H200.645V374.84H201.971L205.107 382.483H205.208L208.344 374.84H209.671V384Z" fill="white" fill-opacity="0.26"/>
<path d="M9.99405 280.903L9.36866 281.532C7.64671 279.685 5.33363 277.757 2.47656 275.79L3.10195 275.201C5.84337 277.09 8.15644 279.018 9.99405 280.908V280.903ZM10.5852 285.547C8.55052 290.544 6.276 295.27 3.84727 299.677L3.02485 299.363C5.65061 294.758 7.92085 290.075 9.83984 285.272L10.5852 285.547ZM11.1334 271.379L10.5081 271.969C8.70472 270.2 6.3531 268.349 3.41464 266.382L4.04003 265.792C6.85855 267.643 9.24872 269.494 11.1292 271.379H11.1334ZM14.149 268.624V267.798H35.7291V268.624H25.5045V297.59H37.0613V298.416H12.23V297.59H24.6863V268.624H14.149Z" fill="white"/>
<path d="M55.0389 297.159C52.0233 298.184 47.6756 299.01 41.9958 299.638L41.606 298.89C47.3244 298.261 51.6336 297.435 54.6106 296.449L55.0432 297.159H55.0389ZM51.7064 277.873H57.8574V278.7H43.6406V266.029H58.0545V266.855H51.7107V270.006H57.1935V274.611H51.7107V277.878L51.7064 277.873ZM50.8839 270.002V266.855H44.5016V270.006H50.8839V270.002ZM56.3711 273.742V270.867H44.5016V273.742H56.3711ZM50.8839 277.873V274.607H44.5016V277.873H50.8839ZM71.0976 281.536V294.994H46.3435V281.536H71.0976ZM70.2752 285.784V282.358H47.1659V285.784H70.2752ZM70.2752 289.955V286.572H47.1659V289.955H70.2752ZM70.2752 290.824H47.1659V294.168H70.2752V290.824ZM59.5408 267.247V266.421H73.2908V267.208C72.0785 270.122 70.1553 272.562 67.5338 274.529C69.5299 275.984 72.0785 277.206 75.1712 278.149L74.7386 278.937C71.4489 277.912 68.8231 276.612 66.7885 275.08C64.6724 276.496 62.2051 277.719 59.3481 278.661L58.9154 277.912C61.734 276.97 64.1241 275.868 66.1245 274.529C63.6958 272.485 62.2094 270.083 61.5798 267.247H59.5451H59.5408ZM75.7966 299.324L75.5224 300.034C71.3332 298.773 66.9427 297.831 62.3636 297.159L62.7149 296.449C67.2596 297.078 71.6074 298.063 75.7966 299.324ZM72.3098 267.247H62.4407C63.0276 269.885 64.4754 272.128 66.827 274.017C69.3714 272.128 71.2133 269.885 72.3098 267.247Z" fill="white"/>
<path d="M115.003 294.482V295.309H80.6543V294.482H115.003ZM111.478 269.726V270.553H84.2181V269.726H111.478Z" fill="white"/>
<path d="M154.357 292.535V293.4H132.031C130.189 295.29 128.27 296.783 126.313 297.928C135.167 297.653 142.256 297.257 147.662 296.706C146.214 295.841 144.685 295.014 143.04 294.149L143.627 293.637C147.152 295.41 150.09 297.179 152.438 298.991L151.851 299.581C150.87 298.793 149.773 298.044 148.523 297.257L148.6 297.373C142.684 297.962 134.734 298.436 124.707 298.789L124.509 297.962C124.707 297.924 124.861 297.885 124.981 297.846C127.015 296.744 129.016 295.29 130.973 293.4H119.969V292.535H154.357ZM120.791 276.361V275.535H128.703V272.978H122.162V272.191H128.703V270.224H129.564V272.191H136.028V272.978H129.564V275.535H137.437V276.361H132.931V278.405C132.931 278.797 133.205 278.995 133.753 278.995H137.201V279.783H133.363C132.502 279.783 132.07 279.43 132.07 278.797V276.357H126.938C126.154 278.324 124.12 279.86 120.83 280.962L120.479 280.252C123.571 279.309 125.452 278.009 126.12 276.357H120.791V276.361ZM129.761 266.441V264H130.583V266.441H135.912V267.306H130.583V269.746H129.761V267.306H120.633V266.441H129.761ZM128.703 281.513V278.913H129.564V281.513H134.931V282.3H129.564V285.253C131.993 285.137 134.263 285.016 136.34 284.939V285.765C131.834 286.002 126.707 286.2 120.946 286.355L120.83 285.567C123.61 285.49 126.236 285.369 128.703 285.292V282.3H123.259V281.513H128.703ZM150.716 288.718V289.544H123.691V288.718H150.716ZM150.562 285.963C150.129 285.61 149.778 284.939 149.542 283.996C149.384 283.054 149.306 281.909 149.306 280.57C149.306 278.603 149.306 276.4 149.384 274.037H144.372V274.902C144.333 277.144 143.982 279.111 143.314 280.846C144.646 281.788 145.94 282.851 147.19 284.112L146.565 284.702C145.468 283.523 144.252 282.498 143.001 281.595C141.943 283.721 140.414 285.451 138.379 286.789L137.793 286.239C139.909 284.9 141.395 283.17 142.299 281.082C141.044 280.217 139.754 279.468 138.384 278.758L138.893 278.169C140.148 278.758 141.399 279.468 142.616 280.334C143.164 278.681 143.477 276.869 143.515 274.902V274.037H138.658V273.172H143.515V270.301H144.376V273.172H150.253C150.176 275.849 150.137 278.367 150.137 280.691C150.137 282.184 150.253 283.368 150.489 284.272C150.84 285.214 151.273 285.726 151.821 285.765C152.408 285.726 152.879 285.214 153.23 284.272C153.466 283.407 153.74 282.184 153.975 280.532L154.721 280.846C154.408 283.286 153.975 284.939 153.427 285.726C152.956 286.277 152.446 286.591 151.898 286.591C151.388 286.591 150.96 286.355 150.566 285.963H150.562ZM144.685 264V266.441H153.813V267.306H144.685V269.746H143.862V267.306H138.495V266.441H143.862V264H144.685Z" fill="white"/>
<path d="M167.91 264.59C165.832 268.881 162.778 272.5 158.704 275.492L158.469 274.627C162.542 271.476 165.442 268.055 167.164 264.314L167.91 264.59ZM168.064 274.39C167.164 276.434 166.106 278.285 164.89 280.019V299.46H164.067V281.121C162.538 283.011 160.816 284.741 158.897 286.316L158.662 285.49C162.735 282.025 165.596 278.246 167.318 274.114L168.064 274.39ZM171.199 277.971V284.543C171.122 290.289 169.987 294.498 167.751 297.175L167.164 296.624C169.28 294.106 170.338 290.052 170.377 284.543V277.971H171.199ZM176.254 264.159V273.409H182.362V274.274H176.254V299.421H175.431V274.274H169.4V273.409H175.431V264.159H176.254ZM182.675 270.886L181.929 271.201C181.068 269.075 180.087 267.228 179.068 265.614L179.89 265.377C180.948 267.108 181.886 268.92 182.67 270.886H182.675ZM181.304 277.893V291.588C181.304 292.849 181.852 293.517 183.026 293.517H185.258V294.304H182.713C181.184 294.304 180.443 293.4 180.443 291.666V277.893H181.304ZM185.142 299.224L184.983 298.397C185.921 298.436 186.864 298.475 187.763 298.475C188.86 298.475 189.408 297.885 189.408 296.701V278.324H183.728V277.497H194.146V278.324H190.269V296.899C190.269 298.436 189.524 299.219 188.076 299.219H185.138L185.142 299.224ZM193.251 267.267V268.093H184.517V267.267H193.251Z" fill="white"/>
<path d="M198.656 299.383L198.031 298.871C200.931 293.439 202.417 286.432 202.456 277.932V265.967H229.561V273.762H203.317V277.932C203.317 278.444 203.278 278.956 203.278 279.469H211.973V275.453H212.834V279.469H222.862V275.496H223.723V279.469H231.009V280.334H223.723V286.157H232.183V287.022H210.054V298.475C212.993 297.726 215.499 296.899 217.615 296.034L217.773 296.861C215.267 297.803 212.329 298.634 208.881 299.34L208.607 298.591C208.996 298.432 209.232 298.238 209.232 297.924V287.022H202.576C201.83 291.588 200.541 295.72 198.66 299.378L198.656 299.383ZM202.687 286.157H211.969V280.334H203.235C203.158 282.339 202.961 284.267 202.687 286.157ZM203.317 266.837V272.896H228.739V266.837H203.317ZM222.862 286.157V280.334H212.834V286.157H222.862ZM230.067 288.911C228.186 291.705 226.07 293.792 223.684 295.169C226.623 297.136 229.874 298.397 233.476 298.948L233.279 299.774C226.542 298.75 220.982 295.247 216.514 289.346L217.178 288.873C218.9 291.192 220.819 293.125 222.935 294.657C225.205 293.396 227.398 291.313 229.437 288.322L230.063 288.911H230.067Z" fill="white"/>
<path d="M86.2809 314.915C85.3751 314.915 85.1722 315.461 85.1722 316.56V318.057H86.8534V318.908H85.1722V326H83.7084V318.908H82.4766V318.057H83.7084V316.362C83.7084 314.823 84.5055 314 86.1867 314C86.607 314 87.0563 314.064 87.4766 314.241V315.248C87.0128 315.007 86.5708 314.915 86.2737 314.915H86.2809Z" fill="white"/>
<path d="M65.9881 320.553C65.9881 319.491 65.5608 318.596 64.2271 318.596C62.5176 318.596 61.965 320.051 61.965 321.476V325.993H60.4766V314H61.965V319.193C62.3113 318.415 63.1513 317.615 64.5808 317.615C66.4818 317.615 67.4766 318.676 67.4766 320.385V326H65.9881V320.56V320.553Z" fill="white"/>
<path d="M119.988 320.553C119.988 319.491 119.561 318.596 118.227 318.596C116.518 318.596 115.965 320.051 115.965 321.476V325.993H114.477V314H115.965V319.193C116.311 318.415 117.151 317.615 118.581 317.615C120.482 317.615 121.477 318.676 121.477 320.385V326H119.988V320.56V320.553Z" fill="white"/>
<path d="M100.477 314.913C100.477 314.401 100.938 314 101.484 314C102.03 314 102.477 314.401 102.477 314.913C102.477 315.425 102.046 315.84 101.484 315.84C100.923 315.84 100.477 315.41 100.477 314.913ZM100.707 317.703H102.261V326H100.707V317.703Z" fill="white"/>
<path d="M22.8947 326.992C21.6422 327.008 20.3412 326.771 19.4766 326.21V324.598C20.4705 325.396 21.3836 325.807 22.8624 325.807C24.5271 325.807 25.8362 324.858 25.8362 323.499C25.8362 322.227 25.0523 321.8 22.9675 320.947C20.5513 319.974 19.525 319.129 19.525 317.382C19.525 315.193 21.416 314 23.5897 314C25.1735 314 26.2644 314.371 26.822 314.68V316.26C26.0543 315.549 25.0523 315.154 23.6786 315.154C22.2402 315.154 21.1574 316.142 21.1574 317.193C21.1574 318.299 21.7473 318.742 24.0584 319.69C26.4422 320.709 27.4766 321.642 27.4766 323.278C27.4766 325.909 25.3432 326.968 22.8867 327L22.8947 326.992Z" fill="white"/>
<path d="M2.47656 315H3.47656V326H2.47656V315Z" fill="white"/>
<path d="M92.4766 326V315H94.3236V325.01H99.4766V326H92.4766Z" fill="white"/>
<path d="M127.167 327C126.073 327 125.58 326.672 125.279 326.231C124.933 325.72 124.832 325.103 124.832 324.349V319.207H123.477V318.293H124.832V316H126.389V318.293H128.407V319.207H126.389V324.418C126.389 325.332 126.458 326.002 127.529 326.002C127.829 326.002 128.176 325.934 128.477 325.758V326.741C128.076 326.939 127.583 327 127.167 327Z" fill="white"/>
<path d="M55.8222 327C52.7215 327 51.4766 325.284 51.4766 322.485C51.4766 320.385 52.6902 318 55.5638 318C56.8792 318 57.7171 318.324 58.4061 318.715V319.994C57.7014 319.377 56.9967 318.895 55.83 318.895C53.6611 318.895 53.1678 321.093 53.1678 322.538C53.1678 324.434 53.8099 326.112 56.0493 326.112C57.2786 326.112 57.7327 325.788 58.4766 325.156V326.383C57.8502 326.774 57.0124 327 55.8144 327H55.8222Z" fill="white"/>
<path d="M105.091 329.193V328.086C106.129 328.729 107.043 329.086 108.327 329.114C110.294 329.086 110.886 327.764 110.97 325.764C110.986 325.393 110.97 325.229 110.986 324.907C110.74 325.507 109.664 326.507 108.042 326.507C105.814 326.507 104.477 324.971 104.477 322.379C104.477 320 105.468 318.014 108.112 318C109.733 318.014 110.755 318.986 111.055 319.614V318.229H112.477V325.55C112.477 328.314 111.439 329.971 108.196 330C107.451 330 106.144 329.8 105.091 329.186V329.193ZM111.039 322.686V321.886C110.97 320.179 110.063 318.8 108.58 318.771C106.713 318.8 106.152 320.614 106.152 322.271C106.152 323.929 106.782 325.757 108.55 325.757C110.317 325.757 111.047 323.957 111.047 322.686H111.039Z" fill="white"/>
<path d="M28.4844 322.474C28.4844 320.037 30.1436 318 32.5895 318C35.2536 318 36.4766 320.173 36.4766 321.78C36.4766 322.074 36.461 322.315 36.4065 322.572H30.1903C30.1903 324.699 31.0082 326.095 33.0725 326.095C34.2253 326.095 35.0978 325.725 35.9001 325.106V326.321C35.3471 326.728 34.3266 327 32.8154 327C30.2682 327 28.4766 325.589 28.4766 322.474H28.4844ZM34.7239 321.712C34.755 320.414 33.8826 318.845 32.5116 318.845C31.0394 318.845 30.2838 320.414 30.2526 321.712H34.7239Z" fill="white"/>
<path d="M77.4496 327C74.9164 327 73.4766 325.191 73.4766 322.625C73.4766 320.203 74.8625 318.023 77.5343 318C80.2831 318.015 81.4766 320.21 81.4766 322.64C81.4766 325.229 80.0213 327 77.4573 327H77.4496ZM77.3726 318.817C75.6171 318.817 75.1705 321.111 75.1705 322.655C75.1705 324.101 75.8789 326.19 77.5035 326.19C79.3052 326.19 79.7903 324.192 79.7903 322.678C79.7903 321.164 79.1436 318.817 77.3726 318.817Z" fill="white"/>
<path d="M11.9744 320.803C11.9744 319.79 11.5749 318.937 10.2429 318.937C8.52625 318.937 7.97128 320.324 7.97128 321.684V325.993H6.47656V318.236H7.84548V319.686C8.11187 318.909 9.08861 318 10.6129 318C12.5072 318 13.4766 319.013 13.4766 320.644V326H11.9818V320.81L11.9744 320.803Z" fill="white"/>
<path d="M46.4766 318.236H48.0578C48.0407 318.756 48.0407 319.429 48.0236 319.922C48.4851 318.805 49.5449 318 50.8697 318C51.0919 318 51.2714 318.014 51.4766 318.062V319.45C51.186 319.36 50.9637 319.318 50.7415 319.318C49.656 319.318 48.2031 320.172 48.2031 321.941V326H46.4766V318.243V318.236Z" fill="white"/>
<path d="M44.4766 326.801H43.0197C42.9396 326.373 42.9251 326.059 42.9105 325.685C42.4443 326.511 41.4828 327 40.2008 327C38.1176 327 37.4766 325.731 37.4766 324.438C37.4766 322.267 39.5307 321.525 41.4537 321.525C41.9854 321.525 42.4225 321.525 42.7867 321.579V320.967C42.7867 319.506 42.2258 318.925 41.1259 318.925C40.1207 318.925 38.9334 319.537 38.103 320.126V318.956C38.9479 318.482 40.2299 318 41.359 318C43.1581 318 44.2726 319.116 44.2726 320.959V324.935C44.2872 325.425 44.3673 326.304 44.4766 326.794V326.801ZM42.8231 323.46V322.504C42.4953 322.45 42.0728 322.435 41.5047 322.435C40.3174 322.435 38.9334 322.863 38.9334 324.293C38.9334 325.295 39.4943 325.983 40.5941 325.983C41.2643 325.983 41.7523 325.899 42.2403 325.394C42.7867 324.752 42.8012 324.125 42.8231 323.452V323.46Z" fill="white"/>
<path d="M99.2832 336.504C98.4905 336.504 97.8633 336.717 97.8633 337.852V339.392H99.8581V339.875H97.8633V346H97.0184V339.875H95.4766V339.392H97.0184V337.689C97.0184 336.546 97.7675 336 99.2309 336C99.6403 336 100.085 336.078 100.477 336.206V336.788C100.006 336.582 99.5881 336.511 99.2745 336.511L99.2832 336.504Z" fill="white"/>
<path d="M165.283 336.504C164.491 336.504 163.863 336.717 163.863 337.852V339.392H165.858V339.875H163.863V346H163.018V339.875H161.477V339.392H163.018V337.689C163.018 336.546 163.767 336 165.231 336C165.64 336 166.093 336.078 166.477 336.206V336.788C166.006 336.582 165.588 336.511 165.274 336.511L165.283 336.504Z" fill="white"/>
<path d="M25.587 346C24.587 346 24.4766 345.272 24.4766 343.966V336H25.0471V343.873C25.0471 345.165 25.0778 345.493 25.7404 345.493C25.9796 345.493 26.225 345.408 26.4766 345.222V345.757C26.2557 345.9 25.9183 345.986 25.587 345.986V346Z" fill="white"/>
<path d="M44.7354 341.649C44.7354 340.227 43.9549 339.55 42.6855 339.55C41.2427 339.55 40.2256 340.818 40.2256 341.875V346H39.4766V336H40.2256V340.555C40.7617 339.55 41.5501 338.988 42.9063 338.988C44.4043 338.988 45.4766 339.943 45.4766 341.51V346H44.7275V341.656L44.7354 341.649Z" fill="white"/>
<path d="M74.9808 336H75.4766C75.2749 337.415 75.0312 338.779 74.7161 340H74.4766C74.695 338.737 74.8883 337.373 74.9808 336Z" fill="white"/>
<path d="M35.2383 336.572C33.0467 336.572 32.1982 338.493 32.1982 341.022C32.1982 343.551 33.0467 345.406 35.2717 345.406C36.2405 345.406 36.8485 345.091 37.4766 344.556V345.318C36.9621 345.751 36.2472 346 35.1648 346C32.5656 346 31.4766 343.911 31.4766 341.015C31.4766 337.4 33.187 336 35.1113 336C36.1069 336 36.9287 336.286 37.4565 336.63V337.444C36.8351 336.909 36.1069 336.579 35.2316 336.579L35.2383 336.572Z" fill="white"/>
<path d="M47.4766 336.548C47.4766 336.24 47.6766 336 47.98 336C48.2628 336 48.4766 336.255 48.4766 336.563C48.4766 336.871 48.2766 337.104 47.98 337.104C47.6835 337.104 47.4766 336.848 47.4766 336.556V336.548ZM47.6559 338.995H48.3248V346H47.6559V338.995Z" fill="white"/>
<path d="M93.4766 336.548C93.4766 336.24 93.6766 336 93.98 336C94.2628 336 94.4766 336.255 94.4766 336.563C94.4766 336.871 94.2766 337.104 93.98 337.104C93.6835 337.104 93.4766 336.848 93.4766 336.556V336.548ZM93.649 338.995H94.3179V346H93.649V338.995Z" fill="white"/>
<path d="M188.247 342.843H183.504L182.228 346H181.477L185.573 336H186.267L190.477 346H189.523L188.247 342.843ZM185.92 336.987H185.847C185.686 337.447 185.516 337.839 185.298 338.351L183.706 342.292H188.021L186.469 338.381C186.251 337.854 186.082 337.439 185.92 336.995V336.987Z" fill="white"/>
<path d="M7.47656 338.815C7.47656 340.757 6.23767 341.804 4.01918 341.804H2.19685V346H1.47656V336.106C2.0672 336.053 2.8307 336 3.63022 336C5.88473 336 7.47656 336.736 7.47656 338.815ZM6.71306 338.883C6.71306 337.1 5.37332 336.584 3.43575 336.584C2.93154 336.584 2.58581 336.615 2.19685 336.653V341.235H3.87512C5.74787 341.235 6.71306 340.499 6.71306 338.883Z" fill="white"/>
<path d="M86.4766 346V336H87.2151V345.407H91.4766V345.992H86.4766V346Z" fill="white"/>
<path d="M113.24 346C112.692 346 112.047 345.918 111.477 345.746V345.088C112.152 345.305 112.67 345.395 113.21 345.395C114.569 345.395 114.726 345.021 114.726 342.891V336H115.477V342.771C115.477 345.111 115.387 346 113.233 346H113.24Z" fill="white"/>
<path d="M199.085 346C198.287 346 197.823 345.784 197.536 345.427C197.221 345.055 197.137 344.548 197.137 343.856V339.524H195.477V339.002H197.137V337H198.018V339.002H200.393V339.524H198.018V344.139C198.018 345.017 198.287 345.471 199.196 345.471C199.642 345.471 199.957 345.419 200.477 345.203V345.777C199.994 345.963 199.614 346 199.085 346Z" fill="white"/>
<path d="M62.8516 341.656C62.8516 340.237 62.2134 339.56 61.141 339.56C59.9502 339.56 59.0884 340.826 59.0884 341.881V346H58.4766V339.233H59.0555V340.615C59.4766 339.611 60.1871 339 61.3318 339C62.595 339 63.4766 339.953 63.4766 341.518V346H62.8516V341.663V341.656Z" fill="white"/>
<path d="M65.8866 348.32V347.64C66.606 348.112 67.3398 348.449 68.3829 348.463C70.275 348.449 70.8073 347.44 70.8145 345.371C70.8145 345.034 70.8001 344.727 70.8001 344.397C70.5843 345.049 69.6275 346.051 68.2463 346.051C66.6492 346.051 65.4766 344.755 65.4766 342.565C65.4766 340.704 66.4549 339 68.2966 339C70.0376 339 70.7929 340.489 70.8577 340.861V339.179H71.4764V345.127C71.4908 347.869 70.7138 348.986 68.2822 349C67.4477 349 66.5053 348.728 65.8722 348.32H65.8866ZM70.8505 342.686V342.286C70.8361 341.069 69.9512 339.501 68.5412 339.494C67.0449 339.508 66.2463 340.918 66.2463 342.529C66.2463 344.397 67.2103 345.557 68.4333 345.557C69.8145 345.557 70.8433 344.29 70.8433 342.686H70.8505Z" fill="white"/>
<path d="M141.852 341.656C141.852 340.237 141.213 339.56 140.141 339.56C138.95 339.56 138.088 340.826 138.088 341.881V346H137.477V339.233H138.056V340.615C138.477 339.611 139.187 339 140.332 339C141.595 339 142.477 339.953 142.477 341.518V346H141.852V341.663V341.656Z" fill="white"/>
<path d="M100.477 342.461C100.477 340.55 101.757 339 103.573 339C105.211 339 106.477 340.168 106.477 341.951C106.477 342.178 106.462 342.383 106.441 342.56H101.242C101.242 344.45 102.214 345.476 104.109 345.476C104.825 345.476 105.468 345.271 106.133 344.768V345.427C105.611 345.795 104.868 346 103.945 346C101.757 346 100.477 344.754 100.477 342.461ZM105.733 342.107C105.811 340.324 104.732 339.51 103.53 339.51C102.329 339.51 101.263 340.628 101.263 342.107H105.733Z" fill="white"/>
<path d="M119.993 346C117.897 346 116.477 344.52 116.477 342.588C116.477 340.657 117.821 339 120.018 339C122.215 339 123.477 340.678 123.477 342.652C123.477 344.625 122.357 346 119.993 346ZM119.935 339.493C118.473 339.493 117.362 340.678 117.362 342.609C117.362 344.202 118.456 345.471 120.068 345.471C121.823 345.471 122.599 344.146 122.599 342.645C122.599 340.748 121.43 339.486 119.935 339.486V339.493Z" fill="white"/>
<path d="M144.477 342.461C144.477 340.55 145.755 339 147.569 339C149.205 339 150.477 340.168 150.477 341.951C150.477 342.178 150.462 342.383 150.441 342.56H145.248C145.248 344.45 146.219 345.476 148.112 345.476C148.827 345.476 149.469 345.271 150.134 344.768V345.427C149.612 345.795 148.869 346 147.948 346C145.762 346 144.484 344.754 144.484 342.461H144.477ZM149.727 342.107C149.805 340.324 148.727 339.51 147.527 339.51C146.327 339.51 145.262 340.628 145.262 342.107H149.727Z" fill="white"/>
<path d="M169.491 346C167.694 346 166.477 344.52 166.477 342.588C166.477 340.657 167.629 339 169.512 339C171.395 339 172.477 340.678 172.477 342.652C172.477 344.625 171.517 346 169.491 346ZM169.441 339.493C168.188 339.493 167.236 340.678 167.236 342.609C167.236 344.202 168.173 345.471 169.555 345.471C171.059 345.471 171.725 344.146 171.725 342.645C171.725 340.748 170.722 339.486 169.441 339.486V339.493Z" fill="white"/>
<path d="M132.477 339.204H133.041C133.041 339.818 133.015 340.328 133.028 341.102C133.192 339.942 133.947 339 134.945 339C135.122 339 135.299 339.029 135.477 339.066V339.839C135.24 339.737 135.03 339.686 134.833 339.686C133.809 339.686 133.107 341.058 133.107 342.35V346H132.483V339.212L132.477 339.204Z" fill="white"/>
<path d="M174.477 339.204H175.041C175.041 339.818 175.015 340.328 175.028 341.102C175.192 339.942 175.947 339 176.945 339C177.122 339 177.299 339.029 177.477 339.066V339.839C177.24 339.737 177.03 339.686 176.833 339.686C175.809 339.686 175.107 341.058 175.107 342.35V346H174.483V339.212L174.477 339.204Z" fill="white"/>
<path d="M191.477 339.204H192.229C192.229 339.818 192.194 340.328 192.212 341.102C192.431 339.942 193.437 339 194.768 339C195.004 339 195.24 339.029 195.477 339.066V339.839C195.161 339.737 194.881 339.686 194.619 339.686C193.253 339.686 192.317 341.058 192.317 342.35V346H191.485V339.212L191.477 339.204Z" fill="white"/>
<path d="M14.4766 345.766H13.7246C13.6859 345.369 13.6549 344.966 13.6704 344.448C13.5076 344.817 12.6859 346 10.9184 346C9.46106 346 8.47656 345.291 8.47656 343.995C8.47656 342.507 9.87966 341.721 12.089 341.721C12.6471 341.721 13.1277 341.742 13.5851 341.806V341.274C13.5851 339.942 12.8487 339.51 11.6394 339.51C10.8176 339.51 9.70912 339.893 8.97269 340.346V339.723C9.77889 339.29 10.9572 339 11.7479 339C13.3758 339.014 14.3138 339.723 14.3138 341.274V344.278C14.3138 344.774 14.368 345.291 14.4688 345.766H14.4766ZM13.6006 343.251V342.252C13.1587 342.202 12.7091 342.174 12.1742 342.174C10.8797 342.174 9.244 342.62 9.244 343.938C9.244 344.951 10.12 345.483 11.12 345.483C11.9649 345.483 12.5076 345.242 13.0114 344.696C13.3835 344.293 13.6083 343.733 13.6083 343.251H13.6006Z" fill="white"/>
<path d="M56.4766 345.766H55.7246C55.6859 345.369 55.6549 344.966 55.6704 344.448C55.5076 344.817 54.6859 346 52.9184 346C51.4611 346 50.4766 345.291 50.4766 343.995C50.4766 342.507 51.8797 341.721 54.089 341.721C54.6471 341.721 55.1277 341.742 55.5851 341.806V341.274C55.5851 339.942 54.8487 339.51 53.6394 339.51C52.8176 339.51 51.7091 339.893 50.9727 340.346V339.723C51.7789 339.29 52.9572 339 53.7479 339C55.3758 339.014 56.3138 339.723 56.3138 341.274V344.278C56.3138 344.774 56.368 345.291 56.4688 345.766H56.4766ZM55.6006 343.251V342.252C55.1587 342.202 54.7091 342.174 54.1742 342.174C52.8797 342.174 51.244 342.62 51.244 343.938C51.244 344.951 52.12 345.483 53.12 345.483C53.9649 345.483 54.5076 345.242 55.0114 344.696C55.3835 344.293 55.6083 343.733 55.6083 343.251H55.6006Z" fill="white"/>
<path d="M78.9645 345.993C78.0335 345.993 77.1668 345.787 76.4766 345.474V344.813C77.2069 345.247 77.9453 345.474 78.9164 345.474C80.04 345.488 80.682 344.955 80.682 344.152C80.682 343.399 79.9196 342.944 78.9565 342.653C77.2872 342.141 76.5729 341.587 76.5729 340.784C76.5729 339.689 77.5681 339 79.0849 339C79.7591 339 80.4894 339.128 81.1154 339.405V340.052C80.4974 339.668 79.7751 339.533 79.1491 339.533C78.1138 339.533 77.3353 339.966 77.3353 340.627C77.3353 341.331 77.9372 341.658 79.101 342.027C80.6098 342.511 81.4766 343.157 81.4766 344.053C81.4766 345.353 80.4734 346 78.9645 346V345.993Z" fill="white"/>
<path d="M17.0958 343.344C17.0958 344.748 17.7348 345.44 18.8086 345.44C20.1063 345.44 20.8507 343.926 20.8507 342.857V339H21.4766V345.774H20.8771V344.29C20.5016 345.294 19.7572 346 18.6505 346C17.3988 346 16.4766 345.032 16.4766 343.482V339H17.1024V343.337L17.0958 343.344Z" fill="white"/>
<path d="M125.22 343.344C125.22 344.748 125.986 345.44 127.275 345.44C128.832 345.44 129.726 343.926 129.726 342.857V339H130.477V345.774H129.757V344.29C129.307 345.294 128.413 346 127.085 346C125.583 346 124.477 345.032 124.477 343.482V339H125.228V343.337L125.22 343.344Z" fill="white"/>
<path d="M151.477 348.153C151.881 348.342 152.229 348.463 152.535 348.463C153.273 348.463 153.706 347.435 154.338 345.621L151.526 339H152.3L153.827 342.885C154.182 343.762 154.501 344.495 154.643 344.888H154.679C154.828 344.495 155.048 343.898 155.353 343.089L156.802 339H157.477L155.013 345.47C154.047 347.934 153.6 349 152.506 349C152.151 349 151.817 348.932 151.477 348.796V348.146V348.153Z" fill="white"/>
<path d="M21.3828 400L32.4561 378.269V378.086H19.1748V376.044H34.7803V378.169L23.8066 400H21.3828Z" fill="white"/>
<path d="M0 382.668C0.0332031 378.518 3.2373 375.546 7.65332 375.546C11.7871 375.546 14.958 378.385 14.958 382.203C14.958 384.876 13.7793 386.852 9.5625 391.234L3.32031 397.742V397.941H15.5557V400H0.132812V398.406L8.38379 389.558C11.6875 386.005 12.6338 384.594 12.6338 382.419C12.6338 379.646 10.5918 377.538 7.52051 377.538C4.39941 377.538 2.24121 379.63 2.20801 382.668H0Z" fill="white"/>
<path d="M187.745 400V378.584H187.529C186.932 378.916 182.101 382.353 181.287 382.884V380.477C181.802 380.145 186.766 376.625 187.745 376.044H190.003V400H187.745Z" fill="white"/>
<path d="M165.914 388.611V386.652H168.687C171.791 386.652 173.966 384.76 173.966 382.021C173.966 379.563 171.907 377.538 168.836 377.538C165.781 377.538 163.64 379.265 163.424 382.07H161.199C161.465 378.318 164.437 375.546 168.985 375.546C173.451 375.546 176.273 378.435 176.273 381.788C176.257 384.71 174.431 386.702 171.774 387.366V387.582C175.095 388.014 177.27 390.188 177.27 393.525C177.27 397.51 173.667 400.498 168.936 400.498C164.304 400.498 160.9 397.759 160.751 393.907H162.942C163.142 396.58 165.632 398.506 168.919 398.506C172.389 398.506 174.929 396.414 174.929 393.476C174.929 390.471 172.604 388.611 168.77 388.611H165.914Z" fill="white"/>
<path d="M131.477 387V388H105.477V387H131.477Z" fill="white"/>
<path d="M230.984 422.44V423.392H220.022V424.064H219V411.884H230.62V412.822H220.022V422.44H230.984ZM226.91 416.112V414.502H223.704V416.112H226.91ZM227.932 413.76V416.868H222.738V413.76H227.932ZM222.094 418.562V420.634H223.956V418.562H222.094ZM221.226 421.39V417.806H224.866V421.39H221.226ZM228.646 420.634V418.562H226.7V420.634H228.646ZM229.57 417.806V421.39H225.804V417.806H229.57Z" fill="white"/>
<path d="M195.744 415.426V416.098H187.526V415.426H191.138V414.544H188.338V413.9H191.138V413.116H192.076V413.9H195.002V414.544H192.076V415.426H195.744ZM194.582 419.108H192.188C192.482 419.444 192.846 419.766 193.266 420.06C193.7 419.766 194.19 419.416 194.582 419.108ZM189.29 417.358V418.464H193.994V417.358H189.29ZM194.918 418.828L195.59 419.234C195.072 419.668 194.414 420.102 193.84 420.424C194.526 420.816 195.296 421.138 196.052 421.334C195.856 421.488 195.604 421.81 195.478 422.02C194.176 421.614 192.832 420.802 191.894 419.85V422.132H190.956V420.06C190.004 420.718 188.898 421.278 187.876 421.67C187.764 421.488 187.456 421.138 187.274 420.97C188.59 420.55 189.976 419.906 190.956 419.108H188.422V416.742H194.918V418.828ZM186.84 422.538H196.444V412.85H186.84V422.538ZM185.846 411.898H197.466V424.064H196.444V423.476H186.84V424.064H185.846V411.898Z" fill="white"/>
<path d="M164.398 423H163.168V413.136H164.398V423Z" fill="white"/>
<path d="M141.146 423L140.155 420.177H136.231L135.24 423H133.948L137.585 413.136H138.802L142.438 423H141.146ZM138.139 414.729L136.594 419.131H139.793L138.248 414.729H138.139Z" fill="white"/>
<path d="M105.013 414.824V411.548H106.063V423.938H105.013V420.802C103.753 421.348 102.493 421.88 101.485 422.3L100.995 421.25C102.017 420.928 103.515 420.34 105.013 419.766V415.846H101.429V414.824H105.013ZM110.179 422.734H112.237C112.881 422.734 112.979 422.132 113.077 419.822C113.329 420.032 113.777 420.242 114.071 420.312C113.945 422.846 113.665 423.756 112.307 423.756H110.067C108.765 423.756 108.401 423.336 108.401 421.852V411.562H109.451V416.182C110.753 415.398 112.069 414.474 112.909 413.676L113.679 414.572C112.517 415.496 110.921 416.434 109.451 417.26V421.866C109.451 422.594 109.577 422.734 110.179 422.734Z" fill="white"/>
<path d="M74.4766 415.146H71.9846V424.064H70.9626V415.146H70.2906C69.8566 416.168 69.3526 417.092 68.8206 417.82C68.6246 417.652 68.1486 417.344 67.8826 417.19C69.0306 415.776 69.9126 413.536 70.4306 411.282L71.4946 411.506C71.2706 412.402 71.0046 413.284 70.6966 414.124H74.4766V415.146ZM80.8746 414.124V415.146H78.7606V422.692C78.7606 423.364 78.6206 423.686 78.1726 423.84C77.7246 424.036 76.9406 424.05 75.8486 424.05C75.7926 423.742 75.6526 423.266 75.4986 422.958C76.3526 422.986 77.1646 422.986 77.4166 422.972C77.6546 422.958 77.7106 422.902 77.7106 422.692V415.146H75.6666C75.2326 416.154 74.7426 417.078 74.1966 417.806C74.0146 417.624 73.5666 417.316 73.3006 417.176C74.4346 415.762 75.2886 413.55 75.7786 411.282L76.8146 411.492C76.6046 412.402 76.3526 413.284 76.0446 414.124H80.8746Z" fill="white"/>
<path d="M41.0566 416.266H37.3886V417.064H41.0566V416.266ZM37.3746 418.562H41.0566V417.75H37.3886V417.764C37.3886 418.016 37.3886 418.282 37.3746 418.562ZM41.2806 421.012H38.0606V422.664H41.2806V421.012ZM41.9946 419.346H37.3046C37.2766 419.626 37.2346 419.92 37.1786 420.214H42.2046V423.938H41.2806V423.462H38.0606V424.036H37.1506V420.396C36.9126 421.586 36.4786 422.79 35.6946 423.756C35.5686 423.56 35.1906 423.224 34.9946 423.112C36.3106 421.516 36.4646 419.346 36.4646 417.75V415.482H41.9946V419.346ZM38.6626 411.422H39.6146C40.6506 412.206 41.9806 413.326 42.6806 414.054L41.9946 414.838C41.3926 414.166 40.2586 413.074 39.2926 412.318C38.9006 412.822 38.4246 413.396 37.8506 413.956H41.0846V414.712H37.6826V414.124C37.1086 414.67 36.4226 415.216 35.6526 415.706C35.5266 415.496 35.2046 415.146 34.9946 415.006C36.7306 413.97 37.9766 412.556 38.6626 411.422ZM44.1226 412.962V420.662H43.1426V412.962H44.1226ZM46.2646 411.562H47.2726V422.692C47.2726 423.392 47.0906 423.7 46.6566 423.882C46.2226 424.05 45.4806 424.078 44.2346 424.064C44.1926 423.798 44.0246 423.322 43.8706 423.028C44.8226 423.07 45.6486 423.056 45.9146 423.042C46.1526 423.042 46.2646 422.958 46.2646 422.706V411.562Z" fill="white"/>
<path d="M12.6346 413.046H10.4506C10.3666 413.48 10.2686 413.9 10.1846 414.278H12.6346V413.046ZM14.7206 414.278V415.09H6.89464V414.278H9.16264C9.24664 413.9 9.34465 413.48 9.41465 413.046H7.65064V412.262H9.56864C9.62464 411.912 9.68064 411.576 9.73664 411.268L10.7586 411.366C10.7166 411.646 10.6606 411.954 10.6046 412.262H13.6146V414.278H14.7206ZM2.76464 419.22L3.64664 419.374C3.45064 420.69 3.12864 422.034 2.68064 422.93C2.52664 422.804 2.10664 422.622 1.91064 422.552C2.34464 421.698 2.61064 420.438 2.76464 419.22ZM6.26464 418.1L5.15864 418.17V424.064H4.23464V418.226L2.03664 418.366L1.93864 417.428L2.90464 417.386C3.18464 417.036 3.47864 416.644 3.77264 416.224C3.36664 415.594 2.66664 414.796 2.03664 414.194L2.59664 413.536C2.73664 413.662 2.87664 413.788 3.01664 413.928C3.47864 413.13 3.96864 412.066 4.26264 411.296L5.17264 411.632C4.69664 412.598 4.09464 413.732 3.56264 414.516C3.85664 414.824 4.10864 415.132 4.31864 415.412C4.89264 414.544 5.42464 413.634 5.81664 412.878L6.68464 413.284C5.88664 414.558 4.83664 416.14 3.88464 417.33L5.90064 417.232C5.70464 416.826 5.49464 416.42 5.27064 416.056L6.02664 415.748C6.61464 416.644 7.17464 417.848 7.38464 418.618L6.55864 418.996C6.50265 418.73 6.40464 418.422 6.26464 418.1ZM9.17664 421.6H11.0386V420.284H9.17664V421.6ZM8.84064 416.546V417.848H12.9286V416.546H8.84064ZM14.7906 421.6V422.44H12.0326V424.064H11.0386V422.44H6.92265V421.642L6.30664 421.838C6.23664 421.18 5.95665 420.172 5.63464 419.416L6.40464 419.192C6.74064 419.934 7.02064 420.928 7.11864 421.572L7.03464 421.6H8.22464V420.284H7.44064V419.486H11.0386V418.618H7.90264V415.776H13.9226V418.618H12.0326V419.486H14.3846V420.284H12.0326V421.6H14.7906Z" fill="white"/>
<defs>
<linearGradient id="paint0_linear_1_2971" x1="60.2634" y1="43.1349" x2="60.2634" y2="63.959" gradientUnits="userSpaceOnUse">
<stop stop-color="white"/>
<stop offset="0.11" stop-color="white" stop-opacity="0.98"/>
<stop offset="0.24" stop-color="white" stop-opacity="0.93"/>
<stop offset="0.37" stop-color="white" stop-opacity="0.85"/>
<stop offset="0.5" stop-color="white" stop-opacity="0.73"/>
<stop offset="0.63" stop-color="white" stop-opacity="0.57"/>
<stop offset="0.77" stop-color="white" stop-opacity="0.38"/>
<stop offset="0.91" stop-color="white" stop-opacity="0.17"/>
<stop offset="1" stop-color="white" stop-opacity="0"/>
</linearGradient>
<linearGradient id="paint1_linear_1_2971" x1="65.9451" y1="53.5519" x2="99.516" y2="53.5519" gradientUnits="userSpaceOnUse">
<stop stop-color="white"/>
<stop offset="0.11" stop-color="white" stop-opacity="0.98"/>
<stop offset="0.24" stop-color="white" stop-opacity="0.93"/>
<stop offset="0.37" stop-color="white" stop-opacity="0.85"/>
<stop offset="0.5" stop-color="white" stop-opacity="0.73"/>
<stop offset="0.63" stop-color="white" stop-opacity="0.57"/>
<stop offset="0.77" stop-color="white" stop-opacity="0.38"/>
<stop offset="0.91" stop-color="white" stop-opacity="0.17"/>
<stop offset="1" stop-color="white" stop-opacity="0"/>
</linearGradient>
<linearGradient id="paint2_linear_1_2971" x1="2.47656" y1="80.6282" x2="111.467" y2="80.6282" gradientUnits="userSpaceOnUse">
<stop stop-color="white"/>
<stop offset="0.11" stop-color="white" stop-opacity="0.98"/>
<stop offset="0.24" stop-color="white" stop-opacity="0.93"/>
<stop offset="0.37" stop-color="white" stop-opacity="0.85"/>
<stop offset="0.5" stop-color="white" stop-opacity="0.73"/>
<stop offset="0.63" stop-color="white" stop-opacity="0.57"/>
<stop offset="0.77" stop-color="white" stop-opacity="0.38"/>
<stop offset="0.91" stop-color="white" stop-opacity="0.17"/>
<stop offset="1" stop-color="white" stop-opacity="0"/>
</linearGradient>
<linearGradient id="paint3_linear_1_2971" x1="97.6154" y1="83.7591" x2="60.12" y2="111.244" gradientUnits="userSpaceOnUse">
<stop stop-color="white"/>
<stop offset="0.11" stop-color="white" stop-opacity="0.98"/>
<stop offset="0.24" stop-color="white" stop-opacity="0.93"/>
<stop offset="0.37" stop-color="white" stop-opacity="0.85"/>
<stop offset="0.5" stop-color="white" stop-opacity="0.73"/>
<stop offset="0.63" stop-color="white" stop-opacity="0.57"/>
<stop offset="0.77" stop-color="white" stop-opacity="0.38"/>
<stop offset="0.91" stop-color="white" stop-opacity="0.17"/>
<stop offset="1" stop-color="white" stop-opacity="0"/>
</linearGradient>
<linearGradient id="paint4_linear_1_2971" x1="78.915" y1="67.3952" x2="78.915" y2="76.3353" gradientUnits="userSpaceOnUse">
<stop stop-color="white"/>
<stop offset="0.11" stop-color="white" stop-opacity="0.98"/>
<stop offset="0.24" stop-color="white" stop-opacity="0.93"/>
<stop offset="0.37" stop-color="white" stop-opacity="0.85"/>
<stop offset="0.5" stop-color="white" stop-opacity="0.73"/>
<stop offset="0.63" stop-color="white" stop-opacity="0.57"/>
<stop offset="0.77" stop-color="white" stop-opacity="0.38"/>
<stop offset="0.91" stop-color="white" stop-opacity="0.17"/>
<stop offset="1" stop-color="white" stop-opacity="0"/>
</linearGradient>
<linearGradient id="paint5_linear_1_2971" x1="6.37549" y1="20.0955" x2="109.155" y2="20.0955" gradientUnits="userSpaceOnUse">
<stop stop-color="white"/>
<stop offset="0.11" stop-color="white" stop-opacity="0.98"/>
<stop offset="0.24" stop-color="white" stop-opacity="0.93"/>
<stop offset="0.37" stop-color="white" stop-opacity="0.85"/>
<stop offset="0.5" stop-color="white" stop-opacity="0.73"/>
<stop offset="0.63" stop-color="white" stop-opacity="0.57"/>
<stop offset="0.77" stop-color="white" stop-opacity="0.38"/>
<stop offset="0.91" stop-color="white" stop-opacity="0.17"/>
<stop offset="1" stop-color="white" stop-opacity="0"/>
</linearGradient>
<linearGradient id="paint6_linear_1_2971" x1="19.4236" y1="33.0822" x2="81.5304" y2="33.0822" gradientUnits="userSpaceOnUse">
<stop stop-color="white"/>
<stop offset="0.11" stop-color="white" stop-opacity="0.98"/>
<stop offset="0.24" stop-color="white" stop-opacity="0.93"/>
<stop offset="0.37" stop-color="white" stop-opacity="0.85"/>
<stop offset="0.5" stop-color="white" stop-opacity="0.73"/>
<stop offset="0.63" stop-color="white" stop-opacity="0.57"/>
<stop offset="0.77" stop-color="white" stop-opacity="0.38"/>
<stop offset="0.91" stop-color="white" stop-opacity="0.17"/>
<stop offset="1" stop-color="white" stop-opacity="0"/>
</linearGradient>
<linearGradient id="paint7_linear_1_2971" x1="26.2515" y1="95.5151" x2="47.5872" y2="95.5151" gradientUnits="userSpaceOnUse">
<stop stop-color="white"/>
<stop offset="0.11" stop-color="white" stop-opacity="0.98"/>
<stop offset="0.24" stop-color="white" stop-opacity="0.93"/>
<stop offset="0.37" stop-color="white" stop-opacity="0.85"/>
<stop offset="0.5" stop-color="white" stop-opacity="0.73"/>
<stop offset="0.63" stop-color="white" stop-opacity="0.57"/>
<stop offset="0.77" stop-color="white" stop-opacity="0.38"/>
<stop offset="0.91" stop-color="white" stop-opacity="0.17"/>
<stop offset="1" stop-color="white" stop-opacity="0"/>
</linearGradient>
<linearGradient id="paint8_linear_1_2971" x1="7.71753" y1="45.0943" x2="50.7514" y2="45.0943" gradientUnits="userSpaceOnUse">
<stop stop-color="white"/>
<stop offset="0.11" stop-color="white" stop-opacity="0.98"/>
<stop offset="0.24" stop-color="white" stop-opacity="0.93"/>
<stop offset="0.37" stop-color="white" stop-opacity="0.85"/>
<stop offset="0.5" stop-color="white" stop-opacity="0.73"/>
<stop offset="0.63" stop-color="white" stop-opacity="0.57"/>
<stop offset="0.77" stop-color="white" stop-opacity="0.38"/>
<stop offset="0.91" stop-color="white" stop-opacity="0.17"/>
<stop offset="1" stop-color="white" stop-opacity="0"/>
</linearGradient>
<linearGradient id="paint9_linear_1_2971" x1="5.16067" y1="66.2925" x2="52.7008" y2="66.2925" gradientUnits="userSpaceOnUse">
<stop stop-color="white"/>
<stop offset="0.11" stop-color="white" stop-opacity="0.98"/>
<stop offset="0.24" stop-color="white" stop-opacity="0.93"/>
<stop offset="0.37" stop-color="white" stop-opacity="0.85"/>
<stop offset="0.5" stop-color="white" stop-opacity="0.73"/>
<stop offset="0.63" stop-color="white" stop-opacity="0.57"/>
<stop offset="0.77" stop-color="white" stop-opacity="0.38"/>
<stop offset="0.91" stop-color="white" stop-opacity="0.17"/>
<stop offset="1" stop-color="white" stop-opacity="0"/>
</linearGradient>
<linearGradient id="paint10_linear_1_2971" x1="194.146" y1="44.7004" x2="213.969" y2="9.21267" gradientUnits="userSpaceOnUse">
<stop stop-color="white"/>
<stop offset="0.11" stop-color="white" stop-opacity="0.98"/>
<stop offset="0.24" stop-color="white" stop-opacity="0.93"/>
<stop offset="0.37" stop-color="white" stop-opacity="0.85"/>
<stop offset="0.5" stop-color="white" stop-opacity="0.73"/>
<stop offset="0.63" stop-color="white" stop-opacity="0.57"/>
<stop offset="0.77" stop-color="white" stop-opacity="0.38"/>
<stop offset="0.91" stop-color="white" stop-opacity="0.17"/>
<stop offset="1" stop-color="white" stop-opacity="0"/>
</linearGradient>
<linearGradient id="paint11_linear_1_2971" x1="127.199" y1="51.2184" x2="230.459" y2="51.2184" gradientUnits="userSpaceOnUse">
<stop stop-color="white"/>
<stop offset="0.11" stop-color="white" stop-opacity="0.98"/>
<stop offset="0.24" stop-color="white" stop-opacity="0.93"/>
<stop offset="0.37" stop-color="white" stop-opacity="0.85"/>
<stop offset="0.5" stop-color="white" stop-opacity="0.73"/>
<stop offset="0.63" stop-color="white" stop-opacity="0.57"/>
<stop offset="0.77" stop-color="white" stop-opacity="0.38"/>
<stop offset="0.91" stop-color="white" stop-opacity="0.17"/>
<stop offset="1" stop-color="white" stop-opacity="0"/>
</linearGradient>
<linearGradient id="paint12_linear_1_2971" x1="178.766" y1="49.2591" x2="178.766" y2="0" gradientUnits="userSpaceOnUse">
<stop stop-color="white"/>
<stop offset="0.11" stop-color="white" stop-opacity="0.98"/>
<stop offset="0.24" stop-color="white" stop-opacity="0.93"/>
<stop offset="0.37" stop-color="white" stop-opacity="0.85"/>
<stop offset="0.5" stop-color="white" stop-opacity="0.73"/>
<stop offset="0.63" stop-color="white" stop-opacity="0.57"/>
<stop offset="0.77" stop-color="white" stop-opacity="0.38"/>
<stop offset="0.91" stop-color="white" stop-opacity="0.17"/>
<stop offset="1" stop-color="white" stop-opacity="0"/>
</linearGradient>
<linearGradient id="paint13_linear_1_2971" x1="177.414" y1="93.1029" x2="230.566" y2="74.8184" gradientUnits="userSpaceOnUse">
<stop stop-color="white"/>
<stop offset="0.11" stop-color="white" stop-opacity="0.98"/>
<stop offset="0.24" stop-color="white" stop-opacity="0.93"/>
<stop offset="0.37" stop-color="white" stop-opacity="0.85"/>
<stop offset="0.5" stop-color="white" stop-opacity="0.73"/>
<stop offset="0.63" stop-color="white" stop-opacity="0.57"/>
<stop offset="0.77" stop-color="white" stop-opacity="0.38"/>
<stop offset="0.91" stop-color="white" stop-opacity="0.17"/>
<stop offset="1" stop-color="white" stop-opacity="0"/>
</linearGradient>
<linearGradient id="paint14_linear_1_2971" x1="161.926" y1="44.2081" x2="142.112" y2="12.6735" gradientUnits="userSpaceOnUse">
<stop stop-color="white"/>
<stop offset="0.11" stop-color="white" stop-opacity="0.98"/>
<stop offset="0.24" stop-color="white" stop-opacity="0.93"/>
<stop offset="0.37" stop-color="white" stop-opacity="0.85"/>
<stop offset="0.5" stop-color="white" stop-opacity="0.73"/>
<stop offset="0.63" stop-color="white" stop-opacity="0.57"/>
<stop offset="0.77" stop-color="white" stop-opacity="0.38"/>
<stop offset="0.91" stop-color="white" stop-opacity="0.17"/>
<stop offset="1" stop-color="white" stop-opacity="0"/>
</linearGradient>
<linearGradient id="paint15_linear_1_2971" x1="169.753" y1="58.4552" x2="131.03" y2="117.37" gradientUnits="userSpaceOnUse">
<stop stop-color="white"/>
<stop offset="0.11" stop-color="white" stop-opacity="0.98"/>
<stop offset="0.24" stop-color="white" stop-opacity="0.93"/>
<stop offset="0.37" stop-color="white" stop-opacity="0.85"/>
<stop offset="0.5" stop-color="white" stop-opacity="0.73"/>
<stop offset="0.63" stop-color="white" stop-opacity="0.57"/>
<stop offset="0.77" stop-color="white" stop-opacity="0.38"/>
<stop offset="0.91" stop-color="white" stop-opacity="0.17"/>
<stop offset="1" stop-color="white" stop-opacity="0"/>
</linearGradient>
<linearGradient id="paint16_linear_1_2971" x1="8.20728" y1="160.587" x2="87.6334" y2="160.587" gradientUnits="userSpaceOnUse">
<stop stop-color="white"/>
<stop offset="0.11" stop-color="white" stop-opacity="0.98"/>
<stop offset="0.24" stop-color="white" stop-opacity="0.93"/>
<stop offset="0.37" stop-color="white" stop-opacity="0.85"/>
<stop offset="0.5" stop-color="white" stop-opacity="0.73"/>
<stop offset="0.63" stop-color="white" stop-opacity="0.57"/>
<stop offset="0.77" stop-color="white" stop-opacity="0.38"/>
<stop offset="0.91" stop-color="white" stop-opacity="0.17"/>
<stop offset="1" stop-color="white" stop-opacity="0"/>
</linearGradient>
<linearGradient id="paint17_linear_1_2971" x1="43.0908" y1="144.016" x2="62.869" y2="144.016" gradientUnits="userSpaceOnUse">
<stop stop-color="white"/>
<stop offset="0.11" stop-color="white" stop-opacity="0.98"/>
<stop offset="0.24" stop-color="white" stop-opacity="0.93"/>
<stop offset="0.37" stop-color="white" stop-opacity="0.85"/>
<stop offset="0.5" stop-color="white" stop-opacity="0.73"/>
<stop offset="0.63" stop-color="white" stop-opacity="0.57"/>
<stop offset="0.77" stop-color="white" stop-opacity="0.38"/>
<stop offset="0.91" stop-color="white" stop-opacity="0.17"/>
<stop offset="1" stop-color="white" stop-opacity="0"/>
</linearGradient>
<linearGradient id="paint18_linear_1_2971" x1="28.142" y1="203.348" x2="7.01068" y2="238.827" gradientUnits="userSpaceOnUse">
<stop stop-color="white"/>
<stop offset="0.11" stop-color="white" stop-opacity="0.98"/>
<stop offset="0.24" stop-color="white" stop-opacity="0.93"/>
<stop offset="0.37" stop-color="white" stop-opacity="0.85"/>
<stop offset="0.5" stop-color="white" stop-opacity="0.73"/>
<stop offset="0.63" stop-color="white" stop-opacity="0.57"/>
<stop offset="0.77" stop-color="white" stop-opacity="0.38"/>
<stop offset="0.91" stop-color="white" stop-opacity="0.17"/>
<stop offset="1" stop-color="white" stop-opacity="0"/>
</linearGradient>
<linearGradient id="paint19_linear_1_2971" x1="28.5437" y1="224.782" x2="111.467" y2="224.782" gradientUnits="userSpaceOnUse">
<stop stop-color="white"/>
<stop offset="0.11" stop-color="white" stop-opacity="0.98"/>
<stop offset="0.24" stop-color="white" stop-opacity="0.93"/>
<stop offset="0.37" stop-color="white" stop-opacity="0.85"/>
<stop offset="0.5" stop-color="white" stop-opacity="0.73"/>
<stop offset="0.63" stop-color="white" stop-opacity="0.57"/>
<stop offset="0.77" stop-color="white" stop-opacity="0.38"/>
<stop offset="0.91" stop-color="white" stop-opacity="0.17"/>
<stop offset="1" stop-color="white" stop-opacity="0"/>
</linearGradient>
<linearGradient id="paint20_linear_1_2971" x1="141.708" y1="143.317" x2="155.971" y2="143.317" gradientUnits="userSpaceOnUse">
<stop stop-color="white"/>
<stop offset="0.11" stop-color="white" stop-opacity="0.98"/>
<stop offset="0.24" stop-color="white" stop-opacity="0.93"/>
<stop offset="0.37" stop-color="white" stop-opacity="0.85"/>
<stop offset="0.5" stop-color="white" stop-opacity="0.73"/>
<stop offset="0.63" stop-color="white" stop-opacity="0.57"/>
<stop offset="0.77" stop-color="white" stop-opacity="0.38"/>
<stop offset="0.91" stop-color="white" stop-opacity="0.17"/>
<stop offset="1" stop-color="white" stop-opacity="0"/>
</linearGradient>
<linearGradient id="paint21_linear_1_2971" x1="190.208" y1="136.957" x2="166.42" y2="182.316" gradientUnits="userSpaceOnUse">
<stop stop-color="white"/>
<stop offset="0.11" stop-color="white" stop-opacity="0.98"/>
<stop offset="0.24" stop-color="white" stop-opacity="0.93"/>
<stop offset="0.37" stop-color="white" stop-opacity="0.85"/>
<stop offset="0.5" stop-color="white" stop-opacity="0.73"/>
<stop offset="0.63" stop-color="white" stop-opacity="0.57"/>
<stop offset="0.77" stop-color="white" stop-opacity="0.38"/>
<stop offset="0.91" stop-color="white" stop-opacity="0.17"/>
<stop offset="1" stop-color="white" stop-opacity="0"/>
</linearGradient>
<linearGradient id="paint22_linear_1_2971" x1="188.591" y1="152.621" x2="229.852" y2="152.621" gradientUnits="userSpaceOnUse">
<stop stop-color="white"/>
<stop offset="0.11" stop-color="white" stop-opacity="0.98"/>
<stop offset="0.24" stop-color="white" stop-opacity="0.93"/>
<stop offset="0.37" stop-color="white" stop-opacity="0.85"/>
<stop offset="0.5" stop-color="white" stop-opacity="0.73"/>
<stop offset="0.63" stop-color="white" stop-opacity="0.57"/>
<stop offset="0.77" stop-color="white" stop-opacity="0.38"/>
<stop offset="0.91" stop-color="white" stop-opacity="0.17"/>
<stop offset="1" stop-color="white" stop-opacity="0"/>
</linearGradient>
<linearGradient id="paint23_linear_1_2971" x1="197.809" y1="188.618" x2="211.044" y2="224.147" gradientUnits="userSpaceOnUse">
<stop stop-color="white"/>
<stop offset="0.11" stop-color="white" stop-opacity="0.98"/>
<stop offset="0.24" stop-color="white" stop-opacity="0.93"/>
<stop offset="0.37" stop-color="white" stop-opacity="0.85"/>
<stop offset="0.5" stop-color="white" stop-opacity="0.73"/>
<stop offset="0.63" stop-color="white" stop-opacity="0.57"/>
<stop offset="0.77" stop-color="white" stop-opacity="0.38"/>
<stop offset="0.91" stop-color="white" stop-opacity="0.17"/>
<stop offset="1" stop-color="white" stop-opacity="0"/>
</linearGradient>
<linearGradient id="paint24_linear_1_2971" x1="170.233" y1="235.091" x2="208.879" y2="235.091" gradientUnits="userSpaceOnUse">
<stop stop-color="white"/>
<stop offset="0.11" stop-color="white" stop-opacity="0.98"/>
<stop offset="0.24" stop-color="white" stop-opacity="0.93"/>
<stop offset="0.37" stop-color="white" stop-opacity="0.85"/>
<stop offset="0.5" stop-color="white" stop-opacity="0.73"/>
<stop offset="0.63" stop-color="white" stop-opacity="0.57"/>
<stop offset="0.77" stop-color="white" stop-opacity="0.38"/>
<stop offset="0.91" stop-color="white" stop-opacity="0.17"/>
<stop offset="1" stop-color="white" stop-opacity="0"/>
</linearGradient>
<linearGradient id="paint25_linear_1_2971" x1="203.52" y1="194.565" x2="238.492" y2="240.512" gradientUnits="userSpaceOnUse">
<stop stop-color="white"/>
<stop offset="0.11" stop-color="white" stop-opacity="0.98"/>
<stop offset="0.24" stop-color="white" stop-opacity="0.93"/>
<stop offset="0.37" stop-color="white" stop-opacity="0.85"/>
<stop offset="0.5" stop-color="white" stop-opacity="0.73"/>
<stop offset="0.63" stop-color="white" stop-opacity="0.57"/>
<stop offset="0.77" stop-color="white" stop-opacity="0.38"/>
<stop offset="0.91" stop-color="white" stop-opacity="0.17"/>
<stop offset="1" stop-color="white" stop-opacity="0"/>
</linearGradient>
<linearGradient id="paint26_linear_1_2971" x1="211.338" y1="201.91" x2="223.858" y2="188.13" gradientUnits="userSpaceOnUse">
<stop stop-color="white"/>
<stop offset="0.11" stop-color="white" stop-opacity="0.98"/>
<stop offset="0.24" stop-color="white" stop-opacity="0.93"/>
<stop offset="0.37" stop-color="white" stop-opacity="0.85"/>
<stop offset="0.5" stop-color="white" stop-opacity="0.73"/>
<stop offset="0.63" stop-color="white" stop-opacity="0.57"/>
<stop offset="0.77" stop-color="white" stop-opacity="0.38"/>
<stop offset="0.91" stop-color="white" stop-opacity="0.17"/>
<stop offset="1" stop-color="white" stop-opacity="0"/>
</linearGradient>
<linearGradient id="paint27_linear_1_2971" x1="28.9355" y1="50.5489" x2="28.9355" y2="61.3203" gradientUnits="userSpaceOnUse">
<stop stop-color="white"/>
<stop offset="0.11" stop-color="white" stop-opacity="0.98"/>
<stop offset="0.24" stop-color="white" stop-opacity="0.93"/>
<stop offset="0.37" stop-color="white" stop-opacity="0.85"/>
<stop offset="0.5" stop-color="white" stop-opacity="0.73"/>
<stop offset="0.63" stop-color="white" stop-opacity="0.57"/>
<stop offset="0.77" stop-color="white" stop-opacity="0.38"/>
<stop offset="0.91" stop-color="white" stop-opacity="0.17"/>
<stop offset="1" stop-color="white" stop-opacity="0"/>
</linearGradient>
<linearGradient id="paint28_linear_1_2971" x1="165.62" y1="195.618" x2="139.199" y2="239.64" gradientUnits="userSpaceOnUse">
<stop stop-color="white"/>
<stop offset="0.11" stop-color="white" stop-opacity="0.98"/>
<stop offset="0.24" stop-color="white" stop-opacity="0.93"/>
<stop offset="0.37" stop-color="white" stop-opacity="0.85"/>
<stop offset="0.5" stop-color="white" stop-opacity="0.73"/>
<stop offset="0.63" stop-color="white" stop-opacity="0.57"/>
<stop offset="0.77" stop-color="white" stop-opacity="0.38"/>
<stop offset="0.91" stop-color="white" stop-opacity="0.17"/>
<stop offset="1" stop-color="white" stop-opacity="0"/>
</linearGradient>
<linearGradient id="paint29_linear_1_2971" x1="126.465" y1="158.017" x2="175.847" y2="158.017" gradientUnits="userSpaceOnUse">
<stop stop-color="white"/>
<stop offset="0.11" stop-color="white" stop-opacity="0.98"/>
<stop offset="0.24" stop-color="white" stop-opacity="0.93"/>
<stop offset="0.37" stop-color="white" stop-opacity="0.85"/>
<stop offset="0.5" stop-color="white" stop-opacity="0.73"/>
<stop offset="0.63" stop-color="white" stop-opacity="0.57"/>
<stop offset="0.77" stop-color="white" stop-opacity="0.38"/>
<stop offset="0.91" stop-color="white" stop-opacity="0.17"/>
<stop offset="1" stop-color="white" stop-opacity="0"/>
</linearGradient>
<linearGradient id="paint30_linear_1_2971" x1="141.874" y1="192.842" x2="122.69" y2="244.164" gradientUnits="userSpaceOnUse">
<stop stop-color="white"/>
<stop offset="0.11" stop-color="white" stop-opacity="0.98"/>
<stop offset="0.24" stop-color="white" stop-opacity="0.93"/>
<stop offset="0.37" stop-color="white" stop-opacity="0.85"/>
<stop offset="0.5" stop-color="white" stop-opacity="0.73"/>
<stop offset="0.63" stop-color="white" stop-opacity="0.57"/>
<stop offset="0.77" stop-color="white" stop-opacity="0.38"/>
<stop offset="0.91" stop-color="white" stop-opacity="0.17"/>
<stop offset="1" stop-color="white" stop-opacity="0"/>
</linearGradient>
<linearGradient id="paint31_linear_1_2971" x1="96.6947" y1="160.4" x2="37.7437" y2="216.104" gradientUnits="userSpaceOnUse">
<stop stop-color="white"/>
<stop offset="0.11" stop-color="white" stop-opacity="0.98"/>
<stop offset="0.24" stop-color="white" stop-opacity="0.93"/>
<stop offset="0.37" stop-color="white" stop-opacity="0.85"/>
<stop offset="0.5" stop-color="white" stop-opacity="0.73"/>
<stop offset="0.63" stop-color="white" stop-opacity="0.57"/>
<stop offset="0.77" stop-color="white" stop-opacity="0.38"/>
<stop offset="0.91" stop-color="white" stop-opacity="0.17"/>
<stop offset="1" stop-color="white" stop-opacity="0"/>
</linearGradient>
<clipPath id="clip0_1_2971">
<rect width="231" height="246" fill="white" transform="translate(2.47656)"/>
</clipPath>
</defs>
</svg>
