<svg width="23" height="23" viewBox="0 0 23 23" fill="none" xmlns="http://www.w3.org/2000/svg">
<path d="M7.39419 17.0567V16.0154L11.3058 11.7347C11.764 11.2332 12.1421 10.7966 12.4399 10.4262C12.7365 10.052 12.9567 9.70193 13.0993 9.37353C13.2456 9.0413 13.3195 8.69509 13.3195 8.33232C13.3195 7.91608 13.2189 7.55458 13.0178 7.25036C12.8218 6.94487 12.5519 6.71065 12.2082 6.54391C11.8646 6.37843 11.4789 6.2957 11.0512 6.2957C10.5955 6.2957 10.1984 6.38989 9.85849 6.57955C9.52373 6.76412 9.26278 7.02505 9.07822 7.35981C8.89619 7.69586 8.80582 8.08918 8.80582 8.53978H7.44001C7.44001 7.84606 7.6004 7.23636 7.92116 6.71194C8.24066 6.18751 8.67726 5.77889 9.22842 5.48486C9.78339 5.19209 10.4071 5.04572 11.097 5.04572C11.7869 5.04572 12.4068 5.19209 12.9427 5.48486C13.4786 5.77889 13.8999 6.1735 14.2041 6.6712C14.5096 7.16889 14.6611 7.7226 14.6611 8.33232C14.6611 8.76764 14.5822 9.19406 14.4243 9.6103C14.2703 10.024 14.0005 10.4848 13.6135 10.9939C13.2316 11.4992 12.7021 12.1166 12.0224 12.8447L9.36207 15.6921V15.7838H14.8698V17.0567H7.39419ZM11.1314 22.264C9.90177 22.264 8.72945 22.0769 7.6144 21.7027C6.50317 21.3285 5.48359 20.8002 4.55311 20.1179C3.62772 19.4395 2.82326 18.635 2.14099 17.7046C1.46254 16.7792 0.935571 15.7609 0.561342 14.6496C0.187114 13.5359 0 12.3623 0 11.1327C0 9.90306 0.187114 8.73072 0.561342 7.62076C0.935571 6.50572 1.46254 5.48485 2.14099 4.55947C2.82326 3.63026 3.62772 2.8258 4.55311 2.14736C5.48359 1.46382 6.50317 0.935575 7.6144 0.561347C8.72945 0.187118 9.90177 0 11.1314 0C12.361 0 13.5333 0.187118 14.6445 0.561347C15.7583 0.935575 16.7792 1.46382 17.7046 2.14736C18.6338 2.8258 19.4382 3.63026 20.1179 4.55947C20.8002 5.48485 21.3285 6.50572 21.7027 7.62076C22.0769 8.73072 22.264 9.90178 22.264 11.1327C22.264 12.3635 22.0769 13.5359 21.7027 14.6496C21.3285 15.7609 20.8002 16.7792 20.1179 17.7046C19.4382 18.635 18.6338 19.4395 17.7046 20.1179C16.7792 20.8002 15.7583 21.3285 14.6445 21.7027C13.5333 22.0769 12.3623 22.264 11.1314 22.264ZM11.1314 20.9224C12.2159 20.9224 13.2456 20.7557 14.2219 20.4247C15.2008 20.0963 16.0982 19.6317 16.9116 19.0296C17.73 18.4327 18.4377 17.7262 19.036 16.9128C19.6368 16.0944 20.1014 15.1983 20.4298 14.222C20.7582 13.2418 20.9211 12.2121 20.9211 11.1327C20.9211 10.0533 20.7582 9.0184 20.4298 8.04337C20.1014 7.06325 19.6368 6.16585 19.036 5.35247C18.4377 4.53401 17.73 3.82629 16.9116 3.22931C16.0982 2.62723 15.2008 2.16264 14.2219 1.83423C13.2456 1.5071 12.2159 1.3429 11.1314 1.3429C10.0469 1.3429 9.01584 1.5071 8.037 1.83423C7.06069 2.16264 6.16331 2.62723 5.34612 3.22931C4.53274 3.82629 3.82502 4.53401 3.22294 5.35247C2.62469 6.16585 2.16263 7.06325 1.83423 8.04337C1.50582 9.0184 1.34289 10.0482 1.34289 11.1327C1.34289 12.2172 1.50582 13.2418 1.83423 14.222C2.16263 15.1983 2.62469 16.0944 3.22294 16.9128C3.82502 17.7262 4.53274 18.4327 5.34612 19.0296C6.16331 19.6317 7.06069 20.0963 8.037 20.4247C9.01584 20.7557 10.0482 20.9224 11.1314 20.9224Z" fill="white"/>
</svg>
