<svg width="23" height="23" viewBox="0 0 23 23" fill="none" xmlns="http://www.w3.org/2000/svg">
<path d="M6.15567 14.6267V13.4468L11.363 5.20737H12.2197V7.03524H11.6405L7.70732 13.2609V13.3538H14.7196V14.6267H6.15567ZM11.7335 17.0567V5.20737H13.0993V17.0567H11.7335ZM11.1314 22.264C9.90177 22.264 8.72944 22.0769 7.61439 21.7027C6.50316 21.3285 5.48359 20.8002 4.55311 20.118C3.62773 19.4382 2.82325 18.6338 2.14099 17.7046C1.46254 16.7792 0.935575 15.7609 0.561347 14.6496C0.187118 13.5346 0 12.3623 0 11.1314C0 9.90049 0.187118 8.73072 0.561347 7.61949C0.935575 6.50571 1.46254 5.48486 2.14099 4.55948C2.82325 3.63027 3.62773 2.8258 4.55311 2.14608C5.48359 1.46382 6.50316 0.935567 7.61439 0.561339C8.72944 0.187111 9.90177 0 11.1314 0C12.361 0 13.5333 0.187111 14.6445 0.561339C15.7583 0.935567 16.7792 1.46382 17.7046 2.14608C18.6338 2.8258 19.4382 3.63027 20.118 4.55948C20.8002 5.48486 21.3285 6.50571 21.7027 7.61949C22.0769 8.73072 22.264 9.90177 22.264 11.1314C22.264 12.361 22.0769 13.5346 21.7027 14.6496C21.3285 15.7609 20.8002 16.7792 20.118 17.7046C19.4382 18.6338 18.6338 19.4382 17.7046 20.118C16.7792 20.8002 15.7583 21.3285 14.6445 21.7027C13.5333 22.0769 12.3623 22.264 11.1314 22.264ZM11.1314 20.9211C12.2159 20.9211 13.2456 20.7557 14.2219 20.4234C15.2008 20.0963 16.0982 19.6317 16.9115 19.0296C17.73 18.4314 18.4377 17.7262 19.036 16.9115C19.6368 16.0944 20.1014 15.197 20.4298 14.2219C20.7582 13.2418 20.9211 12.2121 20.9211 11.1314C20.9211 10.0507 20.7582 9.01839 20.4298 8.04209C20.1014 7.06197 19.6368 6.16585 19.036 5.35248C18.4377 4.53401 17.73 3.82629 16.9115 3.22803C16.0982 2.62723 15.2008 2.16136 14.2219 1.83422C13.2456 1.50582 12.2159 1.34289 11.1314 1.34289C10.0469 1.34289 9.01585 1.50582 8.037 1.83422C7.06069 2.16136 6.16331 2.62723 5.34612 3.22803C4.53274 3.82629 3.82501 4.53401 3.22294 5.35248C2.62468 6.16585 2.16264 7.06197 1.83423 8.04209C1.50583 9.01839 1.3429 10.0481 1.3429 11.1314C1.3429 12.2146 1.50583 13.2418 1.83423 14.2219C2.16264 15.197 2.62468 16.0944 3.22294 16.9115C3.82501 17.7262 4.53274 18.4314 5.34612 19.0296C6.16331 19.6317 7.06069 20.0963 8.037 20.4234C9.01585 20.7557 10.0481 20.9211 11.1314 20.9211Z" fill="white"/>
</svg>
