<svg width="23" height="23" viewBox="0 0 23 23" fill="none" xmlns="http://www.w3.org/2000/svg">
<path d="M8.46978 17.0567L13.7701 6.57318V6.48025H7.66021V5.20737H15.2517V6.549L9.97434 17.0567H8.46978ZM11.1314 22.264C9.90049 22.264 8.72818 22.0769 7.61441 21.7027C6.50318 21.3285 5.48232 20.8002 4.55311 20.1179C3.62773 19.4382 2.82327 18.6338 2.141 17.7046C1.46128 16.7792 0.93559 15.7609 0.561362 14.6496C0.187134 13.5346 0 12.3623 0 11.1314C0 9.9005 0.187134 8.73072 0.561362 7.61949C0.93559 6.50571 1.46128 5.48486 2.141 4.55948C2.82327 3.63027 3.62773 2.8258 4.55311 2.14608C5.48232 1.46382 6.50318 0.935571 7.61441 0.561343C8.72818 0.187115 9.90049 0 11.1314 0C12.3623 0 13.5333 0.187115 14.6433 0.561343C15.7583 0.935571 16.7792 1.46382 17.7046 2.14608C18.6338 2.8258 19.4382 3.63027 20.1167 4.55948C20.8002 5.48486 21.3285 6.50571 21.7027 7.61949C22.0769 8.73072 22.2641 9.90177 22.2641 11.1314C22.2641 12.361 22.0769 13.5346 21.7027 14.6496C21.3285 15.7609 20.8002 16.7792 20.1167 17.7046C19.4382 18.6338 18.6338 19.4382 17.7046 20.1179C16.7792 20.8002 15.7583 21.3285 14.6433 21.7027C13.5333 22.0769 12.3623 22.264 11.1314 22.264ZM11.1314 20.9211C12.2159 20.9211 13.2456 20.7557 14.2207 20.4234C15.2008 20.0963 16.0982 19.6317 16.9116 19.0296C17.7288 18.4314 18.4377 17.7262 19.0347 16.9115C19.6368 16.0944 20.1014 15.197 20.4298 14.2219C20.7569 13.2418 20.9212 12.2121 20.9212 11.1314C20.9212 10.0507 20.7569 9.01839 20.4298 8.04209C20.1014 7.06197 19.6368 6.16585 19.0347 5.35248C18.4377 4.53401 17.7288 3.82629 16.9116 3.22803C16.0982 2.62723 15.2008 2.16136 14.2207 1.83423C13.2456 1.50582 12.2159 1.34289 11.1314 1.34289C10.0469 1.34289 9.01586 1.50582 8.03574 1.83423C7.06071 2.16136 6.16331 2.62723 5.34612 3.22803C4.53147 3.82629 3.82376 4.53401 3.22295 5.35248C2.6247 6.16585 2.16138 7.06197 1.83425 8.04209C1.50584 9.01839 1.34163 10.0482 1.34163 11.1314C1.34163 12.2146 1.50584 13.2418 1.83425 14.2219C2.16138 15.197 2.6247 16.0944 3.22295 16.9115C3.82376 17.7262 4.53147 18.4314 5.34612 19.0296C6.16331 19.6317 7.06071 20.0963 8.03574 20.4234C9.01586 20.7557 10.0481 20.9211 11.1314 20.9211Z" fill="white"/>
</svg>
