<svg width="22" height="23" viewBox="0 0 22 23" fill="none" xmlns="http://www.w3.org/2000/svg">
<path d="M10.9994 23C9.78308 23 8.62466 22.8067 7.5241 22.4201C6.42605 22.0335 5.41729 21.4878 4.49911 20.783C3.58469 20.0808 2.78978 19.2497 2.1156 18.2898C1.44394 17.3338 0.924472 16.2819 0.554682 15.1339C0.184892 13.982 0 12.7709 0 11.4993C0 10.2278 0.184892 9.01932 0.554682 7.87136C0.924472 6.72077 1.44394 5.66617 2.1156 4.7102C2.78978 3.75027 3.58469 2.91921 4.49911 2.21702C5.41729 1.5122 6.42605 0.966498 7.5241 0.579899C8.62466 0.1933 9.78308 0 10.9994 0C12.2156 0 13.3728 0.1933 14.4696 0.579899C15.5714 0.966498 16.5802 1.5122 17.4946 2.21702C18.4128 2.91921 19.2077 3.75027 19.8781 4.7102C20.5535 5.66617 21.0755 6.72077 21.4453 7.87136C21.8151 9.01932 22 10.2291 22 11.4993C22 12.7696 21.8151 13.982 21.4453 15.1339C21.0755 16.2819 20.5535 17.3338 19.8781 18.2898C19.2077 19.2497 18.4128 20.0808 17.4946 20.783C16.5802 21.4878 15.5714 22.0335 14.4696 22.4201C13.3728 22.8067 12.2156 23 10.9994 23ZM10.9994 21.6127C12.071 21.6127 13.0886 21.4418 14.052 21.0986C15.0205 20.7606 15.9073 20.2807 16.711 19.6587C17.5185 19.0407 18.2191 18.3122 18.809 17.4706C19.4039 16.6264 19.863 15.6993 20.1875 14.6921C20.5108 13.6795 20.673 12.6157 20.673 11.4993C20.673 10.3829 20.5108 9.31651 20.1875 8.30793C19.863 7.29541 19.4039 6.36968 18.809 5.52941C18.2191 4.68389 17.5185 3.95277 16.711 3.33474C15.9073 2.71408 15.0205 2.23281 14.052 1.89486C13.0886 1.5556 12.071 1.38728 10.9994 1.38728C9.92773 1.38728 8.90892 1.5556 7.94043 1.89486C6.97696 2.23281 6.09022 2.71408 5.28272 3.33474C4.47773 3.95277 3.7784 4.68389 3.18472 5.52941C2.59356 6.36968 2.13572 7.29541 1.81247 8.30793C1.48796 9.31651 1.32571 10.3803 1.32571 11.4993C1.32571 12.6184 1.48796 13.6795 1.81247 14.6921C2.13572 15.6993 2.59356 16.6264 3.18472 17.4706C3.7784 18.3122 4.47773 19.0407 5.28272 19.6587C6.09022 20.2807 6.97696 20.7606 7.94043 21.0986C8.90892 21.4418 9.92898 21.6127 10.9994 21.6127Z" fill="white"/>
<path d="M11 17C10.1536 17 9.43258 16.7856 8.83708 16.3569C8.24157 15.9247 7.78652 15.2991 7.47191 14.48C7.1573 13.6575 7 12.6641 7 11.5C7 10.3428 7.1573 9.35472 7.47191 8.53565C7.79026 7.71309 8.24719 7.08571 8.8427 6.65352C9.44195 6.21784 10.161 6 11 6C11.839 6 12.5562 6.21784 13.1517 6.65352C13.7509 7.08571 14.2079 7.71309 14.5225 8.53565C14.8408 9.35472 15 10.3428 15 11.5C15 12.6641 14.8427 13.6575 14.5281 14.48C14.2135 15.2991 13.7584 15.9247 13.1629 16.3569C12.5674 16.7856 11.8464 17 11 17ZM11 15.8498C11.839 15.8498 12.4906 15.4734 12.9551 14.7205C13.4195 13.9677 13.6517 12.8942 13.6517 11.5C13.6517 10.5729 13.5449 9.78343 13.3315 9.13165C13.1217 8.47988 12.8184 7.98321 12.4213 7.64164C12.0281 7.30006 11.5543 7.12928 11 7.12928C10.1685 7.12928 9.51873 7.51093 9.05056 8.27424C8.5824 9.03406 8.34831 10.1093 8.34831 11.5C8.34831 12.4271 8.45318 13.2148 8.66292 13.8631C8.87266 14.5114 9.17416 15.0046 9.56742 15.3427C9.96442 15.6808 10.4419 15.8498 11 15.8498Z" fill="white"/>
</svg>
