<svg width="23" height="23" viewBox="0 0 23 23" fill="none" xmlns="http://www.w3.org/2000/svg">
<path d="M11.0168 17.2183C10.3371 17.2183 9.72612 17.0834 9.18259 16.8135C8.6378 16.5437 8.20247 16.1733 7.87406 15.7023C7.54693 15.2326 7.36746 14.6955 7.33691 14.0947H8.72563C8.77909 14.6305 9.02221 15.0735 9.45372 15.4248C9.89032 15.7723 10.4109 15.9454 11.0168 15.9454C11.5018 15.9454 11.9346 15.8321 12.3126 15.6043C12.6945 15.3764 12.9936 15.0646 13.2087 14.6675C13.4289 14.2665 13.5384 13.8134 13.5384 13.308C13.5384 12.8027 13.4251 12.3292 13.1973 11.9244C12.9733 11.5158 12.6652 11.1937 12.2719 10.9583C11.8786 10.7228 11.4292 10.6031 10.9239 10.5993C10.5611 10.5955 10.1895 10.6515 9.80759 10.7673C9.42572 10.8793 9.11131 11.0245 8.86437 11.2014L7.52147 11.0397L8.23938 5.20737H14.3951V6.48025H9.44227L9.02603 9.97433H9.09476C9.33788 9.78212 9.64338 9.62174 10.01 9.49445C10.3766 9.36716 10.7584 9.30352 11.1556 9.30352C11.8798 9.30352 12.5265 9.47663 13.0929 9.82413C13.6644 10.1678 14.1112 10.6388 14.4358 11.2358C14.7642 11.834 14.9271 12.5163 14.9271 13.2838C14.9271 14.0514 14.7578 14.7158 14.418 15.309C14.0832 15.8996 13.6199 16.3668 13.0292 16.7092C12.4399 17.049 11.7678 17.2183 11.0168 17.2183ZM11.1314 22.264C9.90177 22.264 8.72944 22.0769 7.61439 21.7027C6.50316 21.3285 5.48359 20.8002 4.55311 20.118C3.62773 19.4382 2.82325 18.6338 2.14099 17.7046C1.46254 16.7792 0.935575 15.7609 0.561347 14.6496C0.187118 13.5346 0 12.3623 0 11.1314C0 9.90049 0.187118 8.73072 0.561347 7.61949C0.935575 6.50571 1.46254 5.48486 2.14099 4.55948C2.82325 3.63027 3.62773 2.8258 4.55311 2.14608C5.48359 1.46382 6.50316 0.935567 7.61439 0.561339C8.72944 0.187111 9.90177 0 11.1314 0C12.361 0 13.5333 0.187111 14.6445 0.561339C15.7583 0.935567 16.7792 1.46382 17.7046 2.14608C18.6338 2.8258 19.4382 3.63027 20.118 4.55948C20.8002 5.48486 21.3285 6.50571 21.7027 7.61949C22.0769 8.73072 22.264 9.90177 22.264 11.1314C22.264 12.361 22.0769 13.5346 21.7027 14.6496C21.3285 15.7609 20.8002 16.7792 20.118 17.7046C19.4382 18.6338 18.6338 19.4382 17.7046 20.118C16.7792 20.8002 15.7583 21.3285 14.6445 21.7027C13.5333 22.0769 12.3623 22.264 11.1314 22.264ZM11.1314 20.9211C12.2159 20.9211 13.2456 20.7557 14.2219 20.4234C15.2008 20.0963 16.0982 19.6317 16.9115 19.0296C17.73 18.4314 18.4377 17.7262 19.036 16.9115C19.6368 16.0944 20.1014 15.197 20.4298 14.2219C20.7582 13.2418 20.9211 12.2121 20.9211 11.1314C20.9211 10.0507 20.7582 9.01839 20.4298 8.04209C20.1014 7.06197 19.6368 6.16585 19.036 5.35248C18.4377 4.53401 17.73 3.82629 16.9115 3.22803C16.0982 2.62723 15.2008 2.16136 14.2219 1.83422C13.2456 1.50582 12.2159 1.34289 11.1314 1.34289C10.0469 1.34289 9.01585 1.50582 8.037 1.83422C7.06069 2.16136 6.16331 2.62723 5.34612 3.22803C4.53274 3.82629 3.82501 4.53401 3.22294 5.35248C2.62468 6.16585 2.16264 7.06197 1.83423 8.04209C1.50583 9.01839 1.3429 10.0481 1.3429 11.1314C1.3429 12.2146 1.50583 13.2418 1.83423 14.2219C2.16264 15.197 2.62468 16.0944 3.22294 16.9115C3.82501 17.7262 4.53274 18.4314 5.34612 19.0296C6.16331 19.6317 7.06069 20.0963 8.037 20.4234C9.01585 20.7557 10.0481 20.9211 11.1314 20.9211Z" fill="white"/>
</svg>
