<svg width="23" height="23" viewBox="0 0 23 23" fill="none" xmlns="http://www.w3.org/2000/svg">
<path d="M11.2129 17.2183C10.7266 17.2107 10.2403 17.1178 9.75538 16.9408C9.26914 16.7639 8.8249 16.4648 8.42394 16.0447C8.02299 15.6196 7.70097 15.0468 7.45784 14.3263C7.21472 13.6008 7.09379 12.6907 7.09379 11.5947C7.09379 10.4988 7.19181 9.61665 7.3891 8.80582C7.58513 7.99244 7.87025 7.30763 8.24448 6.75265C8.61871 6.19258 9.07057 5.76871 9.59881 5.47977C10.1309 5.18955 10.7304 5.04572 11.3987 5.04572C12.067 5.04572 12.6512 5.1781 13.168 5.44413C13.6899 5.70635 14.1137 6.07293 14.4409 6.5439C14.7693 7.01487 14.9819 7.55584 15.0773 8.16938H13.6657C13.5346 7.63731 13.28 7.19562 12.902 6.84431C12.5239 6.49426 12.0224 6.3186 11.3987 6.3186C10.4797 6.3186 9.75666 6.71701 9.22842 7.51638C8.70399 8.31448 8.43923 9.43462 8.43541 10.8768H8.52833C8.74472 10.5497 9.00058 10.2696 9.29843 10.038C9.59883 9.80376 9.93106 9.62174 10.2926 9.49445C10.6553 9.36716 11.0397 9.30352 11.4445 9.30352C12.1229 9.30352 12.7441 9.47281 13.308 9.81267C13.8706 10.1487 14.3225 10.6133 14.6611 11.2078C15.0009 11.7971 15.1702 12.4743 15.1702 13.238C15.1702 14.0017 15.0061 14.642 14.6789 15.2517C14.3505 15.8576 13.8897 16.3388 13.2953 16.6977C12.7059 17.0528 12.011 17.226 11.2129 17.2183ZM11.2129 15.9454C11.6991 15.9454 12.1344 15.8245 12.5201 15.5814C12.9096 15.3383 13.2164 15.0124 13.4404 14.6038C13.6683 14.1952 13.7815 13.7395 13.7815 13.238C13.7815 12.7365 13.672 12.3024 13.4518 11.9015C13.2367 11.4967 12.9376 11.1747 12.5557 10.9354C12.1777 10.6961 11.7449 10.5764 11.2587 10.5764C10.8933 10.5764 10.5509 10.6502 10.2353 10.7966C9.91831 10.9392 9.64085 11.1352 9.40154 11.386C9.16733 11.6367 8.98148 11.9244 8.84655 12.249C8.71163 12.5685 8.64415 12.9058 8.64415 13.2609C8.64415 13.7319 8.75363 14.171 8.97384 14.5809C9.19787 14.9895 9.50208 15.3192 9.88776 15.5699C10.2773 15.8207 10.719 15.9454 11.2129 15.9454ZM11.1314 22.264C9.90177 22.264 8.72945 22.0769 7.61441 21.7027C6.50318 21.3285 5.48359 20.8002 4.55311 20.118C3.62773 19.4382 2.82327 18.6338 2.141 17.7046C1.46255 16.7792 0.935559 15.7609 0.561331 14.6496C0.187103 13.5346 0 12.3623 0 11.1314C0 9.90049 0.187103 8.73072 0.561331 7.61949C0.935559 6.50571 1.46255 5.48486 2.141 4.55948C2.82327 3.63027 3.62773 2.8258 4.55311 2.14608C5.48359 1.46382 6.50318 0.935567 7.61441 0.561339C8.72945 0.187111 9.90177 0 11.1314 0C12.361 0 13.5333 0.187111 14.6445 0.561339C15.7583 0.935567 16.7792 1.46382 17.7046 2.14608C18.6338 2.8258 19.4382 3.63027 20.118 4.55948C20.8002 5.48486 21.3285 6.50571 21.7027 7.61949C22.0769 8.73072 22.264 9.90177 22.264 11.1314C22.264 12.361 22.0769 13.5346 21.7027 14.6496C21.3285 15.7609 20.8002 16.7792 20.118 17.7046C19.4382 18.6338 18.6338 19.4382 17.7046 20.118C16.7792 20.8002 15.7583 21.3285 14.6445 21.7027C13.5333 22.0769 12.3623 22.264 11.1314 22.264ZM11.1314 20.9211C12.2159 20.9211 13.2456 20.7557 14.2219 20.4234C15.2008 20.0963 16.0982 19.6317 16.9116 19.0296C17.73 18.4314 18.4377 17.7262 19.036 16.9115C19.6368 16.0944 20.1014 15.197 20.4298 14.2219C20.7582 13.2418 20.9212 12.2121 20.9212 11.1314C20.9212 10.0507 20.7582 9.01839 20.4298 8.04209C20.1014 7.06197 19.6368 6.16585 19.036 5.35248C18.4377 4.53401 17.73 3.82629 16.9116 3.22803C16.0982 2.62723 15.2008 2.16136 14.2219 1.83422C13.2456 1.50582 12.2159 1.34289 11.1314 1.34289C10.0469 1.34289 9.01583 1.50582 8.03698 1.83422C7.06068 2.16136 6.16331 2.62723 5.34612 3.22803C4.53274 3.82629 3.82503 4.53401 3.22295 5.35248C2.6247 6.16585 2.16262 7.06197 1.83422 8.04209C1.50581 9.01839 1.3429 10.0481 1.3429 11.1314C1.3429 12.2146 1.50581 13.2418 1.83422 14.2219C2.16262 15.197 2.6247 16.0944 3.22295 16.9115C3.82503 17.7262 4.53274 18.4314 5.34612 19.0296C6.16331 19.6317 7.06068 20.0963 8.03698 20.4234C9.01583 20.7557 10.0481 20.9211 11.1314 20.9211Z" fill="white"/>
</svg>
