<svg width="23" height="23" viewBox="0 0 23 23" fill="none" xmlns="http://www.w3.org/2000/svg">
<path d="M12.1395 5.20738V17.0567H10.705V6.71194H10.635L7.74169 8.6327V7.17525L10.705 5.20738H12.1395ZM11.1327 22.264C9.90178 22.264 8.72945 22.0769 7.6144 21.7027C6.50444 21.3285 5.48359 20.8002 4.55439 20.1179C3.62773 19.4395 2.82453 18.635 2.14099 17.7046C1.46255 16.7792 0.935567 15.7609 0.561339 14.6496C0.187111 13.5359 0 12.3623 0 11.1327C0 9.90306 0.187111 8.73072 0.561339 7.62076C0.935567 6.50572 1.46255 5.48485 2.14099 4.55947C2.82453 3.63026 3.62773 2.8258 4.55439 2.14736C5.48359 1.46382 6.50444 0.935575 7.6144 0.561347C8.72945 0.187118 9.90178 0 11.1327 0C12.3635 0 13.5333 0.187118 14.6445 0.561347C15.7596 0.935575 16.7792 1.46382 17.7058 2.14736C18.635 2.8258 19.4395 3.63026 20.1179 4.55947C20.8002 5.48485 21.3285 6.50572 21.7027 7.62076C22.0769 8.73072 22.264 9.90178 22.264 11.1327C22.264 12.3635 22.0769 13.5359 21.7027 14.6496C21.3285 15.7609 20.8002 16.7792 20.1179 17.7046C19.4395 18.635 18.635 19.4395 17.7058 20.1179C16.7792 20.8002 15.7596 21.3285 14.6445 21.7027C13.5333 22.0769 12.3635 22.264 11.1327 22.264ZM11.1327 20.9224C12.2159 20.9224 13.2456 20.7557 14.2219 20.4247C15.2021 20.0963 16.0982 19.6317 16.9128 19.0296C17.73 18.4327 18.4377 17.7262 19.036 16.9128C19.6381 16.0944 20.1027 15.1983 20.4298 14.222C20.7582 13.2418 20.9224 12.2121 20.9224 11.1327C20.9224 10.0533 20.7582 9.0184 20.4298 8.04337C20.1027 7.06325 19.6381 6.16585 19.036 5.35247C18.4377 4.53401 17.73 3.82629 16.9128 3.22931C16.0982 2.62723 15.2021 2.16264 14.2219 1.83423C13.2456 1.5071 12.2159 1.3429 11.1327 1.3429C10.0494 1.3429 9.01712 1.5071 8.037 1.83423C7.06069 2.16264 6.16458 2.62723 5.34612 3.22931C4.53274 3.82629 3.82502 4.53401 3.22295 5.35247C2.62596 6.16585 2.16263 7.06325 1.83422 8.04337C1.50709 9.0184 1.34289 10.0482 1.34289 11.1327C1.34289 12.2172 1.50709 13.2418 1.83422 14.222C2.16263 15.1983 2.62596 16.0944 3.22295 16.9128C3.82502 17.7262 4.53274 18.4327 5.34612 19.0296C6.16458 19.6317 7.06069 20.0963 8.037 20.4247C9.01712 20.7557 10.0482 20.9224 11.1327 20.9224Z" fill="white"/>
</svg>
