<svg width="23" height="23" viewBox="0 0 23 23" fill="none" xmlns="http://www.w3.org/2000/svg">
<path d="M11.1428 17.2183C10.3791 17.2183 9.69812 17.0872 9.10113 16.825C8.5067 16.5628 8.03445 16.1987 7.68314 15.7316C7.33564 15.2606 7.14725 14.7158 7.11543 14.0947H8.57416C8.60471 14.4765 8.73581 14.8062 8.96747 15.0837C9.19914 15.3574 9.50209 15.5699 9.87632 15.7201C10.2505 15.8703 10.6642 15.9454 11.1199 15.9454C11.6291 15.9454 12.0797 15.8576 12.4743 15.6794C12.8676 15.5025 13.1756 15.2555 13.3997 14.9386C13.6237 14.6229 13.7344 14.2563 13.7344 13.8401C13.7344 13.4035 13.6275 13.0203 13.4111 12.6881C13.1947 12.3533 12.8791 12.0899 12.4615 11.9015C12.0453 11.7118 11.5362 11.6176 10.9341 11.6176H9.98578V10.3447H10.9341C11.405 10.3447 11.8175 10.2607 12.1726 10.0901C12.5316 9.92085 12.8116 9.68155 13.0114 9.37351C13.2164 9.0642 13.3182 8.70144 13.3182 8.2852C13.3182 7.86897 13.2291 7.53548 13.0522 7.23762C12.8752 6.94104 12.6245 6.70937 12.2999 6.54389C11.9804 6.37842 11.6023 6.29441 11.1657 6.29441C10.7572 6.29441 10.3715 6.37079 10.0087 6.52099C9.64975 6.66737 9.35698 6.8812 9.12913 7.16251C8.90128 7.44 8.77909 7.77605 8.75873 8.16937H7.37C7.39419 7.5482 7.58131 7.00468 7.93135 6.53754C8.28267 6.06784 8.74218 5.70125 9.30861 5.43904C9.88014 5.17682 10.5064 5.0457 11.1887 5.0457C11.9218 5.0457 12.5506 5.19336 13.0751 5.49121C13.5995 5.78398 14.003 6.17093 14.2843 6.65336C14.5656 7.13578 14.7069 7.65639 14.7069 8.21646C14.7069 8.88346 14.5313 9.45244 14.1799 9.92213C13.8337 10.3931 13.3615 10.719 12.7632 10.901V10.9926C13.5117 11.1161 14.0959 11.4343 14.516 11.9473C14.936 12.4565 15.1473 13.0878 15.1473 13.8401C15.1473 14.4842 14.9717 15.062 14.6204 15.575C14.2729 16.0842 13.7981 16.4851 13.1973 16.7792C12.5952 17.0719 11.9104 17.2183 11.1428 17.2183ZM11.1314 22.264C9.9005 22.264 8.72818 22.0769 7.61313 21.7027C6.50317 21.3285 5.48231 20.8002 4.55311 20.1179C3.62772 19.4382 2.82326 18.6338 2.13972 17.7046C1.46127 16.7792 0.934297 15.7609 0.560069 14.6496C0.187113 13.5346 0 12.3623 0 11.1314C0 9.90049 0.187113 8.73072 0.560069 7.61949C0.934297 6.50571 1.46127 5.48485 2.13972 4.55947C2.82326 3.62899 3.62772 2.8258 4.55311 2.14608C5.48231 1.46382 6.50317 0.935559 7.61313 0.561331C8.72818 0.187103 9.9005 0 11.1314 0C12.3623 0 13.532 0.187103 14.6433 0.561331C15.7583 0.935559 16.7779 1.46382 17.7046 2.14608C18.6338 2.8258 19.4382 3.62899 20.1167 4.55947C20.7989 5.48485 21.3285 6.50571 21.7027 7.61949C22.0756 8.73072 22.2628 9.90177 22.2628 11.1314C22.2628 12.361 22.0756 13.5346 21.7027 14.6496C21.3285 15.7609 20.7989 16.7792 20.1167 17.7046C19.4382 18.6338 18.6338 19.4382 17.7046 20.1179C16.7779 20.8002 15.7583 21.3285 14.6433 21.7027C13.532 22.0769 12.3623 22.264 11.1314 22.264ZM11.1314 20.9211C12.2159 20.9211 13.2456 20.7557 14.2207 20.4234C15.2008 20.0963 16.0982 19.6317 16.9116 19.0296C17.7287 18.4314 18.4365 17.7262 19.0347 16.9115C19.6368 16.0944 20.1014 15.197 20.4298 14.2219C20.7569 13.2418 20.9211 12.2121 20.9211 11.1314C20.9211 10.0507 20.7569 9.01838 20.4298 8.04208C20.1014 7.06196 19.6368 6.16585 19.0347 5.35247C18.4365 4.53401 17.7287 3.82629 16.9116 3.22803C16.0982 2.62723 15.2008 2.16135 14.2207 1.83422C13.2456 1.50581 12.2159 1.34288 11.1314 1.34288C10.0469 1.34288 9.01585 1.50581 8.03573 1.83422C7.0607 2.16135 6.16331 2.62723 5.34612 3.22803C4.53147 3.82629 3.82375 4.53401 3.22168 5.35247C2.62469 6.16585 2.16136 7.06196 1.83295 8.04208C1.50582 9.01838 1.34162 10.0481 1.34162 11.1314C1.34162 12.2146 1.50582 13.2418 1.83295 14.2219C2.16136 15.197 2.62469 16.0944 3.22168 16.9115C3.82375 17.7262 4.53147 18.4314 5.34612 19.0296C6.16331 19.6317 7.0607 20.0963 8.03573 20.4234C9.01585 20.7557 10.0469 20.9211 11.1314 20.9211Z" fill="white"/>
</svg>
