<svg width="23" height="23" viewBox="0 0 23 23" fill="none" xmlns="http://www.w3.org/2000/svg">
<path d="M11.3307 22.6628C10.0778 22.6628 8.88449 22.4723 7.75076 22.0914C6.61964 21.7104 5.58049 21.1727 4.63465 20.4782C3.69269 19.7863 2.87382 18.9675 2.17934 18.0216C1.48744 17.0797 0.952322 16.0431 0.571392 14.912C0.190462 13.777 0 12.5837 0 11.3307C0 10.0778 0.190462 8.88708 0.571392 7.75595C0.952322 6.62222 1.48744 5.58309 2.17934 4.64113C2.87382 3.69528 3.69269 2.87641 4.63465 2.18452C5.58049 1.49003 6.61964 0.952326 7.75076 0.571396C8.88449 0.190466 10.0778 0 11.3307 0C12.5836 0 13.7757 0.190466 14.9055 0.571396C16.0405 0.952326 17.0797 1.49003 18.0216 2.18452C18.9675 2.87641 19.7863 3.69528 20.4769 4.64113C21.1727 5.58309 21.7104 6.62222 22.0914 7.75595C22.4723 8.88708 22.6628 10.0791 22.6628 11.3307C22.6628 12.5824 22.4723 13.777 22.0914 14.912C21.7104 16.0431 21.1727 17.0797 20.4769 18.0216C19.7863 18.9675 18.9675 19.7863 18.0216 20.4782C17.0797 21.1727 16.0405 21.7104 14.9055 22.0914C13.7757 22.4723 12.5836 22.6628 11.3307 22.6628ZM11.3307 21.2958C12.4346 21.2958 13.4829 21.1274 14.4753 20.7892C15.473 20.4562 16.3865 19.9833 17.2144 19.3704C18.0462 18.7615 18.7679 18.0437 19.3756 17.2144C19.9885 16.3826 20.4614 15.4691 20.7957 14.4766C21.1287 13.479 21.2958 12.4308 21.2958 11.3307C21.2958 10.2307 21.1287 9.1799 20.7957 8.18611C20.4614 7.18844 19.9885 6.27628 19.3756 5.44834C18.7679 4.61521 18.0462 3.89482 17.2144 3.28585C16.3865 2.67428 15.473 2.20007 14.4753 1.86708C13.4829 1.53279 12.4346 1.36694 11.3307 1.36694C10.2268 1.36694 9.17731 1.53279 8.17964 1.86708C7.18714 2.20007 6.27369 2.67428 5.44186 3.28585C4.61262 3.89482 3.89223 4.61521 3.28067 5.44834C2.6717 6.27628 2.20006 7.18844 1.86707 8.18611C1.53279 9.1799 1.36564 10.2281 1.36564 11.3307C1.36564 12.4334 1.53279 13.479 1.86707 14.4766C2.20006 15.4691 2.6717 16.3826 3.28067 17.2144C3.89223 18.0437 4.61262 18.7615 5.44186 19.3704C6.27369 19.9833 7.18714 20.4562 8.17964 20.7892C9.17731 21.1274 10.2281 21.2958 11.3307 21.2958Z" fill="white"/>
<path d="M11.5126 5.09961C12.1377 5.09961 12.6884 5.21294 13.1647 5.43961C13.6409 5.65494 14.013 5.97794 14.2809 6.40861C14.5588 6.83928 14.6977 7.37194 14.6977 8.00661C14.6977 8.49394 14.6034 8.91894 14.4149 9.28161C14.2363 9.64428 13.9932 9.96728 13.6856 10.2506C13.378 10.5226 13.0406 10.7663 12.6735 10.9816C13.1101 11.2196 13.507 11.4916 13.8642 11.7976C14.2214 12.0923 14.5042 12.4379 14.7126 12.8346C14.9309 13.2313 15.04 13.7073 15.04 14.2626C15.04 14.9426 14.8961 15.5319 14.6084 16.0306C14.3206 16.5179 13.9138 16.8976 13.3879 17.1696C12.8719 17.4416 12.2617 17.5776 11.5572 17.5776C10.7932 17.5776 10.1433 17.4473 9.60744 17.1866C9.08155 16.9259 8.67969 16.5576 8.40186 16.0816C8.13395 15.5943 8 15.0049 8 14.3136C8 13.7583 8.09922 13.2766 8.29767 12.8686C8.50605 12.4606 8.77891 12.1093 9.11628 11.8146C9.45364 11.5199 9.81581 11.2706 10.2028 11.0666C9.8555 10.8399 9.53798 10.5849 9.25023 10.3016C8.9724 10.0069 8.74915 9.67261 8.58047 9.29861C8.42171 8.92461 8.34233 8.48828 8.34233 7.98961C8.34233 7.36628 8.48124 6.84494 8.75907 6.42561C9.0369 5.99494 9.41395 5.66628 9.89023 5.43961C10.3665 5.21294 10.9073 5.09961 11.5126 5.09961ZM9.28 14.3306C9.28 14.9199 9.46357 15.4129 9.8307 15.8096C10.1978 16.1949 10.7634 16.3876 11.5274 16.3876C12.0136 16.3876 12.4205 16.2969 12.7479 16.1156C13.0753 15.9343 13.3234 15.6849 13.4921 15.3676C13.6707 15.0503 13.76 14.6876 13.76 14.2796C13.76 13.8829 13.6657 13.5373 13.4772 13.2426C13.2986 12.9366 13.0406 12.6646 12.7033 12.4266C12.3758 12.1886 11.9839 11.9733 11.5274 11.7806L11.2893 11.6786C10.8527 11.8939 10.4856 12.1263 10.1879 12.3756C9.89023 12.6249 9.66202 12.9083 9.50326 13.2256C9.35442 13.5429 9.28 13.9113 9.28 14.3306ZM11.4977 6.30661C10.9519 6.30661 10.5005 6.45961 10.1433 6.76561C9.79597 7.06028 9.62233 7.49094 9.62233 8.05761C9.62233 8.47694 9.70667 8.82828 9.87535 9.11161C10.054 9.39494 10.2921 9.63861 10.5898 9.84261C10.8874 10.0353 11.2149 10.2223 11.5721 10.4036C11.9194 10.2336 12.227 10.0466 12.4949 9.84261C12.7727 9.63861 12.991 9.39494 13.1498 9.11161C13.3184 8.81694 13.4028 8.46561 13.4028 8.05761C13.4028 7.49094 13.2291 7.06028 12.8819 6.76561C12.5346 6.45961 12.0732 6.30661 11.4977 6.30661Z" fill="white"/>
</svg>
