<svg width="332" height="361" viewBox="0 0 332 361" fill="none" xmlns="http://www.w3.org/2000/svg">
<g clip-path="url(#clip0_58_8242)">
<path d="M296.344 16.5972V127.465H295.453V16.5972H296.344Z" fill="white"/>
<path d="M111.535 0.890991V127.543H110.645V0.890991H111.535Z" fill="white"/>
<path d="M74.7695 0.890991V127.596H73.8789V0.890991H74.7695Z" fill="white"/>
<path d="M27.3359 0.890991V127.596H26.4453V0.890991H27.3359Z" fill="white"/>
<path d="M295.455 144.604V145.494H110.703V144.604H295.455Z" fill="white"/>
<path d="M73.8789 126.706V127.596H26.4434V126.706H73.8789Z" fill="white"/>
<path d="M332.001 0.000183105V360.736H2.57812V0.000183105H332.001ZM3.46875 359.845H331.109V0.890808H3.46875V359.845Z" fill="white"/>
<path d="M297.364 179.488V245.069H32.2812V179.488H297.364ZM33.1719 244.179H296.474V180.379H33.1719V244.179Z" fill="white"/>
<path d="M9.39844 179.488V359.891H3.41602V179.488H9.39844Z" fill="white"/>
<path d="M301.945 16.7244V127.593H295.963V16.7244H301.945Z" fill="white"/>
<path d="M303.348 179.488V245.07H297.365V179.488H303.348Z" fill="white"/>
<path d="M177.217 145.491V151.473H110.645V145.491H177.217Z" fill="white"/>
<path d="M251.045 145.491V151.473H184.473V145.491H251.045Z" fill="white"/>
<path d="M295.469 145.491V151.473H258.555V145.491H295.469Z" fill="white"/>
<path d="M97.9688 245.07V251.052H32.2812V245.07H97.9688Z" fill="white"/>
<path d="M74.6221 127.597V133.579H26.4434V127.597H74.6221Z" fill="white"/>
<path d="M18.3942 275.057V274.015L22.3058 269.735C22.764 269.233 23.1421 268.797 23.4399 268.426C23.7365 268.052 23.9567 267.702 24.0993 267.374C24.2456 267.041 24.3195 266.695 24.3195 266.332C24.3195 265.916 24.2189 265.555 24.0178 265.25C23.8218 264.945 23.5519 264.711 23.2082 264.544C22.8646 264.378 22.4789 264.296 22.0512 264.296C21.5955 264.296 21.1984 264.39 20.8585 264.58C20.5237 264.764 20.2628 265.025 20.0782 265.36C19.8962 265.696 19.8058 266.089 19.8058 266.54H18.44C18.44 265.846 18.6004 265.236 18.9212 264.712C19.2407 264.188 19.6773 263.779 20.2284 263.485C20.7834 263.192 21.4071 263.046 22.097 263.046C22.7869 263.046 23.4068 263.192 23.9427 263.485C24.4786 263.779 24.8999 264.173 25.2041 264.671C25.5096 265.169 25.6611 265.723 25.6611 266.332C25.6611 266.768 25.5822 267.194 25.4243 267.61C25.2703 268.024 25.0005 268.485 24.6135 268.994C24.2316 269.499 23.7021 270.117 23.0224 270.845L20.3621 273.692V273.784H25.8698V275.057H18.3942ZM22.1314 280.264C20.9018 280.264 19.7294 280.077 18.6144 279.703C17.5032 279.328 16.4836 278.8 15.5531 278.118C14.6277 277.439 13.8233 276.635 13.141 275.705C12.4625 274.779 11.9356 273.761 11.5613 272.65C11.1871 271.536 11 270.362 11 269.133C11 267.903 11.1871 266.731 11.5613 265.621C11.9356 264.506 12.4625 263.485 13.141 262.559C13.8233 261.63 14.6277 260.826 15.5531 260.147C16.4836 259.464 17.5032 258.936 18.6144 258.561C19.7294 258.187 20.9018 258 22.1314 258C23.361 258 24.5333 258.187 25.6445 258.561C26.7583 258.936 27.7792 259.464 28.7046 260.147C29.6338 260.826 30.4382 261.63 31.1179 262.559C31.8002 263.485 32.3285 264.506 32.7027 265.621C33.0769 266.731 33.264 267.902 33.264 269.133C33.264 270.364 33.0769 271.536 32.7027 272.65C32.3285 273.761 31.8002 274.779 31.1179 275.705C30.4382 276.635 29.6338 277.439 28.7046 278.118C27.7792 278.8 26.7583 279.328 25.6445 279.703C24.5333 280.077 23.3623 280.264 22.1314 280.264ZM22.1314 278.922C23.2159 278.922 24.2456 278.756 25.2219 278.425C26.2008 278.096 27.0982 277.632 27.9116 277.03C28.73 276.433 29.4377 275.726 30.036 274.913C30.6368 274.094 31.1014 273.198 31.4298 272.222C31.7582 271.242 31.9211 270.212 31.9211 269.133C31.9211 268.053 31.7582 267.018 31.4298 266.043C31.1014 265.063 30.6368 264.166 30.036 263.352C29.4377 262.534 28.73 261.826 27.9116 261.229C27.0982 260.627 26.2008 260.163 25.2219 259.834C24.2456 259.507 23.2159 259.343 22.1314 259.343C21.0469 259.343 20.0158 259.507 19.037 259.834C18.0607 260.163 17.1633 260.627 16.3461 261.229C15.5327 261.826 14.825 262.534 14.2229 263.352C13.6247 264.166 13.1626 265.063 12.8342 266.043C12.5058 267.018 12.3429 268.048 12.3429 269.133C12.3429 270.217 12.5058 271.242 12.8342 272.222C13.1626 273.198 13.6247 274.094 14.2229 274.913C14.825 275.726 15.5327 276.433 16.3461 277.03C17.1633 277.632 18.0607 278.096 19.037 278.425C20.0158 278.756 21.0482 278.922 22.1314 278.922Z" fill="white"/>
<path d="M66.1805 262.693V274.542H64.746V264.198H64.676L61.7827 266.118V264.661L64.746 262.693H66.1805ZM65.1737 279.75C63.9428 279.75 62.7705 279.563 61.6554 279.188C60.5455 278.814 59.5246 278.286 58.5954 277.604C57.6687 276.925 56.8655 276.121 56.182 275.19C55.5036 274.265 54.9766 273.246 54.6024 272.135C54.2281 271.021 54.041 269.848 54.041 268.618C54.041 267.389 54.2281 266.216 54.6024 265.106C54.9766 263.991 55.5036 262.97 56.182 262.045C56.8655 261.116 57.6687 260.311 58.5954 259.633C59.5246 258.949 60.5455 258.421 61.6554 258.047C62.7705 257.673 63.9428 257.486 65.1737 257.486C66.4046 257.486 67.5743 257.673 68.6856 258.047C69.8006 258.421 70.8202 258.949 71.7468 259.633C72.676 260.311 73.4805 261.116 74.159 262.045C74.8412 262.97 75.3695 263.991 75.7437 265.106C76.1179 266.216 76.305 267.387 76.305 268.618C76.305 269.849 76.1179 271.021 75.7437 272.135C75.3695 273.246 74.8412 274.265 74.159 275.19C73.4805 276.121 72.676 276.925 71.7468 277.604C70.8202 278.286 69.8006 278.814 68.6856 279.188C67.5743 279.563 66.4046 279.75 65.1737 279.75ZM65.1737 278.408C66.2569 278.408 67.2867 278.241 68.263 277.91C69.2431 277.582 70.1392 277.117 70.9538 276.515C71.771 275.918 72.4788 275.212 73.077 274.398C73.6791 273.58 74.1437 272.684 74.4708 271.708C74.7992 270.727 74.9634 269.698 74.9634 268.618C74.9634 267.539 74.7992 266.504 74.4708 265.529C74.1437 264.549 73.6791 263.651 73.077 262.838C72.4788 262.02 71.771 261.312 70.9538 260.715C70.1392 260.113 69.2431 259.648 68.263 259.32C67.2867 258.993 66.2569 258.828 65.1737 258.828C64.0904 258.828 63.0581 258.993 62.078 259.32C61.1017 259.648 60.2056 260.113 59.3871 260.715C58.5738 261.312 57.866 262.02 57.264 262.838C56.667 263.651 56.2036 264.549 55.8752 265.529C55.5481 266.504 55.3839 267.534 55.3839 268.618C55.3839 269.703 55.5481 270.727 55.8752 271.708C56.2036 272.684 56.667 273.58 57.264 274.398C57.866 275.212 58.5738 275.918 59.3871 276.515C60.2056 277.117 61.1017 277.582 62.078 277.91C63.0581 278.241 64.0892 278.408 65.1737 278.408Z" fill="white"/>
<path d="M144.143 137.218C143.379 137.218 142.698 137.087 142.101 136.825C141.507 136.563 141.034 136.199 140.683 135.732C140.336 135.261 140.147 134.716 140.115 134.095H141.574C141.605 134.477 141.736 134.806 141.967 135.084C142.199 135.357 142.502 135.57 142.876 135.72C143.251 135.87 143.664 135.945 144.12 135.945C144.629 135.945 145.08 135.858 145.474 135.679C145.868 135.502 146.176 135.256 146.4 134.939C146.624 134.623 146.734 134.256 146.734 133.84C146.734 133.403 146.628 133.02 146.411 132.688C146.195 132.353 145.879 132.09 145.462 131.901C145.045 131.712 144.536 131.618 143.934 131.618H142.986V130.345H143.934C144.405 130.345 144.817 130.261 145.173 130.09C145.532 129.921 145.812 129.682 146.011 129.374C146.216 129.064 146.318 128.701 146.318 128.285C146.318 127.869 146.229 127.535 146.052 127.238C145.875 126.941 145.624 126.709 145.3 126.544C144.98 126.378 144.602 126.294 144.166 126.294C143.757 126.294 143.371 126.371 143.009 126.521C142.65 126.667 142.357 126.881 142.129 127.163C141.901 127.44 141.779 127.776 141.759 128.169H140.37C140.394 127.548 140.581 127.005 140.931 126.538C141.283 126.068 141.742 125.701 142.309 125.439C142.88 125.177 143.506 125.046 144.189 125.046C144.922 125.046 145.551 125.193 146.075 125.491C146.6 125.784 147.003 126.171 147.284 126.653C147.566 127.136 147.707 127.656 147.707 128.216C147.707 128.883 147.531 129.452 147.18 129.922C146.834 130.393 146.361 130.719 145.763 130.901V130.993C146.512 131.116 147.096 131.434 147.516 131.947C147.936 132.456 148.147 133.088 148.147 133.84C148.147 134.484 147.972 135.062 147.62 135.575C147.273 136.084 146.798 136.485 146.197 136.779C145.595 137.072 144.91 137.218 144.143 137.218ZM144.131 142.264C142.9 142.264 141.728 142.077 140.613 141.703C139.503 141.328 138.482 140.8 137.553 140.118C136.628 139.438 135.823 138.634 135.14 137.705C134.461 136.779 133.934 135.761 133.56 134.65C133.187 133.535 133 132.362 133 131.131C133 129.9 133.187 128.731 133.56 127.619C133.934 126.506 134.461 125.485 135.14 124.559C135.823 123.629 136.628 122.826 137.553 122.146C138.482 121.464 139.503 120.936 140.613 120.561C141.728 120.187 142.9 120 144.131 120C145.362 120 146.532 120.187 147.643 120.561C148.758 120.936 149.778 121.464 150.705 122.146C151.634 122.826 152.438 123.629 153.117 124.559C153.799 125.485 154.328 126.506 154.703 127.619C155.076 128.731 155.263 129.902 155.263 131.131C155.263 132.361 155.076 133.535 154.703 134.65C154.328 135.761 153.799 136.779 153.117 137.705C152.438 138.634 151.634 139.438 150.705 140.118C149.778 140.8 148.758 141.328 147.643 141.703C146.532 142.077 145.362 142.264 144.131 142.264ZM144.131 140.921C145.216 140.921 146.246 140.756 147.221 140.423C148.201 140.096 149.098 139.632 149.912 139.03C150.729 138.431 151.436 137.726 152.035 136.912C152.637 136.094 153.101 135.197 153.43 134.222C153.757 133.242 153.921 132.212 153.921 131.131C153.921 130.051 153.757 129.018 153.43 128.042C153.101 127.062 152.637 126.166 152.035 125.352C151.436 124.534 150.729 123.826 149.912 123.228C149.098 122.627 148.201 122.161 147.221 121.834C146.246 121.506 145.216 121.343 144.131 121.343C143.047 121.343 142.016 121.506 141.036 121.834C140.061 122.161 139.163 122.627 138.346 123.228C137.531 123.826 136.824 124.534 136.222 125.352C135.625 126.166 135.161 127.062 134.833 128.042C134.506 129.018 134.342 130.048 134.342 131.131C134.342 132.215 134.506 133.242 134.833 134.222C135.161 135.197 135.625 136.094 136.222 136.912C136.824 137.726 137.531 138.431 138.346 139.03C139.163 139.632 140.061 140.096 141.036 140.423C142.016 140.756 143.047 140.921 144.131 140.921Z" fill="white"/>
<path d="M210.156 134.627V133.447L215.363 125.207H216.22V127.035H215.641L211.707 133.261V133.354H218.72V134.627H210.156ZM215.733 137.057V125.207H217.099V137.057H215.733ZM215.131 142.264C213.902 142.264 212.729 142.077 211.614 141.703C210.503 141.328 209.484 140.8 208.553 140.118C207.628 139.438 206.823 138.634 206.141 137.705C205.463 136.779 204.936 135.761 204.561 134.65C204.187 133.535 204 132.362 204 131.131C204 129.9 204.187 128.731 204.561 127.619C204.936 126.506 205.463 125.485 206.141 124.559C206.823 123.63 207.628 122.826 208.553 122.146C209.484 121.464 210.503 120.936 211.614 120.561C212.729 120.187 213.902 120 215.131 120C216.361 120 217.533 120.187 218.645 120.561C219.758 120.936 220.779 121.464 221.705 122.146C222.634 122.826 223.438 123.63 224.118 124.559C224.8 125.485 225.328 126.506 225.703 127.619C226.077 128.731 226.264 129.902 226.264 131.131C226.264 132.361 226.077 133.535 225.703 134.65C225.328 135.761 224.8 136.779 224.118 137.705C223.438 138.634 222.634 139.438 221.705 140.118C220.779 140.8 219.758 141.328 218.645 141.703C217.533 142.077 216.362 142.264 215.131 142.264ZM215.131 140.921C216.216 140.921 217.246 140.756 218.222 140.423C219.201 140.096 220.098 139.632 220.912 139.03C221.73 138.431 222.438 137.726 223.036 136.912C223.637 136.094 224.101 135.197 224.43 134.222C224.758 133.242 224.921 132.212 224.921 131.131C224.921 130.051 224.758 129.018 224.43 128.042C224.101 127.062 223.637 126.166 223.036 125.352C222.438 124.534 221.73 123.826 220.912 123.228C220.098 122.627 219.201 122.161 218.222 121.834C217.246 121.506 216.216 121.343 215.131 121.343C214.047 121.343 213.016 121.506 212.037 121.834C211.061 122.161 210.163 122.627 209.346 123.228C208.533 123.826 207.825 124.534 207.223 125.352C206.625 126.166 206.163 127.062 205.834 128.042C205.506 129.018 205.343 130.048 205.343 131.131C205.343 132.215 205.506 133.242 205.834 134.222C206.163 135.197 206.625 136.094 207.223 136.912C207.825 137.726 208.533 138.431 209.346 139.03C210.163 139.632 211.061 140.096 212.037 140.423C213.016 140.756 214.048 140.921 215.131 140.921Z" fill="white"/>
<path d="M276.017 137.218C275.337 137.218 274.726 137.083 274.183 136.814C273.638 136.544 273.202 136.173 272.874 135.702C272.547 135.233 272.367 134.695 272.337 134.095H273.726C273.779 134.631 274.022 135.074 274.454 135.425C274.89 135.772 275.411 135.945 276.017 135.945C276.502 135.945 276.935 135.832 277.313 135.604C277.694 135.376 277.994 135.065 278.209 134.667C278.429 134.266 278.538 133.813 278.538 133.308C278.538 132.803 278.425 132.329 278.197 131.924C277.973 131.516 277.665 131.194 277.272 130.958C276.879 130.723 276.429 130.603 275.924 130.599C275.561 130.595 275.189 130.651 274.808 130.767C274.426 130.879 274.111 131.024 273.864 131.201L272.521 131.04L273.239 125.207H279.395V126.48H274.442L274.026 129.974H274.095C274.338 129.782 274.643 129.622 275.01 129.494C275.377 129.367 275.758 129.304 276.156 129.304C276.88 129.304 277.526 129.477 278.093 129.824C278.664 130.168 279.111 130.639 279.436 131.236C279.764 131.834 279.927 132.516 279.927 133.284C279.927 134.051 279.758 134.716 279.418 135.309C279.083 135.9 278.62 136.367 278.029 136.709C277.44 137.049 276.768 137.218 276.017 137.218ZM276.131 142.264C274.902 142.264 273.729 142.077 272.614 141.703C271.503 141.328 270.484 140.8 269.553 140.118C268.628 139.438 267.823 138.634 267.141 137.705C266.463 136.779 265.936 135.761 265.561 134.65C265.187 133.535 265 132.362 265 131.131C265 129.9 265.187 128.731 265.561 127.619C265.936 126.506 266.463 125.485 267.141 124.559C267.823 123.63 268.628 122.826 269.553 122.146C270.484 121.464 271.503 120.936 272.614 120.561C273.729 120.187 274.902 120 276.131 120C277.361 120 278.533 120.187 279.645 120.561C280.758 120.936 281.779 121.464 282.705 122.146C283.634 122.826 284.438 123.63 285.118 124.559C285.8 125.485 286.328 126.506 286.703 127.619C287.077 128.731 287.264 129.902 287.264 131.131C287.264 132.361 287.077 133.535 286.703 134.65C286.328 135.761 285.8 136.779 285.118 137.705C284.438 138.634 283.634 139.438 282.705 140.118C281.779 140.8 280.758 141.328 279.645 141.703C278.533 142.077 277.362 142.264 276.131 142.264ZM276.131 140.921C277.216 140.921 278.246 140.756 279.222 140.423C280.201 140.096 281.098 139.632 281.912 139.03C282.73 138.431 283.438 137.726 284.036 136.912C284.637 136.094 285.101 135.197 285.43 134.222C285.758 133.242 285.921 132.212 285.921 131.131C285.921 130.051 285.758 129.018 285.43 128.042C285.101 127.062 284.637 126.166 284.036 125.352C283.438 124.534 282.73 123.826 281.912 123.228C281.098 122.627 280.201 122.161 279.222 121.834C278.246 121.506 277.216 121.343 276.131 121.343C275.047 121.343 274.016 121.506 273.037 121.834C272.061 122.161 271.163 122.627 270.346 123.228C269.533 123.826 268.825 124.534 268.223 125.352C267.625 126.166 267.163 127.062 266.834 128.042C266.506 129.018 266.343 130.048 266.343 131.131C266.343 132.215 266.506 133.242 266.834 134.222C267.163 135.197 267.625 136.094 268.223 136.912C268.825 137.726 269.533 138.431 270.346 139.03C271.163 139.632 272.061 140.096 273.037 140.423C274.016 140.756 275.048 140.921 276.131 140.921Z" fill="white"/>
<path d="M317.213 83.2183C316.727 83.2107 316.24 83.1178 315.755 82.9408C315.269 82.7639 314.825 82.4648 314.424 82.0447C314.023 81.6196 313.701 81.0468 313.458 80.3263C313.215 79.6008 313.094 78.6907 313.094 77.5947C313.094 76.4988 313.192 75.6166 313.389 74.8058C313.585 73.9924 313.87 73.3076 314.244 72.7527C314.619 72.1926 315.071 71.7687 315.599 71.4798C316.131 71.1896 316.73 71.0457 317.399 71.0457C318.067 71.0457 318.651 71.1781 319.168 71.4441C319.69 71.7063 320.114 72.0729 320.441 72.5439C320.769 73.0149 320.982 73.5558 321.077 74.1694H319.666C319.535 73.6373 319.28 73.1956 318.902 72.8443C318.524 72.4943 318.022 72.3186 317.399 72.3186C316.48 72.3186 315.757 72.717 315.228 73.5164C314.704 74.3145 314.439 75.4346 314.435 76.8768H314.528C314.745 76.5497 315.001 76.2696 315.298 76.038C315.599 75.8038 315.931 75.6217 316.293 75.4945C316.655 75.3672 317.04 75.3035 317.444 75.3035C318.123 75.3035 318.744 75.4728 319.308 75.8127C319.871 76.1487 320.322 76.6133 320.661 77.2078C321.001 77.7971 321.17 78.4743 321.17 79.238C321.17 80.0017 321.006 80.642 320.679 81.2517C320.351 81.8576 319.89 82.3388 319.295 82.6977C318.706 83.0528 318.011 83.226 317.213 83.2183ZM317.213 81.9454C317.699 81.9454 318.134 81.8245 318.52 81.5814C318.91 81.3383 319.216 81.0124 319.44 80.6038C319.668 80.1952 319.782 79.7395 319.782 79.238C319.782 78.7365 319.672 78.3024 319.452 77.9015C319.237 77.4967 318.938 77.1747 318.556 76.9354C318.178 76.6961 317.745 76.5764 317.259 76.5764C316.893 76.5764 316.551 76.6502 316.235 76.7966C315.918 76.9392 315.641 77.1352 315.402 77.386C315.167 77.6367 314.981 77.9244 314.847 78.249C314.712 78.5685 314.644 78.9058 314.644 79.2609C314.644 79.7319 314.754 80.171 314.974 80.5809C315.198 80.9895 315.502 81.3192 315.888 81.5699C316.277 81.8207 316.719 81.9454 317.213 81.9454ZM317.131 88.264C315.902 88.264 314.729 88.0769 313.614 87.7027C312.503 87.3285 311.484 86.8002 310.553 86.118C309.628 85.4382 308.823 84.6338 308.141 83.7046C307.463 82.7792 306.936 81.7609 306.561 80.6496C306.187 79.5346 306 78.3623 306 77.1314C306 75.9005 306.187 74.7307 306.561 73.6195C306.936 72.5057 307.463 71.4849 308.141 70.5595C308.823 69.6303 309.628 68.8258 310.553 68.1461C311.484 67.4638 312.503 66.9356 313.614 66.5613C314.729 66.1871 315.902 66 317.131 66C318.361 66 319.533 66.1871 320.645 66.5613C321.758 66.9356 322.779 67.4638 323.705 68.1461C324.634 68.8258 325.438 69.6303 326.118 70.5595C326.8 71.4849 327.328 72.5057 327.703 73.6195C328.077 74.7307 328.264 75.9018 328.264 77.1314C328.264 78.361 328.077 79.5346 327.703 80.6496C327.328 81.7609 326.8 82.7792 326.118 83.7046C325.438 84.6338 324.634 85.4382 323.705 86.118C322.779 86.8002 321.758 87.3285 320.645 87.7027C319.533 88.0769 318.362 88.264 317.131 88.264ZM317.131 86.9211C318.216 86.9211 319.246 86.7557 320.222 86.4234C321.201 86.0963 322.098 85.6317 322.912 85.0296C323.73 84.4314 324.438 83.7262 325.036 82.9115C325.637 82.0944 326.101 81.197 326.43 80.2219C326.758 79.2418 326.921 78.2121 326.921 77.1314C326.921 76.0507 326.758 75.0184 326.43 74.0421C326.101 73.062 325.637 72.1659 325.036 71.3525C324.438 70.534 323.73 69.8263 322.912 69.228C322.098 68.6272 321.201 68.1614 320.222 67.8342C319.246 67.5058 318.216 67.3429 317.131 67.3429C316.047 67.3429 315.016 67.5058 314.037 67.8342C313.061 68.1614 312.163 68.6272 311.346 69.228C310.533 69.8263 309.825 70.534 309.223 71.3525C308.625 72.1659 308.163 73.062 307.834 74.0421C307.506 75.0184 307.343 76.0481 307.343 77.1314C307.343 78.2146 307.506 79.2418 307.834 80.2219C308.163 81.197 308.625 82.0944 309.223 82.9115C309.825 83.7262 310.533 84.4314 311.346 85.0296C312.163 85.6317 313.061 86.0963 314.037 86.4234C315.016 86.7557 316.048 86.9211 317.131 86.9211Z" fill="white"/>
<path d="M314.47 218.057L319.77 207.573V207.48H313.66V206.207H321.252V207.549L315.974 218.057H314.47ZM317.131 223.264C315.9 223.264 314.728 223.077 313.614 222.703C312.503 222.328 311.482 221.8 310.553 221.118C309.628 220.438 308.823 219.634 308.141 218.705C307.461 217.779 306.936 216.761 306.561 215.65C306.187 214.535 306 213.362 306 212.131C306 210.901 306.187 209.731 306.561 208.619C306.936 207.506 307.461 206.485 308.141 205.559C308.823 204.63 309.628 203.826 310.553 203.146C311.482 202.464 312.503 201.936 313.614 201.561C314.728 201.187 315.9 201 317.131 201C318.362 201 319.533 201.187 320.643 201.561C321.758 201.936 322.779 202.464 323.705 203.146C324.634 203.826 325.438 204.63 326.117 205.559C326.8 206.485 327.328 207.506 327.703 208.619C328.077 209.731 328.264 210.902 328.264 212.131C328.264 213.361 328.077 214.535 327.703 215.65C327.328 216.761 326.8 217.779 326.117 218.705C325.438 219.634 324.634 220.438 323.705 221.118C322.779 221.8 321.758 222.328 320.643 222.703C319.533 223.077 318.362 223.264 317.131 223.264ZM317.131 221.921C318.216 221.921 319.246 221.756 320.221 221.423C321.201 221.096 322.098 220.632 322.912 220.03C323.729 219.431 324.438 218.726 325.035 217.912C325.637 217.094 326.101 216.197 326.43 215.222C326.757 214.242 326.921 213.212 326.921 212.131C326.921 211.051 326.757 210.018 326.43 209.042C326.101 208.062 325.637 207.166 325.035 206.352C324.438 205.534 323.729 204.826 322.912 204.228C322.098 203.627 321.201 203.161 320.221 202.834C319.246 202.506 318.216 202.343 317.131 202.343C316.047 202.343 315.016 202.506 314.036 202.834C313.061 203.161 312.163 203.627 311.346 204.228C310.531 204.826 309.824 205.534 309.223 206.352C308.625 207.166 308.161 208.062 307.834 209.042C307.506 210.018 307.342 211.048 307.342 212.131C307.342 213.215 307.506 214.242 307.834 215.222C308.161 216.197 308.625 217.094 309.223 217.912C309.824 218.726 310.531 219.431 311.346 220.03C312.163 220.632 313.061 221.096 314.036 221.423C315.016 221.756 316.048 221.921 317.131 221.921Z" fill="white"/>
</g>
<defs>
<clipPath id="clip0_58_8242">
<rect width="332" height="361" fill="white"/>
</clipPath>
</defs>
</svg>
