<svg width="331" height="117" viewBox="0 0 331 117" fill="none" xmlns="http://www.w3.org/2000/svg">
<g clip-path="url(#clip0_58_8273)">
<path d="M303.061 21.12V22.0262H212.881V21.12H303.061Z" fill="white"/>
<path d="M213.787 21.2491V48.3292H212.881V21.2491H213.787Z" fill="white"/>
<path d="M330.398 0.000427246V117H0V0.000427246H330.398ZM0.90625 116.093H329.491V0.906677H0.90625V116.093Z" fill="white"/>
<path d="M213.787 42.6278V48.7177H35.2422V42.6278H213.787Z" fill="white"/>
<path d="M124.331 76.5631C123.078 76.5631 121.884 76.3727 120.751 75.9918C119.62 75.6108 118.58 75.0731 117.635 74.3786C116.693 73.6867 115.874 72.8679 115.179 71.922C114.487 70.9801 113.952 69.9435 113.571 68.8124C113.19 67.6774 113 66.484 113 65.2311C113 63.9782 113.19 62.7875 113.571 61.6563C113.952 60.5226 114.487 59.4835 115.179 58.5415C115.874 57.5957 116.693 56.7768 117.635 56.0849C118.58 55.3904 119.62 54.8527 120.751 54.4718C121.884 54.0909 123.078 53.9004 124.331 53.9004C125.584 53.9004 126.776 54.0909 127.906 54.4718C129.041 54.8527 130.08 55.3904 131.022 56.0849C131.967 56.7768 132.786 57.5957 133.477 58.5415C134.173 59.4835 134.71 60.5226 135.091 61.6563C135.472 62.7875 135.663 63.9795 135.663 65.2311C135.663 66.4828 135.472 67.6774 135.091 68.8124C134.71 69.9435 134.173 70.9801 133.477 71.922C132.786 72.8679 131.967 73.6867 131.022 74.3786C130.08 75.0731 129.041 75.6108 127.906 75.9918C126.776 76.3727 125.584 76.5631 124.331 76.5631ZM124.331 75.1962C125.435 75.1962 126.483 75.0278 127.475 74.6896C128.473 74.3566 129.386 73.8837 130.214 73.2708C131.046 72.6619 131.768 71.944 132.376 71.1148C132.988 70.283 133.461 69.3695 133.796 68.377C134.129 67.3794 134.296 66.3312 134.296 65.2311C134.296 64.1311 134.129 63.0803 133.796 62.0865C133.461 61.0888 132.988 60.1767 132.376 59.3487C131.768 58.5156 131.046 57.7952 130.214 57.1862C129.386 56.5747 128.473 56.1005 127.475 55.7675C126.483 55.4332 125.435 55.2673 124.331 55.2673C123.227 55.2673 122.177 55.4332 121.18 55.7675C120.187 56.1005 119.274 56.5747 118.442 57.1862C117.613 57.7952 116.892 58.5156 116.281 59.3487C115.672 60.1767 115.2 61.0888 114.867 62.0865C114.533 63.0803 114.366 64.1285 114.366 65.2311C114.366 66.3337 114.533 67.3794 114.867 68.377C115.2 69.3695 115.672 70.283 116.281 71.1148C116.892 71.944 117.613 72.6619 118.442 73.2708C119.274 73.8837 120.187 74.3566 121.18 74.6896C122.177 75.0278 123.228 75.1962 124.331 75.1962Z" fill="white"/>
<path d="M124.513 59C125.138 59 125.688 59.1133 126.165 59.34C126.641 59.5553 127.013 59.8783 127.281 60.309C127.559 60.7397 127.698 61.2723 127.698 61.907C127.698 62.3943 127.603 62.8193 127.415 63.182C127.236 63.5447 126.993 63.8677 126.686 64.151C126.378 64.423 126.041 64.6667 125.673 64.882C126.11 65.12 126.507 65.392 126.864 65.698C127.221 65.9927 127.504 66.3383 127.713 66.735C127.931 67.1317 128.04 67.6077 128.04 68.163C128.04 68.843 127.896 69.4323 127.608 69.931C127.321 70.4183 126.914 70.798 126.388 71.07C125.872 71.342 125.262 71.478 124.557 71.478C123.793 71.478 123.143 71.3477 122.607 71.087C122.082 70.8263 121.68 70.458 121.402 69.982C121.134 69.4947 121 68.9053 121 68.214C121 67.6587 121.099 67.177 121.298 66.769C121.506 66.361 121.779 66.0097 122.116 65.715C122.454 65.4203 122.816 65.171 123.203 64.967C122.856 64.7403 122.538 64.4853 122.25 64.202C121.972 63.9073 121.749 63.573 121.58 63.199C121.422 62.825 121.342 62.3887 121.342 61.89C121.342 61.2667 121.481 60.7453 121.759 60.326C122.037 59.8953 122.414 59.5667 122.89 59.34C123.367 59.1133 123.907 59 124.513 59ZM122.28 68.231C122.28 68.8203 122.464 69.3133 122.831 69.71C123.198 70.0953 123.763 70.288 124.527 70.288C125.014 70.288 125.42 70.1973 125.748 70.016C126.075 69.8347 126.323 69.5853 126.492 69.268C126.671 68.9507 126.76 68.588 126.76 68.18C126.76 67.7833 126.666 67.4377 126.477 67.143C126.299 66.837 126.041 66.565 125.703 66.327C125.376 66.089 124.984 65.8737 124.527 65.681L124.289 65.579C123.853 65.7943 123.486 66.0267 123.188 66.276C122.89 66.5253 122.662 66.8087 122.503 67.126C122.354 67.4433 122.28 67.8117 122.28 68.231ZM124.498 60.207C123.952 60.207 123.5 60.36 123.143 60.666C122.796 60.9607 122.622 61.3913 122.622 61.958C122.622 62.3773 122.707 62.7287 122.875 63.012C123.054 63.2953 123.292 63.539 123.59 63.743C123.887 63.9357 124.215 64.1227 124.572 64.304C124.919 64.134 125.227 63.947 125.495 63.743C125.773 63.539 125.991 63.2953 126.15 63.012C126.318 62.7173 126.403 62.366 126.403 61.958C126.403 61.3913 126.229 60.9607 125.882 60.666C125.535 60.36 125.073 60.207 124.498 60.207Z" fill="white"/>
</g>
<defs>
<clipPath id="clip0_58_8273">
<rect width="330.399" height="117" fill="white"/>
</clipPath>
</defs>
</svg>
