<svg width="47" height="30" viewBox="0 0 47 30" fill="none" xmlns="http://www.w3.org/2000/svg">
<path fill-rule="evenodd" clip-rule="evenodd" d="M43.2648 8.65213C43.4225 8.47846 43.6364 8.38091 43.8594 8.38091C44.0824 8.38091 44.2963 8.47846 44.454 8.65213L44.4563 8.65461L44.4596 8.65708L44.4675 8.66574L44.4899 8.69047L44.5595 8.77579C44.6156 8.84627 44.6941 8.94643 44.785 9.07379C45.8217 10.5588 46.3838 12.38 46.3838 14.2536C46.3838 16.1273 45.8217 17.9485 44.785 19.4335C44.691 19.5657 44.5922 19.6935 44.4888 19.8168L44.4664 19.8416L44.4596 19.8502L44.4563 19.8527L44.4552 19.8539L43.883 19.2258L44.4552 19.8564C44.2973 20.0304 44.0832 20.1281 43.86 20.1281C43.6367 20.1281 43.4226 20.0304 43.2648 19.8564C43.1069 19.6824 43.0182 19.4465 43.0182 19.2004C43.0182 18.9544 43.1069 18.7184 43.2648 18.5444L43.2636 18.5457L43.2614 18.5469L43.267 18.5407L43.304 18.4962C43.3399 18.4533 43.3919 18.3845 43.46 18.2897C44.1698 17.2685 44.5951 16.042 44.6843 14.7594C44.7736 13.4767 44.5228 12.1932 43.9626 11.0646C43.8164 10.7676 43.6483 10.4843 43.46 10.2176C43.3991 10.1308 43.3347 10.0471 43.267 9.96657L43.2614 9.96039C43.105 9.78611 43.0175 9.55065 43.0181 9.3055C43.0187 9.06034 43.1074 8.82543 43.2648 8.65213ZM36.6082 4.23275C37.9131 3.28433 39.6521 4.31684 39.6521 6.03933V23.7045C39.6521 25.4282 37.9131 26.4595 36.6082 25.5111L29.8765 20.6206C29.831 20.5871 29.7775 20.5691 29.7228 20.5686H26.4692C25.6509 20.5686 24.8661 20.2104 24.2875 19.5727C23.7089 18.935 23.3838 18.07 23.3838 17.1682V12.5757C23.3838 11.6738 23.7089 10.8089 24.2875 10.1712C24.8661 9.53345 25.6509 9.17519 26.4692 9.17519H29.7228C29.7778 9.17539 29.8317 9.15776 29.8776 9.12449L36.6082 4.23275Z" fill="url(#paint0_linear_64_8758)"/>
<path d="M19.094 25.022V25.694H25.632V25.022H19.094ZM19.094 26.31V26.996H25.632V26.31H19.094ZM19.094 23.748V24.406H25.632V23.748H19.094ZM18.1 23.104H26.668V27.64H18.1V23.104ZM23.224 27.248H24.246V28.62C24.246 28.7693 24.2927 28.8627 24.386 28.9C24.4793 28.9467 24.6893 28.97 25.016 28.97C25.0907 28.97 25.226 28.97 25.422 28.97C25.618 28.97 25.8373 28.97 26.08 28.97C26.3227 28.97 26.5467 28.97 26.752 28.97C26.9667 28.97 27.1253 28.97 27.228 28.97C27.4147 28.97 27.55 28.942 27.634 28.886C27.718 28.83 27.7787 28.7133 27.816 28.536C27.8533 28.3493 27.8813 28.0693 27.9 27.696C28.0027 27.7613 28.1427 27.8267 28.32 27.892C28.4973 27.948 28.6513 27.99 28.782 28.018C28.7447 28.5033 28.6793 28.872 28.586 29.124C28.4927 29.3853 28.348 29.5627 28.152 29.656C27.956 29.7587 27.6853 29.81 27.34 29.81C27.284 29.81 27.172 29.81 27.004 29.81C26.836 29.81 26.6447 29.81 26.43 29.81C26.2247 29.81 26.0147 29.81 25.8 29.81C25.5947 29.81 25.408 29.81 25.24 29.81C25.0813 29.81 24.974 29.81 24.918 29.81C24.47 29.81 24.12 29.7773 23.868 29.712C23.6253 29.6467 23.4573 29.53 23.364 29.362C23.2707 29.194 23.224 28.9513 23.224 28.634V27.248ZM20.228 27.304H21.264C21.1707 27.7147 21.0167 28.074 20.802 28.382C20.5967 28.6807 20.3073 28.9327 19.934 29.138C19.5607 29.3527 19.0893 29.5253 18.52 29.656C17.96 29.796 17.2647 29.908 16.434 29.992C16.406 29.8707 16.3407 29.726 16.238 29.558C16.1447 29.3993 16.0513 29.2733 15.958 29.18C16.7047 29.124 17.33 29.0493 17.834 28.956C18.3473 28.8627 18.7627 28.746 19.08 28.606C19.4067 28.4567 19.6587 28.2793 19.836 28.074C20.0227 27.8593 20.1533 27.6027 20.228 27.304ZM23.742 19.212H27.928V19.87H23.742V19.212ZM23.63 17.924H28.628V18.652H23.63V17.924ZM19.01 17.868H19.878V19.184H19.01V17.868ZM19.01 20.696H19.878V22.04H19.01V20.696ZM17.176 18.96H21.824V21.032H17.176V20.402H20.914V19.604H17.176V18.96ZM26.71 21.018V22.026H27.62V21.018H26.71ZM25.198 21.018V22.026H26.094V21.018H25.198ZM23.742 21.018V22.026H24.596V21.018H23.742ZM22.986 20.416H28.404V22.614H22.986V20.416ZM23.7 17.112L24.638 17.266C24.4607 17.7607 24.218 18.2507 23.91 18.736C23.6113 19.2213 23.2193 19.6693 22.734 20.08C22.6407 19.9773 22.524 19.8653 22.384 19.744C22.244 19.6227 22.118 19.5387 22.006 19.492C22.4447 19.1467 22.7993 18.764 23.07 18.344C23.35 17.9147 23.56 17.504 23.7 17.112ZM22.23 17.588V18.26H17.554V21.844H22.342V22.516H16.63V17.588H22.23Z" fill="white"/>
<path d="M0.15332 26.338H12.5573V27.178H0.15332V26.338ZM3.72332 18.4H12.4593V19.17H3.72332V18.4ZM8.53932 25.582H9.56132V28.802C9.56132 29.0727 9.52399 29.2827 9.44932 29.432C9.37465 29.5813 9.22532 29.6933 9.00132 29.768C8.77732 29.8427 8.47865 29.8847 8.10532 29.894C7.74132 29.9127 7.26999 29.922 6.69132 29.922C6.67265 29.782 6.62599 29.628 6.55132 29.46C6.48599 29.292 6.41599 29.1427 6.34132 29.012C6.63999 29.0213 6.91999 29.026 7.18132 29.026C7.44265 29.026 7.66665 29.026 7.85332 29.026C8.04932 29.026 8.18465 29.026 8.25932 29.026C8.37132 29.0167 8.44599 28.9933 8.48332 28.956C8.52065 28.928 8.53932 28.872 8.53932 28.788V25.582ZM2.77132 27.766L3.49932 27.178C3.85399 27.4207 4.21332 27.71 4.57732 28.046C4.95065 28.3727 5.23532 28.6667 5.43132 28.928L4.66132 29.586C4.53999 29.3993 4.37665 29.1987 4.17132 28.984C3.96599 28.7693 3.74199 28.5547 3.49932 28.34C3.25665 28.1253 3.01399 27.934 2.77132 27.766ZM5.43132 17.336L6.27132 17.084C6.42999 17.2613 6.57932 17.4713 6.71932 17.714C6.86865 17.9473 6.97599 18.1527 7.04132 18.33L6.14532 18.638C6.08932 18.4513 5.99132 18.2367 5.85132 17.994C5.72065 17.7513 5.58065 17.532 5.43132 17.336ZM5.55732 21.62V22.264H10.4293V21.62H5.55732ZM5.55732 22.824V23.496H10.4293V22.824H5.55732ZM5.55732 20.444V21.06H10.4293V20.444H5.55732ZM4.66132 19.87H11.3533V24.07H4.66132V19.87ZM7.54532 18.666L8.59532 18.764C8.48332 19.0253 8.36199 19.282 8.23132 19.534C8.10999 19.7767 7.99799 19.9913 7.89532 20.178L7.05532 20.038C7.14865 19.8327 7.24199 19.5993 7.33532 19.338C7.42865 19.0767 7.49865 18.8526 7.54532 18.666ZM9.85532 17.112L10.8493 17.322C10.6813 17.5926 10.5087 17.8586 10.3313 18.12C10.154 18.372 9.99065 18.5913 9.84132 18.778L9.01532 18.568C9.15532 18.3627 9.30465 18.12 9.46332 17.84C9.63132 17.56 9.76199 17.3173 9.85532 17.112ZM1.06332 17.364L1.93132 17.14C2.11799 17.3453 2.29532 17.5786 2.46332 17.84C2.64065 18.092 2.78065 18.3113 2.88332 18.498L1.97332 18.778C1.87999 18.5913 1.74465 18.3627 1.56732 18.092C1.39932 17.8213 1.23132 17.5787 1.06332 17.364ZM0.34932 19.03H3.14932V19.884H0.34932V19.03ZM2.92532 23.02C3.14932 23.496 3.45265 23.846 3.83532 24.07C4.21799 24.294 4.69865 24.4433 5.27732 24.518C5.86532 24.5833 6.57465 24.616 7.40532 24.616C7.96532 24.616 8.56732 24.6113 9.21132 24.602C9.86465 24.5833 10.5087 24.56 11.1433 24.532C11.7873 24.504 12.3613 24.4667 12.8653 24.42C12.8 24.532 12.7393 24.6813 12.6833 24.868C12.6273 25.0547 12.5853 25.2133 12.5573 25.344C12.0813 25.3627 11.554 25.386 10.9753 25.414C10.3967 25.4327 9.80399 25.4467 9.19732 25.456C8.59065 25.4653 8.00265 25.47 7.43332 25.47C6.44399 25.47 5.62265 25.4187 4.96932 25.316C4.31599 25.2133 3.77932 25.0127 3.35932 24.714C2.94865 24.406 2.60799 23.944 2.33732 23.328L2.92532 23.02ZM2.96732 21.326H3.30332L3.47132 21.284L3.86332 21.564C3.57399 22.5347 3.14465 23.3747 2.57532 24.084C2.01532 24.7933 1.39932 25.3533 0.72732 25.764C0.69932 25.6893 0.652654 25.6053 0.58732 25.512C0.521987 25.4093 0.451987 25.316 0.37732 25.232C0.302654 25.1387 0.232654 25.0687 0.16732 25.022C0.792654 24.6767 1.35732 24.2007 1.86132 23.594C2.37465 22.978 2.74332 22.2733 2.96732 21.48V21.326ZM0.61532 22.376V21.564L1.11932 21.326H3.23332L3.21932 22.18H1.42732C1.25932 22.18 1.09599 22.1987 0.93732 22.236C0.778654 22.2733 0.67132 22.32 0.61532 22.376ZM0.61532 22.376C0.596654 22.3013 0.563987 22.208 0.51732 22.096C0.470654 21.9747 0.423987 21.8627 0.37732 21.76C0.330654 21.648 0.288654 21.5593 0.25132 21.494C0.33532 21.4753 0.43332 21.4427 0.54532 21.396C0.666654 21.34 0.787987 21.256 0.90932 21.144C1.00265 21.06 1.13799 20.934 1.31532 20.766C1.49265 20.5887 1.68399 20.3973 1.88932 20.192C2.09465 19.9773 2.28599 19.772 2.46332 19.576C2.64999 19.38 2.79465 19.2166 2.89732 19.086V19.044L3.20532 18.918L3.83532 19.282C3.63932 19.506 3.39199 19.772 3.09332 20.08C2.79465 20.3787 2.49132 20.682 2.18332 20.99C1.87532 21.2887 1.59532 21.55 1.34332 21.774C1.34332 21.774 1.30599 21.7927 1.23132 21.83C1.16599 21.8673 1.08199 21.9187 0.97932 21.984C0.876654 22.04 0.787987 22.1053 0.71332 22.18C0.647987 22.2453 0.61532 22.3107 0.61532 22.376Z" fill="white"/>
<path d="M16.9513 1.386H27.9413V2.338H16.9513V1.386ZM16.1533 4.676H28.6273V5.628H16.1533V4.676ZM18.7293 9.212H26.1353V10.052H18.7293V9.212ZM18.7433 11.578H26.1493V12.474H18.7433V11.578ZM18.0853 6.86H26.8353V12.978H25.7433V7.756H19.1213V13.006H18.0853V6.86ZM24.9733 2.366L26.1073 2.646C25.9767 2.926 25.8413 3.21533 25.7013 3.514C25.5613 3.80333 25.4167 4.08333 25.2673 4.354C25.118 4.62467 24.978 4.86267 24.8473 5.068L23.8813 4.816C24.0027 4.592 24.1333 4.34 24.2733 4.06C24.4133 3.77067 24.544 3.47667 24.6653 3.178C24.7867 2.87933 24.8893 2.60867 24.9733 2.366ZM18.8553 2.646L19.8493 2.422C20.0733 2.74867 20.2693 3.11267 20.4373 3.514C20.6053 3.906 20.7173 4.25133 20.7733 4.55L19.6953 4.816C19.6393 4.51733 19.532 4.16733 19.3733 3.766C19.224 3.35533 19.0513 2.982 18.8553 2.646ZM21.4733 0.21L22.5093 0C22.6867 0.252 22.8453 0.536667 22.9853 0.854C23.1253 1.162 23.2233 1.43267 23.2793 1.666L22.1733 1.918C22.1267 1.67533 22.038 1.39533 21.9073 1.078C21.7767 0.751333 21.632 0.462 21.4733 0.21Z" fill="white"/>
<path d="M0.574 4.34003H4.676V5.18003H0.574V4.34003ZM0.574 6.18803H4.676V7.01403H0.574V6.18803ZM0 2.49203H5.152V3.36003H0V2.49203ZM1.036 8.05003H4.76V12.138H1.036V11.256H3.836V8.93203H1.036V8.05003ZM0.574 8.05003H1.498V12.81H0.574V8.05003ZM1.582 0.476031L2.394 0.0560303C2.59933 0.336031 2.80467 0.64403 3.01 0.98003C3.21533 1.31603 3.36933 1.61003 3.472 1.86203L2.618 2.35203C2.51533 2.10003 2.36133 1.7967 2.156 1.44203C1.96 1.07803 1.76867 0.75603 1.582 0.476031ZM6.3 11.452H11.494V12.376H6.3V11.452ZM5.376 0.70003H12.544V1.59603H5.376V0.70003ZM5.012 6.03403H12.852V6.93003H5.012V6.03403ZM5.796 7.92403H11.984V12.95H10.962V8.84803H6.776V12.992H5.796V7.92403ZM5.712 3.03803H11.522V6.42603H10.528V3.93403H5.712V3.03803ZM7.798 1.05003L8.834 1.16203C8.74067 1.7127 8.63333 2.3147 8.512 2.96803C8.4 3.61203 8.28333 4.23736 8.162 4.84403C8.04067 5.44136 7.92867 5.95936 7.826 6.39803H6.79C6.88333 6.0527 6.972 5.6607 7.056 5.22203C7.14933 4.78336 7.238 4.32136 7.322 3.83603C7.41533 3.3507 7.504 2.87003 7.588 2.39403C7.672 1.91803 7.742 1.47003 7.798 1.05003Z" fill="white"/>
<defs>
<linearGradient id="paint0_linear_64_8758" x1="46.3838" y1="14.5725" x2="23.3835" y2="15.1601" gradientUnits="userSpaceOnUse">
<stop offset="0.274038" stop-color="white" stop-opacity="0.3"/>
<stop offset="0.75" stop-color="white" stop-opacity="0"/>
</linearGradient>
</defs>
</svg>
