<svg width="157" height="61" viewBox="0 0 157 61" fill="none" xmlns="http://www.w3.org/2000/svg">
<g clip-path="url(#clip0_1_973)">
<path d="M55.6697 12.9425C58.4226 13.1795 57.8536 15.0996 56.8626 14.5649C56.6729 14.0059 56.0612 13.3922 55.5657 13.0397L55.6758 12.9425H55.6697ZM59.6155 12.3713C59.0404 13.8053 57.9454 16.4911 57.7557 17.0744C57.6212 17.439 57.5416 17.8218 57.5416 18.1317C57.5539 18.6785 57.9332 19.1829 57.8964 20.1551C57.872 20.6898 57.5845 21.0301 57.1073 21.0301C56.8809 21.0301 56.7035 20.8174 56.6546 20.4285C56.832 19.195 56.7647 18.235 56.4894 18.0588C56.3242 17.9494 56.1346 17.9068 55.8715 17.8825V17.6334H56.4344C56.5873 17.6334 56.6362 17.6334 56.7708 17.3964C56.9462 17.1129 57.8292 15.4196 59.4197 12.3166L59.6216 12.3774L59.6155 12.3713ZM56.6362 10.3601C59.5359 10.7186 58.9364 12.6934 57.9209 12.1222C57.7068 11.5328 57.0522 10.8462 56.5261 10.4634L56.6362 10.354V10.3601ZM65.7575 18.9884C65.7575 18.9884 66.4977 19.5718 66.9259 19.9728C66.8892 20.1004 66.773 20.1612 66.6017 20.1612H58.5755L58.4776 19.8148H62.0441V11.8002H59.2056L59.1077 11.4477H64.7236L65.3415 10.6396C65.3415 10.6396 66.0572 11.2108 66.4854 11.6118C66.461 11.7394 66.3447 11.8002 66.1734 11.8002H63.0474V19.8148H65.109L65.7391 18.9884H65.7575Z" fill="white"/>
<path d="M70.1499 14.9536C70.26 14.8564 70.4619 14.7288 70.6393 14.6559V10.2262L71.667 10.7609H74.0896L74.6279 10.0986C74.6279 10.0986 75.2336 10.5604 75.619 10.925C75.5823 11.0526 75.466 11.1134 75.307 11.1134H73.5757V12.037H74.4016L74.842 11.5752L75.7964 12.2861C75.723 12.3712 75.5578 12.4623 75.3314 12.5109V13.7991C75.3314 13.872 74.9154 14.0482 74.6524 14.0482H74.5239V13.6837H73.5818V14.747H74.4995L74.9889 14.1333C74.9889 14.1333 75.5639 14.5708 75.9065 14.905C75.8698 15.0387 75.7658 15.0934 75.5945 15.0934H71.6242L71.2449 15.5916L70.1621 14.9536H70.1499ZM70.2845 20.8962C71.7282 20.5438 73.3738 19.7843 74.1569 19.1888L75.2886 19.9483C75.1907 20.0638 74.9889 20.0881 74.6952 20.0091C73.6675 20.4952 71.9179 20.9205 70.3457 21.0724L70.2845 20.8962ZM71.508 12.037H72.7498V11.1134H71.508V12.037ZM71.508 12.3833V13.3434H74.5117V12.3833H71.508ZM72.7498 13.6837H71.508V14.747H72.7498V13.6837ZM78.329 19.5351V19.1341H72.6642V19.4197C72.6642 19.5169 72.2482 19.7174 71.8628 19.7174H71.7221V15.2027L72.7498 15.6281H78.225L78.7022 15.1177L79.7422 15.9015C79.6688 15.9866 79.5036 16.0777 79.2895 16.1142V19.2556C79.2772 19.3407 78.8123 19.5412 78.4881 19.5412H78.3351L78.329 19.5351ZM72.6642 15.9683V16.6793H78.329V15.9683H72.6642ZM78.329 17.0256H72.6642V17.7487H78.329V17.0256ZM78.329 18.7756V18.089H72.6642V18.7756H78.329ZM80.617 11.162C80.5191 11.2592 80.4029 11.2957 80.1276 11.3139C79.7911 12.1767 79.2834 12.9727 78.6104 13.6472C79.3262 14.1211 80.1459 14.4553 81.0574 14.6923L81.033 14.8199C80.6782 14.8807 80.4029 15.142 80.2805 15.543C79.4118 15.1967 78.6594 14.747 78.017 14.1698C77.289 14.7531 76.3837 15.2331 75.2886 15.5673L75.1846 15.3911C76.1512 14.9658 76.9587 14.3946 77.6072 13.7444C76.9893 13.0578 76.5366 12.2193 76.2124 11.2106H75.7841L75.674 10.8642H79.1304L79.6932 10.3295L80.6231 11.1559L80.617 11.162ZM75.9677 19.4622C82.0607 19.6749 80.3417 21.6071 79.2956 20.9327C78.641 20.483 77.4848 19.9969 75.931 19.6506L75.9677 19.4622ZM76.4693 11.2106C76.818 12.0187 77.3625 12.7054 78.0293 13.234C78.5309 12.6325 78.8857 11.9458 79.1365 11.2106H76.4632H76.4693Z" fill="white"/>
<path d="M92.9987 18.9884L93.7512 18.0162C93.7512 18.0162 94.5954 18.6786 95.1093 19.1404C95.0726 19.268 94.9686 19.3287 94.7851 19.3287H84.3669L84.269 18.9824H92.9987V18.9884ZM91.8792 12.3835L92.6072 11.4478C92.6072 11.4478 93.4392 12.0858 93.9286 12.5233C93.8919 12.6509 93.7757 12.7116 93.6044 12.7116H85.4987L85.4008 12.3774H91.8731L91.8792 12.3835Z" fill="white"/>
<path d="M58.0309 26.3953H55.9326L55.8347 26.0429H57.9942L57.8657 25.0828L59.1626 25.1801C59.1504 25.3198 59.0587 25.4413 58.8262 25.5143L58.8996 26.049H59.7805L60.2699 25.4474C60.2699 25.4474 60.8327 25.8849 61.1753 26.2191C61.1386 26.3528 61.0346 26.4075 60.8633 26.4075H58.9547L59.0036 26.766C58.9547 26.8389 58.8874 26.8814 58.7895 26.93L59.6337 27.0273C59.6092 27.1549 59.5358 27.2521 59.2972 27.2885V27.6531H59.7132L60.1659 27.1063C60.1659 27.1063 60.7043 27.5073 61.0468 27.8172C61.0101 27.9448 60.9061 28.0055 60.7349 28.0055H59.2911V28.6679H60.2822L60.7593 28.1331C60.7593 28.1331 61.3099 28.522 61.6647 28.8198C61.6402 28.9474 61.524 29.0081 61.3527 29.0081H60.0986V29.4092C60.0986 29.5125 60.1231 29.5611 60.2393 29.5611H60.7777C60.8266 29.5611 60.8817 29.5489 60.9184 29.5489C60.9673 29.5489 61.0468 29.5246 61.0958 29.5125H61.1998L61.2487 29.5246C61.4751 29.5975 61.5607 29.6401 61.5607 29.7981C61.5607 30.0593 61.3221 30.1566 60.4167 30.1566H60.0008C59.701 30.1566 59.5358 30.1079 59.4502 30.0046C59.389 30.0654 59.3095 30.1019 59.1871 30.1262V30.6609H59.7377L60.1782 30.1869C60.1782 30.1869 60.6798 30.5211 61.0101 30.8128C60.9857 30.9404 60.8756 31.0012 60.7104 31.0012H59.1871V31.6756C59.8172 31.6149 60.484 31.5359 61.1447 31.4508L61.1692 31.6392C60.1904 31.9491 58.9179 32.3015 57.1745 32.6721C57.101 32.8241 56.997 32.9091 56.8747 32.9334L56.4098 31.9126C56.8625 31.9005 57.5782 31.8397 58.3857 31.7607V31.0012H56.9175L56.8196 30.6548H58.3796V29.7555L59.3706 29.8588C59.3584 29.7737 59.3462 29.6826 59.3462 29.5611V29.0021H58.5692C58.2817 29.7616 57.7128 30.3024 56.3608 30.6001L56.2079 30.4239C57.1255 30.1505 57.517 29.6158 57.6883 29.0021H56.5076L56.4098 28.6557H58.4591V27.9934H56.9359L56.838 27.641H58.4591V27.0151C58.3368 27.0151 58.2206 27.0273 58.0798 27.0273L57.9942 26.4014L58.0309 26.3953ZM65.1456 32.897C65.1456 32.897 65.8002 33.3709 66.2161 33.7233C66.1917 33.8509 66.0632 33.9117 65.8919 33.9117H60.4779L61.157 34.2216C61.108 34.331 60.9306 34.4343 60.6064 34.3492C60.0436 34.574 59.2361 34.8353 58.4469 35.0115C59.7255 34.9872 61.5362 34.9143 63.4877 34.8353C63.2002 34.6105 62.9005 34.3857 62.5823 34.1851L62.668 34.0211C66.0326 34.6044 65.4209 36.3058 64.5522 35.8926C64.4115 35.6921 64.1484 35.4065 63.7997 35.1087C62.2948 35.2971 60.1659 35.5341 57.7312 35.7468C57.6455 35.8744 57.5537 35.9473 57.4559 35.9837L57.0643 34.9265C57.0643 34.9265 57.2785 34.9021 57.3763 34.8778C58.1533 34.7381 59.0831 34.2641 59.6643 33.9056H56.2446L56.1345 33.5593H64.5522L65.1395 32.8848L65.1456 32.897ZM63.1452 31.9248C63.1452 31.9248 63.7875 32.3866 64.2096 32.7451C64.1851 32.8727 64.0689 32.9334 63.8976 32.9334H58.4591L58.3613 32.5871H62.5823L63.1452 31.9248ZM63.708 27.3554C63.6957 27.4951 63.5856 27.6167 63.3348 27.6531C63.3226 27.8779 63.3226 28.0785 63.3103 28.2911H64.179L64.6317 27.8293L65.5126 28.5524C65.4392 28.6253 65.2741 28.6922 65.0722 28.7165C65.0232 29.7251 65.1578 30.9769 65.5004 31.3597C65.5738 31.4326 65.6105 31.4204 65.6533 31.3111C65.7512 31.0741 65.8552 30.7642 65.9653 30.4604L66.0938 30.4847L65.9898 31.6209C66.1794 31.8822 66.2529 32.0463 66.1427 32.2103C65.9531 32.5324 65.4392 32.3744 65.1395 32.1131C64.4482 31.4508 64.3075 30.1019 64.283 28.6314H63.292C63.2675 29.0446 63.2186 29.4152 63.1513 29.7798C64.595 30.4664 64.1912 31.4994 63.5306 31.1774C63.4143 30.9769 63.1941 30.7277 62.9127 30.4664C62.5885 31.2381 61.9339 31.8518 60.7043 32.3501L60.5636 32.1617C61.6219 31.5906 62.0868 30.8736 62.3071 29.9803C62.044 29.8163 61.732 29.6218 61.4017 29.4699L61.4873 29.2937C61.8238 29.3545 62.1296 29.4092 62.4049 29.4942C62.4539 29.2208 62.4661 28.9352 62.4783 28.6314H61.4751L61.3711 28.2851H62.4906C62.5028 27.9509 62.5028 27.5984 62.5028 27.2339L63.708 27.3493V27.3554ZM65.7206 25.3684C65.7206 25.3684 66.314 25.8424 66.6872 26.207C66.6505 26.3406 66.5343 26.3953 66.363 26.3953H64.0873L63.9649 27.0212C63.7875 27.1609 63.4143 27.2217 63.035 27.1306L63.1635 26.3953H61.5791L61.4812 26.0429H63.2247L63.4021 25.0464L64.6807 25.2955C64.6684 25.4474 64.5522 25.5689 64.2402 25.5689L64.1545 26.0429H65.2068L65.7206 25.3684Z" fill="white"/>
<path d="M73.3248 28.3152C73.2514 28.4367 73.1474 28.4914 72.8598 28.4488C72.6457 28.8256 72.3582 29.2631 72.0279 29.7188L72.554 29.9072C72.5173 30.0105 72.401 30.0955 72.1869 30.132V35.6979C72.1747 35.7708 71.7954 35.9713 71.4467 35.9713H71.2815V30.6424C70.8655 31.1285 70.4128 31.566 69.9112 31.9549L69.7766 31.8273C70.7554 30.6424 71.6486 28.8681 72.0523 27.6711L73.3309 28.3212L73.3248 28.3152ZM73.2147 25.7327C73.1535 25.8603 73.0372 25.909 72.7742 25.8603C72.1686 26.6806 71.1408 27.7805 70.0091 28.5035L69.8928 28.3759C70.7493 27.4523 71.5996 26.0426 71.9789 25.0947L73.2208 25.7327H73.2147ZM73.4655 29.2509L74.5972 29.3724C74.5727 29.5122 74.481 29.6337 74.1935 29.6702V30.7275C74.1812 31.9002 73.9793 33.6076 72.8231 34.6588L72.6457 34.5191C73.3737 33.4314 73.4716 31.8516 73.4716 30.7032V29.257L73.4655 29.2509ZM75.6372 28.066V35.5156C75.6372 35.6371 75.2579 35.8376 74.9459 35.8376H74.7685V28.0721H73.1963L73.0984 27.7258H74.7685V25.1312L76.0654 25.2709C76.0287 25.435 75.937 25.5687 75.6372 25.6051V27.7258H76.304L76.8301 27.0391C76.8301 27.0391 77.4357 27.5252 77.8089 27.8777C77.7844 28.0053 77.6682 28.066 77.5092 28.066H75.6372ZM76.1327 25.4836C77.8517 26.1338 77.1482 27.3308 76.5487 26.8325C76.4998 26.4072 76.2367 25.8725 75.9859 25.5565L76.1266 25.4836H76.1327ZM77.7906 33.2309C78.0047 33.316 78.1026 33.3646 78.1026 33.5286C78.1026 33.8142 77.8273 33.9297 77.1238 33.9297H76.824C76.2857 33.9297 76.2184 33.7292 76.2184 33.2917V29.2388L77.2889 29.3724C77.2767 29.5244 77.1605 29.6337 76.9402 29.6702V33.0911C76.9402 33.2187 76.9647 33.2674 77.0565 33.2674H77.3318C77.3807 33.2674 77.4296 33.2674 77.448 33.2552C77.4969 33.2552 77.5764 33.2309 77.6254 33.2187H77.7416L77.7783 33.2309H77.7906ZM80.0235 28.1754C80.0235 28.1754 80.6658 28.698 81.0696 29.0747C81.0328 29.2084 80.9288 29.2631 80.7576 29.2631H79.6931V34.7439C79.6931 35.4062 79.5402 35.868 78.4513 35.9774C78.439 35.7161 78.3901 35.4913 78.2738 35.3515C78.1331 35.2118 77.8823 35.1024 77.4174 35.0416V34.8654C77.4174 34.8654 78.3595 34.9383 78.5614 34.9383C78.7632 34.9383 78.8122 34.8654 78.8122 34.7135V29.2631H77.4174L77.3195 28.9167H79.4301L80.0173 28.1693L80.0235 28.1754ZM77.711 26.632L77.6132 26.2796H79.2221L79.7849 25.5565C79.7849 25.5565 80.4272 26.0669 80.8248 26.4437C80.8004 26.5773 80.6841 26.632 80.5129 26.632H77.711Z" fill="white"/>
<path d="M93.0967 28.0056C92.595 29.9379 91.7386 31.5845 90.3805 32.9092C91.7386 33.9057 93.4087 34.5802 95.2561 35.0055L95.2194 35.1331C94.73 35.1817 94.363 35.4795 94.1672 35.9534C92.3931 35.4187 90.9005 34.6166 89.6953 33.5047C88.325 34.6045 86.5326 35.4369 84.2324 35.9777L84.1467 35.8015C86.2573 35.1027 87.9029 34.1427 89.1447 32.9699C87.9885 31.7 87.1688 30.0655 86.6977 28.0056H84.3241L84.2262 27.6532H93.2068L93.8858 26.7903C93.8858 26.7903 94.6505 27.3797 95.1032 27.8233C95.0665 27.9509 94.9503 28.0117 94.779 28.0117H93.0844L93.0967 28.0056ZM86.9547 28.0056C87.4808 29.8163 88.4473 31.2625 89.7076 32.3745C90.8271 31.1167 91.5306 29.6644 91.9037 28.0056H86.9547ZM88.4963 25.0586C91.6101 25.8181 90.8944 27.9266 89.8544 27.2521C89.677 26.5291 88.9857 25.6784 88.3862 25.1558L88.4963 25.0586Z" fill="white"/>
<path d="M98.3271 31.3232C99.4834 29.8527 100.701 27.4647 101.392 25.0342L102.872 25.5324C102.824 25.6722 102.671 25.7816 102.395 25.7573C102.04 26.6566 101.618 27.5012 101.141 28.2668L101.655 28.4551C101.606 28.5584 101.502 28.6435 101.288 28.6678V35.6313C101.264 35.7163 100.872 35.9411 100.499 35.9411H100.321V29.5003C99.7464 30.2476 99.1285 30.91 98.4862 31.4447L98.3333 31.3232H98.3271ZM109.033 34.6044C109.382 34.732 109.486 34.8413 109.486 35.0297C109.486 35.4915 108.935 35.6313 106.586 35.6313H105.014C103.821 35.6313 103.417 35.3821 103.417 34.495V25.2833L104.763 25.4231C104.751 25.575 104.647 25.7208 104.335 25.7573V29.239H107.473L108.06 28.4794C108.06 28.4794 108.715 29.0142 109.118 29.403C109.082 29.5306 108.978 29.5914 108.794 29.5914H104.335V34.2702C104.335 34.6226 104.475 34.7563 105.111 34.7563H106.635C107.302 34.7563 107.815 34.7563 108.042 34.7198C108.207 34.7077 108.293 34.6712 108.366 34.5557C108.488 34.3674 108.666 33.7294 108.843 32.9577H108.996L109.033 34.6044Z" fill="white"/>
<path d="M120.191 31.226C121.035 32.101 122.577 32.6965 123.837 32.9334L123.8 33.0853C123.421 33.298 123.195 33.6079 123.134 34.0211C121.812 33.4985 120.546 32.4473 119.806 31.226H116.802C115.946 32.5263 114.502 33.4864 112.734 34.1608L112.618 33.9725C113.872 33.2859 114.906 32.3015 115.56 31.226H112.771L112.667 30.8736H115.468V26.8328H113.26L113.162 26.4804H115.462V25.0464L116.857 25.1861C116.833 25.3502 116.723 25.4717 116.429 25.5203V26.4804H119.873V25.0464L121.28 25.1861C121.243 25.3502 121.139 25.4717 120.852 25.5203V26.4804H121.592L122.198 25.7209C122.198 25.7209 122.852 26.2556 123.268 26.6445C123.232 26.7721 123.115 26.8328 122.944 26.8328H120.846V30.8736H121.929L122.534 30.0654C122.534 30.0654 123.238 30.6366 123.654 31.0376C123.617 31.1652 123.501 31.226 123.342 31.226H120.173H120.191ZM121.929 34.5193C121.929 34.5193 122.681 35.0905 123.146 35.4915C123.109 35.6131 122.993 35.6678 122.809 35.6678H113.333L113.236 35.3336H117.634V33.6261H115.181L115.083 33.2737H117.634V31.8032L119.004 31.9308C118.98 32.0706 118.888 32.18 118.613 32.2286V33.2676H119.641L120.191 32.581C120.191 32.581 120.834 33.0793 121.219 33.4317C121.182 33.5654 121.078 33.62 120.907 33.62H118.619V35.3275H121.28L121.935 34.5133L121.929 34.5193ZM116.435 26.8328V27.9326H119.879V26.8328H116.435ZM116.435 29.3909H119.879V28.279H116.435V29.3909ZM119.879 30.8736V29.7373H116.435V30.8736H119.879Z" fill="white"/>
<path d="M133.405 25.3684C133.368 25.5203 133.215 25.581 132.903 25.6054C133.974 27.0758 136.041 28.1878 138.042 28.9109L138.017 29.0992C137.577 29.1964 137.253 29.5853 137.161 29.9378C135.289 28.9899 133.515 27.489 132.677 25.7573C131.521 27.4647 129.11 29.3787 126.847 30.3631L126.761 30.2112C128.762 29.0385 131.147 26.6444 131.771 24.9795L133.405 25.3684ZM136.519 34.4038C136.519 34.4038 137.283 34.9872 137.748 35.4125C137.712 35.5401 137.595 35.5887 137.424 35.5887H127.183L127.085 35.2545H131.82V31.6209H127.752L127.654 31.2685H131.814V29.4334H129.49L129.404 29.081H133.552L134.145 28.3822C134.145 28.3822 134.8 28.8683 135.228 29.2451C135.191 29.3787 135.075 29.4334 134.904 29.4334H132.793V31.2685H135.43L136.06 30.4968C136.06 30.4968 136.776 31.0315 137.216 31.4325C137.179 31.5601 137.063 31.6209 136.892 31.6209H132.793V35.2545H135.834L136.5 34.4038H136.519ZM129.08 32.0827C131.692 33.4681 130.664 35.4125 129.796 34.5436C129.771 33.7597 129.343 32.8058 128.939 32.1495L129.08 32.0766V32.0827ZM133.607 34.7563C133.962 34.0939 134.408 33.0063 134.751 32.0219L136.109 32.5566C136.06 32.6842 135.907 32.7815 135.656 32.7572C135.093 33.5288 134.378 34.3431 133.772 34.8656L133.607 34.7563Z" fill="white"/>
<path d="M147.634 25.3319C147.598 25.4717 147.457 25.5324 147.133 25.5689C148.228 26.6201 150.283 27.4647 152.143 27.9387L152.131 28.1149C151.715 28.2242 151.403 28.5888 151.329 28.9534C149.519 28.2668 147.775 27.0576 146.919 25.6965C146.105 26.6687 144.631 27.7199 143.059 28.5037L143.799 28.8015H149.531L149.947 28.3761L150.84 29.0506C150.791 29.1235 150.663 29.1904 150.491 29.2147V31.5601C150.479 31.6452 150.039 31.8336 149.739 31.8336H149.598V31.4447H143.646V31.633C143.646 31.7181 143.358 31.9672 142.918 31.9672H142.777V28.6374C142.263 28.8744 141.749 29.0871 141.254 29.2633L141.18 29.0992C143.126 28.1999 145.426 26.292 146.044 24.9795L147.628 25.3319H147.634ZM149.103 31.7728L150.094 32.508C150.02 32.5809 149.88 32.6599 149.69 32.6964V35.6069C149.678 35.7042 149.225 35.929 148.901 35.929H148.736V35.37H144.514V35.6556C144.514 35.7528 144.098 35.9654 143.701 35.9654H143.572V31.8336L144.588 32.2589H148.644L149.109 31.7728H149.103ZM143.652 29.1418V31.0983H146.203V29.1418H143.652ZM144.325 29.2876C146.233 30.0836 145.444 31.4204 144.802 30.8249C144.778 30.3266 144.466 29.7129 144.196 29.3666L144.325 29.2815V29.2876ZM144.514 32.5992V33.6321H148.736V32.5992H144.514ZM148.736 35.0297V33.9846H144.514V35.0297H148.736ZM147.708 27.1913C147.708 27.1913 148.283 27.6166 148.638 27.9508C148.601 28.0845 148.485 28.1392 148.338 28.1392H144.808L144.71 27.7928H147.2L147.702 27.1913H147.708ZM147.053 29.1418V31.0983H147.579C147.83 30.5758 148.118 29.8284 148.295 29.2997L149.427 29.6765C149.378 29.8041 149.225 29.8891 148.974 29.8648C148.699 30.2294 148.307 30.7155 147.904 31.0983H149.61V29.1418H147.059H147.053Z" fill="white"/>
<path d="M57.1378 46.9575V48.7257C57.1378 48.8594 57.199 48.9505 57.3274 49.0052C57.4559 49.0599 57.6455 49.1024 57.9025 49.1389C57.9698 49.151 58.0065 49.1996 58.0065 49.2847C58.0065 49.3272 58.0065 49.3758 57.9881 49.4305C57.8229 49.4184 57.6272 49.4062 57.4131 49.4001C57.199 49.3941 56.9665 49.388 56.7157 49.388C56.5627 49.388 56.3914 49.388 56.2018 49.4001C56.0122 49.4062 55.8286 49.4184 55.6635 49.4305C55.6512 49.3758 55.6451 49.3272 55.6451 49.2908C55.6451 49.2118 55.6757 49.1632 55.7307 49.151C55.9632 49.1024 56.1162 49.0599 56.1957 49.0173C56.2752 48.9748 56.3119 48.8958 56.3119 48.7804V44.3872C56.3119 44.2717 56.2691 44.1867 56.1773 44.1381C56.0856 44.0895 55.9265 44.0469 55.694 44.0165C55.639 44.0044 55.6084 43.9558 55.6084 43.8586C55.6084 43.816 55.6084 43.7735 55.6268 43.731C55.7919 43.7431 55.9632 43.7553 56.1467 43.7613C56.3303 43.7674 56.5016 43.7735 56.6667 43.7735H57.8902C58.5142 43.7735 58.9853 43.9193 59.2973 44.211C59.6093 44.5026 59.7683 44.8855 59.7683 45.3533C59.7683 45.5356 59.7255 45.724 59.6398 45.9123C59.5542 46.1007 59.4318 46.2709 59.2728 46.4288C59.1137 46.5807 58.918 46.7083 58.6794 46.8056C58.4408 46.9028 58.1778 46.9514 57.8841 46.9514H57.1255L57.1378 46.9575ZM57.5966 46.599C58.0003 46.599 58.3123 46.5078 58.5326 46.3316C58.7528 46.1554 58.8629 45.8516 58.8629 45.4262C58.8629 45.25 58.8446 45.0799 58.8017 44.928C58.7589 44.77 58.6916 44.6363 58.5937 44.5209C58.4959 44.4054 58.3674 44.3082 58.2022 44.2414C58.0371 44.1745 57.8352 44.1381 57.5966 44.1381H57.1378V46.605H57.5966V46.599Z" fill="white"/>
<path d="M63.5978 49.1569C63.659 49.1569 63.6957 49.2177 63.7018 49.3392C63.5489 49.4425 63.3593 49.4972 63.1268 49.4972C62.9983 49.4972 62.8882 49.479 62.7964 49.4425C62.7047 49.406 62.6251 49.3574 62.5579 49.2906C62.4906 49.2298 62.4416 49.1569 62.411 49.0718C62.3743 48.9928 62.3499 48.9078 62.3376 48.8227C62.1908 49.084 62.0195 49.2602 61.8238 49.3513C61.6219 49.4486 61.3955 49.4911 61.1325 49.4911C61.0162 49.4911 60.8939 49.479 60.7654 49.4607C60.637 49.4425 60.5146 49.4 60.3984 49.3331C60.2821 49.2724 60.1843 49.1812 60.1108 49.0658C60.0374 48.9503 60.0007 48.7984 60.0007 48.61C60.0007 48.3974 60.0497 48.2151 60.1537 48.0692C60.2577 47.9234 60.3861 47.8019 60.5452 47.7047C60.7042 47.6075 60.8755 47.5345 61.0652 47.4738C61.2548 47.4191 61.4322 47.3705 61.6096 47.3279C61.7075 47.3097 61.7993 47.2915 61.8849 47.2733C61.9706 47.255 62.044 47.2307 62.1052 47.2064C62.1847 47.1821 62.2397 47.1517 62.2581 47.1092C62.2764 47.0667 62.2887 46.9937 62.2887 46.8783C62.2887 46.6109 62.2336 46.3861 62.1296 46.2099C62.0256 46.0337 61.8421 45.9486 61.5729 45.9486C61.4751 45.9486 61.3894 45.9608 61.3221 45.9851C61.2548 46.0094 61.1936 46.0458 61.1508 46.0945C61.1019 46.1431 61.0652 46.2099 61.0285 46.2889C60.9918 46.3679 60.9612 46.4651 60.9245 46.5745C60.9061 46.6352 60.8694 46.6839 60.8082 46.7142C60.7471 46.7446 60.6431 46.775 60.5024 46.8175C60.4657 46.8297 60.4228 46.8418 60.3739 46.854C60.3188 46.8661 60.276 46.8722 60.2454 46.8722C60.1904 46.8722 60.1598 46.8115 60.1598 46.6899C60.1598 46.5684 60.2087 46.4347 60.3066 46.3132C60.4045 46.1856 60.533 46.0762 60.6859 45.979C60.8388 45.8818 61.004 45.8028 61.1875 45.742C61.3649 45.6813 61.5362 45.6509 61.7014 45.6509C61.9033 45.6509 62.0868 45.6691 62.252 45.7056C62.4172 45.742 62.5579 45.8028 62.6741 45.8939C62.7903 45.9851 62.8821 46.1127 62.9433 46.2646C63.0044 46.4226 63.035 46.6231 63.035 46.8661V48.3488C63.035 48.5493 63.0411 48.6951 63.0595 48.7863C63.0717 48.8774 63.0962 48.9442 63.1268 48.9989C63.1696 49.0779 63.2124 49.1326 63.2614 49.1569C63.3103 49.1812 63.3593 49.1934 63.4143 49.1934C63.4755 49.1934 63.5244 49.1934 63.5489 49.1751C63.5734 49.163 63.604 49.1569 63.6284 49.1569H63.5978ZM62.2826 47.4738L62.0012 47.5163C61.8482 47.5467 61.7014 47.5771 61.5607 47.6196C61.42 47.6621 61.2915 47.7168 61.1814 47.7897C61.0713 47.8627 60.9795 47.9538 60.9122 48.0632C60.8449 48.1725 60.8144 48.3062 60.8144 48.4703C60.8144 48.689 60.8694 48.8531 60.9857 48.9685C61.1019 49.084 61.2426 49.1387 61.4078 49.1387C61.5179 49.1387 61.628 49.1144 61.7381 49.0658C61.8482 49.0172 61.94 48.9503 62.0195 48.8592C62.099 48.768 62.1602 48.6647 62.2092 48.5432C62.2581 48.4217 62.2826 48.288 62.2826 48.1482V47.4738Z" fill="white"/>
<path d="M64.589 46.5443C64.589 46.3559 64.5645 46.2283 64.5094 46.1615C64.4544 46.0947 64.3259 46.0521 64.1302 46.0339C64.0567 46.0217 64.0139 45.9853 64.0139 45.9185C64.0139 45.882 64.0139 45.8455 64.0323 45.7969C64.1057 45.7969 64.2097 45.7969 64.332 45.7848C64.4544 45.7726 64.5645 45.7605 64.6501 45.7483C64.7786 45.7301 64.8887 45.7119 64.9866 45.6815C65.0845 45.6572 65.1518 45.645 65.2007 45.645C65.2802 45.645 65.3231 45.6876 65.3231 45.7726V47.9297C65.3231 48.0755 65.3292 48.2092 65.3475 48.3247C65.3659 48.4462 65.3965 48.5495 65.4454 48.6406C65.4944 48.7318 65.5616 48.7986 65.6473 48.8472C65.7329 48.8958 65.8431 48.9201 65.9776 48.9201C66.1245 48.9201 66.2652 48.8958 66.4059 48.8472C66.5466 48.7986 66.6689 48.7257 66.7729 48.6346C66.8769 48.5434 66.9626 48.4219 67.0299 48.2821C67.0971 48.1424 67.1277 47.9844 67.1277 47.8021V46.5443C67.1277 46.362 67.1033 46.2344 67.0482 46.1676C66.9931 46.1007 66.8647 46.0521 66.6628 46.04C66.5894 46.0278 66.5527 45.9914 66.5527 45.9245C66.5527 45.8881 66.5527 45.8516 66.571 45.803C66.6444 45.803 66.7484 45.803 66.8708 45.7908C66.9931 45.7787 67.1033 45.7665 67.195 45.7544C67.3235 45.7362 67.4336 45.7179 67.5315 45.6876C67.6233 45.6632 67.6967 45.6511 67.7395 45.6511C67.819 45.6511 67.8618 45.6936 67.8618 45.7787V48.5859C67.8618 48.6832 67.8618 48.7622 67.8802 48.8229C67.8924 48.8837 67.9169 48.9323 67.9475 48.9688C67.9842 49.0052 68.027 49.0356 68.0882 49.0538C68.1494 49.0721 68.2289 49.0842 68.3268 49.0903C68.4002 49.1024 68.4369 49.1389 68.4369 49.1997C68.4369 49.2361 68.4369 49.2726 68.4185 49.3212C68.3084 49.3212 68.1922 49.3273 68.0698 49.3455C67.9475 49.3637 67.8312 49.3819 67.7211 49.3941C67.611 49.4123 67.5131 49.4306 67.4275 49.4488C67.3418 49.467 67.2807 49.4731 67.2501 49.4731C67.1706 49.4731 67.1277 49.4306 67.1277 49.3455V48.6285C67.1277 48.6285 67.0604 48.7014 66.9809 48.7925C66.9014 48.8837 66.7913 48.9809 66.6628 49.0842C66.5343 49.1875 66.3814 49.2786 66.2101 49.3637C66.0388 49.4488 65.8553 49.4913 65.6595 49.4913C65.3047 49.4913 65.0417 49.388 64.8643 49.1875C64.6868 48.987 64.6012 48.7014 64.6012 48.3307V46.5382L64.589 46.5443Z" fill="white"/>
<path d="M70.9939 49.4305C70.841 49.4184 70.688 49.4062 70.5351 49.4001C70.376 49.3941 70.2231 49.388 70.064 49.388C69.905 49.388 69.7459 49.388 69.5808 49.4001C69.4156 49.4123 69.2627 49.4184 69.1158 49.4305C69.1036 49.3758 69.0975 49.3272 69.0975 49.2908C69.0975 49.2361 69.122 49.1996 69.177 49.1875C69.3055 49.1632 69.4217 49.1328 69.5318 49.0903C69.6419 49.0477 69.697 48.9809 69.697 48.8897V44.2474C69.697 44.0652 69.6603 43.9375 69.5869 43.8707C69.5135 43.8039 69.3789 43.7613 69.177 43.7431C69.1036 43.731 69.0669 43.6945 69.0669 43.6216C69.0669 43.5851 69.0669 43.5487 69.0852 43.5001C69.1587 43.5001 69.2627 43.5001 69.3972 43.4879C69.5318 43.4757 69.6542 43.4697 69.7643 43.4575C69.8989 43.4393 70.0212 43.415 70.1252 43.3907C70.2292 43.3664 70.3087 43.3481 70.3516 43.3481C70.4066 43.3481 70.4372 43.3603 70.4556 43.3846C70.4739 43.4089 70.48 43.4393 70.48 43.4818C70.48 43.579 70.4739 43.6945 70.4556 43.8221C70.4372 43.9497 70.4311 44.1016 70.4311 44.2778V48.8958C70.4311 48.987 70.4862 49.0538 70.5902 49.0963C70.6942 49.1389 70.8165 49.1753 70.9511 49.1935C71 49.2057 71.0184 49.2422 71.0184 49.2968C71.0184 49.3333 71.0184 49.3758 71 49.4366L70.9939 49.4305Z" fill="white"/>
<path d="M76.5916 49.4913C76.1022 49.4913 75.6801 49.4184 75.313 49.2665C74.946 49.1146 74.6462 48.914 74.4076 48.6467C74.1691 48.3854 73.9855 48.0755 73.8693 47.7231C73.7531 47.3707 73.6919 46.9879 73.6919 46.5807C73.6919 46.2405 73.7531 45.9002 73.8693 45.5538C73.9855 45.2075 74.1691 44.8976 74.4076 44.6181C74.6462 44.3386 74.9521 44.1138 75.313 43.9376C75.6801 43.7613 76.1022 43.6763 76.5916 43.6763C76.7812 43.6763 76.9586 43.6763 77.1177 43.6884C77.2768 43.7006 77.4297 43.7127 77.5765 43.731C77.7233 43.7492 77.864 43.7796 78.0047 43.8099C78.1454 43.8403 78.2862 43.8768 78.4391 43.9193C78.4391 44.0773 78.4636 44.2657 78.5003 44.4905C78.537 44.7153 78.5798 44.9401 78.641 45.171C78.592 45.1953 78.5492 45.2075 78.5003 45.2075C78.4513 45.2075 78.4146 45.2075 78.3718 45.1893C78.3351 45.1771 78.3106 45.1467 78.2984 45.092C78.1944 44.7092 78.0292 44.4419 77.8029 44.2778C77.5765 44.1198 77.2523 44.0348 76.8179 44.0348C76.457 44.0348 76.145 44.0895 75.8697 44.2049C75.5944 44.3204 75.362 44.4783 75.1723 44.691C74.9827 44.8976 74.842 45.1467 74.7441 45.4384C74.6462 45.7301 74.6034 46.0521 74.6034 46.4106C74.6034 46.8056 74.6646 47.1701 74.7869 47.5043C74.9093 47.8385 75.0745 48.1241 75.2763 48.3672C75.4843 48.6102 75.7229 48.7925 75.9982 48.9262C76.2735 49.0599 76.5671 49.1267 76.8791 49.1267C77.1299 49.1267 77.3379 49.1024 77.5092 49.0538C77.6805 49.0052 77.8212 48.9323 77.9375 48.8411C78.0537 48.75 78.1455 48.6345 78.225 48.5009C78.3045 48.3672 78.3779 48.2092 78.4452 48.0391C78.488 47.954 78.5553 47.9115 78.6532 47.9115C78.6838 47.9115 78.7144 47.9115 78.745 47.9236C78.7756 47.9358 78.8 47.9418 78.8184 47.954C78.7511 48.1545 78.6777 48.3793 78.6104 48.6163C78.5431 48.8533 78.4819 49.0963 78.4391 49.3394C78.1577 49.388 77.864 49.4184 77.5704 49.4488C77.2768 49.4731 76.9525 49.4852 76.5977 49.4852L76.5916 49.4913Z" fill="white"/>
<path d="M80.8615 46.4955C80.8615 46.4955 80.9288 46.4347 81.0084 46.3375C81.0879 46.2463 81.198 46.1491 81.3265 46.0458C81.4549 45.9425 81.6079 45.8514 81.773 45.7663C81.9382 45.6812 82.1279 45.6387 82.3297 45.6387C82.4704 45.6387 82.5989 45.6569 82.7274 45.6995C82.8558 45.742 82.966 45.8028 83.0638 45.9C83.1617 45.9911 83.2351 46.1126 83.2963 46.2524C83.3514 46.3982 83.382 46.5744 83.382 46.7871V48.8956C83.382 48.9807 83.437 49.0475 83.541 49.09C83.645 49.1326 83.7612 49.169 83.8958 49.1873C83.9448 49.1994 83.9631 49.2359 83.9631 49.2906C83.9631 49.327 83.957 49.3695 83.9448 49.4303C83.7918 49.4182 83.645 49.406 83.5043 49.3999C83.3636 49.3939 83.2045 49.3878 83.0271 49.3878C82.8742 49.3878 82.7213 49.3878 82.5683 49.3999C82.4154 49.406 82.2624 49.4182 82.1095 49.4303C82.0973 49.3756 82.0912 49.327 82.0912 49.2906C82.0912 49.2359 82.1156 49.1994 82.1707 49.1873C82.2257 49.1873 82.2747 49.169 82.3297 49.1508C82.3848 49.1326 82.4337 49.1143 82.4827 49.09C82.5316 49.0657 82.5683 49.0414 82.5989 49.011C82.6295 48.9807 82.6479 48.9381 82.6479 48.8956V47.2064C82.6479 47.0606 82.6417 46.9269 82.6234 46.8114C82.605 46.6899 82.5744 46.5866 82.5255 46.4955C82.4766 46.4043 82.4093 46.3375 82.3297 46.2889C82.2441 46.2402 82.1401 46.2159 82.0055 46.2159C81.8587 46.2159 81.718 46.2402 81.5834 46.2889C81.4427 46.3375 81.3203 46.4104 81.2163 46.5015C81.1123 46.5987 81.0267 46.7142 80.9594 46.854C80.8982 46.9937 80.8615 47.1517 80.8615 47.3279V48.8956C80.8615 48.9807 80.9105 49.0475 81.0084 49.09C81.1062 49.1326 81.2164 49.169 81.3387 49.1873C81.3876 49.1994 81.4182 49.2359 81.4182 49.2906C81.4182 49.327 81.4182 49.3695 81.3999 49.4303C81.2469 49.4182 81.1001 49.406 80.9533 49.3999C80.8065 49.3939 80.6535 49.3878 80.4884 49.3878C80.3232 49.3878 80.158 49.3878 80.0051 49.3999C79.8521 49.4121 79.7053 49.4182 79.5585 49.4303C79.5463 49.3756 79.5402 49.327 79.5402 49.2906C79.5402 49.2359 79.5646 49.1994 79.6074 49.1873C79.742 49.1629 79.8583 49.1326 79.9623 49.09C80.0663 49.0475 80.1213 48.9807 80.1213 48.8895V44.2472C80.1213 44.0649 80.0846 43.9373 80.0173 43.8766C79.95 43.8158 79.8093 43.7733 79.6013 43.749C79.5279 43.7368 79.4912 43.7004 79.4912 43.6274C79.4912 43.591 79.4912 43.5545 79.5096 43.5059C79.583 43.5059 79.687 43.5059 79.8216 43.4938C79.9561 43.4816 80.0785 43.4755 80.1886 43.4634C80.3232 43.4451 80.4455 43.4208 80.5495 43.3965C80.6535 43.3662 80.7331 43.354 80.7759 43.354C80.8309 43.354 80.8615 43.3662 80.8799 43.3905C80.8982 43.4148 80.9044 43.4451 80.9044 43.4877C80.9044 43.5849 80.8982 43.7004 80.8799 43.828C80.8615 43.9556 80.8554 44.1075 80.8554 44.2837V46.5076L80.8615 46.4955Z" fill="white"/>
<path d="M85.5415 49.3878C85.4436 49.3878 85.3396 49.3878 85.2356 49.3878C85.1316 49.3878 85.0399 49.3939 84.9542 49.4C84.8686 49.4 84.7891 49.4121 84.7279 49.4182C84.6667 49.4182 84.6239 49.4243 84.6055 49.4243C84.6055 49.4243 84.6055 49.4 84.5994 49.3635C84.5994 49.3271 84.5933 49.3028 84.5933 49.2845C84.5933 49.2298 84.6178 49.1934 84.6728 49.1812C84.8258 49.1509 84.942 49.1205 85.0399 49.0779C85.1316 49.0354 85.1806 48.9746 85.1806 48.8774V46.532C85.1806 46.3618 85.15 46.2342 85.0888 46.1613C85.0276 46.0884 84.8931 46.0398 84.6912 46.0216C84.6178 46.0094 84.5811 45.9669 84.5811 45.9C84.5811 45.8697 84.5811 45.8332 84.5994 45.7907C84.6728 45.7907 84.7829 45.7907 84.9175 45.7785C85.0521 45.7664 85.1683 45.7603 85.254 45.7481C85.3886 45.7238 85.5109 45.6995 85.6149 45.6752C85.7189 45.6509 85.7984 45.6388 85.8413 45.6388C85.9208 45.6388 85.9636 45.6813 85.9636 45.7664C85.9636 45.8453 85.9575 45.9426 85.9391 46.058C85.9208 46.1674 85.9147 46.3193 85.9147 46.5016V48.8835C85.9147 48.9746 85.9575 49.0415 86.0493 49.084C86.141 49.1265 86.2634 49.1569 86.4285 49.1873C86.4775 49.1995 86.4958 49.2359 86.4958 49.2906C86.4958 49.3088 86.4958 49.3331 86.4958 49.3696C86.4958 49.4061 86.4897 49.4243 86.4836 49.4304C86.4653 49.4304 86.4285 49.4304 86.3674 49.4243C86.3062 49.4182 86.2328 49.4121 86.1471 49.4061C86.0615 49.4 85.9636 49.3939 85.8657 49.3939C85.7617 49.3939 85.6639 49.3939 85.5599 49.3939L85.5415 49.3878ZM85.0338 44.2047C85.0338 44.065 85.0827 43.9495 85.1745 43.8462C85.2723 43.7429 85.3886 43.6943 85.5354 43.6943C85.6822 43.6943 85.7923 43.7429 85.8841 43.8462C85.9759 43.9495 86.0248 44.065 86.0248 44.2047C86.0248 44.3567 85.9759 44.4721 85.8841 44.5693C85.7923 44.6665 85.6761 44.7091 85.5354 44.7091C85.3947 44.7091 85.2723 44.6605 85.1745 44.5693C85.0766 44.4782 85.0338 44.3567 85.0338 44.2047Z" fill="white"/>
<path d="M90.7353 49.1569C90.7965 49.1569 90.8332 49.2177 90.8393 49.3392C90.6863 49.4425 90.4967 49.4972 90.2642 49.4972C90.1358 49.4972 90.0256 49.479 89.9339 49.4425C89.8421 49.406 89.7626 49.3574 89.6953 49.2906C89.628 49.2298 89.5791 49.1569 89.5485 49.0718C89.5118 48.9928 89.4873 48.9078 89.4751 48.8227C89.3283 49.084 89.157 49.2602 88.9612 49.3513C88.7593 49.4486 88.533 49.4911 88.2699 49.4911C88.1537 49.4911 88.0313 49.479 87.9029 49.4607C87.7744 49.4425 87.6521 49.4 87.5358 49.3331C87.4196 49.2724 87.3217 49.1812 87.2483 49.0658C87.1749 48.9503 87.1382 48.7984 87.1382 48.61C87.1382 48.3974 87.1871 48.2151 87.2911 48.0692C87.3951 47.9234 87.5236 47.8019 87.6826 47.7047C87.8417 47.6075 88.013 47.5345 88.2026 47.4738C88.3923 47.4191 88.5697 47.3705 88.7471 47.3279C88.845 47.3097 88.9367 47.2915 89.0224 47.2733C89.108 47.255 89.1814 47.2307 89.2426 47.2064C89.3221 47.1821 89.3772 47.1517 89.3955 47.1092C89.4139 47.0667 89.4261 46.9937 89.4261 46.8783C89.4261 46.6109 89.3711 46.3861 89.2671 46.2099C89.1631 46.0337 88.9796 45.9486 88.7104 45.9486C88.6125 45.9486 88.5269 45.9608 88.4596 45.9851C88.3923 46.0094 88.3311 46.0458 88.2883 46.0945C88.2393 46.1431 88.2026 46.2099 88.1659 46.2889C88.1292 46.3679 88.0986 46.4651 88.0619 46.5745C88.0436 46.6352 88.0069 46.6839 87.9457 46.7142C87.8845 46.7446 87.7805 46.775 87.6398 46.8175C87.6031 46.8297 87.5603 46.8418 87.5114 46.854C87.4563 46.8661 87.4135 46.8722 87.3829 46.8722C87.3278 46.8722 87.2972 46.8115 87.2972 46.6899C87.2972 46.5684 87.3462 46.4347 87.4441 46.3132C87.5419 46.1856 87.6704 46.0762 87.8233 45.979C87.9763 45.8818 88.1415 45.8028 88.325 45.742C88.5024 45.6813 88.6737 45.6509 88.8389 45.6509C89.0407 45.6509 89.2243 45.6691 89.3894 45.7056C89.5546 45.742 89.6953 45.8028 89.8115 45.8939C89.9278 45.9851 90.0195 46.1127 90.0807 46.2646C90.1419 46.4226 90.1725 46.6231 90.1725 46.8661V48.3488C90.1725 48.5493 90.1786 48.6951 90.1969 48.7863C90.2092 48.8774 90.2336 48.9442 90.2642 48.9989C90.3071 49.0779 90.3499 49.1326 90.3988 49.1569C90.4478 49.1812 90.4967 49.1934 90.5518 49.1934C90.6129 49.1934 90.6619 49.1934 90.6863 49.1751C90.7108 49.163 90.7414 49.1569 90.7659 49.1569H90.7353ZM89.4139 47.4738L89.1325 47.5163C88.9796 47.5467 88.8327 47.5771 88.692 47.6196C88.5513 47.6621 88.4229 47.7168 88.3127 47.7897C88.2026 47.8627 88.1109 47.9538 88.0436 48.0632C87.9763 48.1725 87.9457 48.3062 87.9457 48.4703C87.9457 48.689 88.0007 48.8531 88.117 48.9685C88.2332 49.084 88.3739 49.1387 88.5391 49.1387C88.6492 49.1387 88.7593 49.1144 88.8694 49.0658C88.9796 49.0172 89.0713 48.9503 89.1508 48.8592C89.2304 48.768 89.2915 48.6647 89.3405 48.5432C89.3894 48.4217 89.4139 48.288 89.4139 48.1482V47.4738Z" fill="white"/>
<path d="M95.146 48.8956C95.146 48.9807 95.2011 49.0475 95.3051 49.0901C95.4091 49.1326 95.5253 49.1691 95.6538 49.1873C95.7088 49.1994 95.7333 49.2359 95.7333 49.2906C95.7333 49.327 95.7272 49.3696 95.7149 49.4303C95.562 49.4182 95.4152 49.406 95.2745 49.4C95.1338 49.3939 94.9747 49.3878 94.8034 49.3878C94.6444 49.3878 94.4914 49.3878 94.3385 49.4C94.1856 49.406 94.0326 49.4182 93.8797 49.4303C93.8675 49.3757 93.8613 49.327 93.8613 49.2906C93.8613 49.2359 93.8858 49.1994 93.9409 49.1873C94.0632 49.163 94.1733 49.1326 94.2712 49.0901C94.3691 49.0475 94.418 48.9807 94.418 48.8956V47.2064C94.418 47.0606 94.4119 46.9269 94.3936 46.8115C94.3752 46.6899 94.3446 46.5866 94.2957 46.4955C94.2467 46.4043 94.1794 46.3375 94.0999 46.2889C94.0143 46.2403 93.9103 46.216 93.7757 46.216C93.6289 46.216 93.4882 46.2403 93.3536 46.2889C93.2129 46.3375 93.0905 46.4104 92.9865 46.5016C92.8825 46.5988 92.7969 46.7142 92.7296 46.854C92.6684 46.9937 92.6317 47.1517 92.6317 47.3279V48.8956C92.6317 48.9807 92.6807 49.0475 92.7846 49.0901C92.8886 49.1326 92.9926 49.1691 93.1089 49.1873C93.1578 49.1994 93.1884 49.2359 93.1884 49.2906C93.1884 49.327 93.1884 49.3696 93.1701 49.4303C93.0171 49.4182 92.8703 49.406 92.7235 49.4C92.5767 49.3939 92.4237 49.3878 92.2585 49.3878C92.0934 49.3878 91.9282 49.3878 91.7753 49.4C91.6223 49.4121 91.4755 49.4182 91.3287 49.4303C91.3164 49.3757 91.3103 49.327 91.3103 49.2906C91.3103 49.2359 91.3348 49.1994 91.3899 49.1873C91.5183 49.163 91.6346 49.1326 91.7386 49.0901C91.8426 49.0475 91.8976 48.9807 91.8976 48.8895V46.5441C91.8976 46.374 91.867 46.2464 91.8059 46.1734C91.7447 46.1005 91.6101 46.0519 91.4082 46.0337C91.3348 46.0215 91.2981 45.979 91.2981 45.9122C91.2981 45.8818 91.2981 45.8453 91.3164 45.8028C91.3899 45.8028 91.5 45.8028 91.6346 45.7906C91.7691 45.7785 91.8854 45.7724 91.971 45.7603C92.1056 45.7359 92.228 45.7116 92.3319 45.6873C92.4359 45.663 92.5155 45.6509 92.5583 45.6509C92.6378 45.6509 92.6807 45.6934 92.6807 45.7785C92.6807 45.8575 92.6745 45.9547 92.6562 46.0701C92.6378 46.1795 92.6317 46.3314 92.6317 46.5137C92.8825 46.2403 93.115 46.0215 93.3475 45.8757C93.5738 45.7238 93.8246 45.6509 94.0938 45.6509C94.4486 45.6509 94.7117 45.7542 94.883 45.9547C95.0604 46.1613 95.146 46.4408 95.146 46.8054V48.9017V48.8956Z" fill="white"/>
<path d="M96.8771 49.206C96.6263 49.0601 96.504 48.8535 96.504 48.5862C96.504 48.3006 96.6936 48.0636 97.079 47.8813C96.9138 47.7841 96.7854 47.6504 96.6936 47.4864C96.6019 47.3223 96.5529 47.1218 96.5529 46.8787C96.5529 46.7147 96.5896 46.5628 96.6691 46.4108C96.7487 46.2589 96.8527 46.1313 96.9873 46.0159C97.1218 45.9004 97.2748 45.8093 97.4461 45.7425C97.6174 45.6756 97.8009 45.6452 97.9905 45.6452C98.2781 45.6452 98.5105 45.6817 98.6879 45.7485C98.8592 45.8154 99.0122 45.9065 99.1406 46.0098L100.003 45.6392C100.064 45.6817 100.113 45.7303 100.144 45.7971C100.174 45.864 100.187 45.9247 100.187 45.9855C100.187 46.1131 100.144 46.1739 100.058 46.1739H99.7463C99.6361 46.1678 99.5016 46.1799 99.3486 46.2164C99.4893 46.3926 99.5566 46.6114 99.5566 46.8726C99.5566 47.0489 99.5138 47.2129 99.4343 47.3648C99.3547 47.5167 99.2446 47.6443 99.1039 47.7476C98.9632 47.857 98.798 47.936 98.6084 47.9968C98.4188 48.0575 98.2169 48.0879 98.0028 48.0879C97.8804 48.0879 97.7642 48.0818 97.6541 48.0636C97.544 48.0515 97.44 48.0271 97.3421 47.9907C97.1891 48.0575 97.0851 48.1304 97.0301 48.1973C96.975 48.2641 96.9444 48.331 96.9444 48.3978C96.9444 48.4464 96.9567 48.4889 96.9873 48.5315C97.0178 48.574 97.0668 48.6105 97.1463 48.6409C97.2258 48.6712 97.336 48.6955 97.4767 48.7198C97.6174 48.7381 97.8009 48.7502 98.0211 48.7502C98.2842 48.7502 98.5289 48.7685 98.7613 48.811C98.9938 48.8535 99.1957 48.9143 99.3731 49.0115C99.5505 49.1027 99.6912 49.2242 99.7891 49.3761C99.887 49.528 99.942 49.7042 99.942 49.923C99.942 50.1599 99.8931 50.3726 99.8013 50.561C99.7034 50.7493 99.575 50.9134 99.4037 51.0471C99.2324 51.1807 99.0244 51.284 98.7858 51.357C98.5472 51.4299 98.2842 51.4663 97.9967 51.4663C97.4522 51.4663 97.024 51.3691 96.7181 51.1747C96.4122 50.9802 96.2593 50.6643 96.2593 50.2328C96.2593 50.1052 96.2776 49.9898 96.3204 49.8804C96.3633 49.771 96.4122 49.6799 96.4734 49.5888C96.5346 49.4976 96.6019 49.4247 96.6814 49.3639C96.7609 49.3032 96.8343 49.2485 96.9016 49.206H96.8771ZM97.0851 49.3092C96.9444 49.4429 96.871 49.607 96.8527 49.8075C96.8527 49.8561 96.8466 49.8986 96.8466 49.9473V50.0931C96.8466 50.2146 96.8833 50.3361 96.9444 50.4577C97.0056 50.5792 97.0851 50.6825 97.1953 50.7797C97.3054 50.8709 97.44 50.9438 97.6051 51.0045C97.7642 51.0592 97.9538 51.0896 98.1679 51.0896C98.5656 51.0896 98.8592 51.0045 99.0427 50.8283C99.2263 50.6521 99.318 50.4334 99.318 50.1782C99.318 50.0688 99.2936 49.9655 99.2507 49.8743C99.2018 49.7832 99.1284 49.7042 99.0183 49.6374C98.9082 49.5705 98.7613 49.5219 98.5839 49.4794C98.4065 49.4429 98.1802 49.4247 97.9171 49.4247C97.7642 49.4247 97.6174 49.4186 97.4767 49.4004C97.336 49.3822 97.2075 49.3518 97.0974 49.3153L97.0851 49.3092ZM98.0639 47.7841C98.2781 47.7841 98.4493 47.7173 98.5778 47.5775C98.7063 47.4377 98.7675 47.2494 98.7675 47.0063C98.7675 46.8787 98.7552 46.7572 98.7308 46.6296C98.7063 46.502 98.6573 46.3926 98.5962 46.2954C98.535 46.1982 98.4493 46.1131 98.3392 46.0523C98.2291 45.9916 98.0945 45.9551 97.9355 45.9551C97.7336 45.9551 97.5745 46.022 97.4522 46.1556C97.336 46.2893 97.2748 46.4716 97.2748 46.7025C97.2748 46.8362 97.287 46.9638 97.3115 47.0975C97.336 47.2312 97.3788 47.3405 97.44 47.4499C97.5011 47.5532 97.5807 47.6383 97.6847 47.699C97.7886 47.7598 97.911 47.7962 98.0639 47.7962V47.7841Z" fill="white"/>
<path d="M58.9425 58.8428H57.0033L56.4466 60.2342C56.416 60.3011 56.4037 60.3619 56.4037 60.4044C56.4037 60.5259 56.5811 60.611 56.936 60.6657C56.9788 60.6657 57.0033 60.69 57.0155 60.7143C57.0277 60.7386 57.04 60.769 57.04 60.8054C57.04 60.8419 57.04 60.8844 57.0216 60.9452C56.8626 60.933 56.6974 60.9209 56.5261 60.9148C56.3548 60.9087 56.1835 60.9026 56.0122 60.9026C55.896 60.9026 55.7798 60.9026 55.6574 60.9087C55.5351 60.9087 55.4066 60.9269 55.2781 60.9452C55.2659 60.8966 55.2598 60.854 55.2598 60.8054C55.2598 60.7629 55.2659 60.7325 55.2842 60.7021C55.2965 60.6717 55.3271 60.6535 55.376 60.6535C55.5534 60.6231 55.688 60.5867 55.7798 60.5441C55.8715 60.5016 55.9327 60.4348 55.9755 60.3436L58.0677 55.3367C58.1105 55.2395 58.1656 55.1909 58.2329 55.1909C58.2573 55.1909 58.2879 55.1909 58.3369 55.2091L60.4413 60.3679C60.478 60.4469 60.5514 60.5138 60.6738 60.5563C60.7961 60.6049 60.9124 60.6353 61.0286 60.6535C61.0653 60.6657 61.0898 60.6778 61.1081 60.7021C61.1265 60.7204 61.1387 60.7568 61.1387 60.8115C61.1387 60.848 61.1387 60.8905 61.1203 60.9513C60.9368 60.9391 60.7533 60.9269 60.5759 60.9209C60.3985 60.9148 60.2272 60.9087 60.0742 60.9087C59.9213 60.9087 59.7256 60.9087 59.5176 60.9209C59.3096 60.9269 59.1199 60.9391 58.9547 60.9513C58.9425 60.8966 58.9364 60.848 58.9364 60.8115C58.9364 60.7629 58.9486 60.7264 58.967 60.7021C58.9853 60.6778 59.0037 60.6717 59.022 60.6717C59.175 60.6414 59.2912 60.611 59.3891 60.5745C59.4809 60.5381 59.5298 60.4834 59.5298 60.4044C59.5298 60.3679 59.5176 60.3254 59.4931 60.2768L58.9486 58.8549L58.9425 58.8428ZM58.8018 58.4904L57.9943 56.3758L57.1501 58.4904H58.8018Z" fill="white"/>
<path d="M64.1057 57.1597C64.2709 57.1597 64.3993 57.2022 64.4788 57.2812C64.5584 57.3602 64.6012 57.4513 64.6012 57.5486C64.6012 57.585 64.6012 57.6154 64.5828 57.6458C64.5706 57.6762 64.5461 57.7065 64.5033 57.7369C64.4605 57.7673 64.3993 57.8038 64.3198 57.8463C64.2403 57.8888 64.1302 57.9435 63.9956 58.0043C63.9405 57.9435 63.8793 57.8888 63.8059 57.8402C63.7325 57.7916 63.653 57.7734 63.5673 57.7734C63.4695 57.7734 63.3777 57.7977 63.2982 57.8524C63.2186 57.9071 63.1452 57.98 63.0902 58.0772C63.0351 58.1744 62.9862 58.2838 62.9556 58.4053C62.925 58.5268 62.9066 58.6544 62.9066 58.7881V60.2707C62.9066 60.3983 62.9739 60.4895 63.1085 60.5502C63.2431 60.611 63.4328 60.6596 63.6836 60.69C63.7386 60.7022 63.7692 60.7386 63.7692 60.7933C63.7692 60.8298 63.7692 60.8723 63.7509 60.9331C63.6897 60.9331 63.6102 60.9209 63.5123 60.9209C63.4144 60.9209 63.3165 60.9148 63.2125 60.9087C63.1085 60.9027 62.9984 60.8966 62.8883 60.8966C62.7782 60.8966 62.6742 60.8966 62.5824 60.8966C62.4234 60.8966 62.2582 60.8966 62.093 60.9087C61.9278 60.9209 61.7627 60.927 61.6159 60.9391C61.6036 60.8844 61.5975 60.8358 61.5975 60.7994C61.5975 60.7447 61.622 60.7082 61.677 60.6961C61.8116 60.6718 61.9278 60.6414 62.0318 60.5928C62.1358 60.5442 62.1848 60.4834 62.1848 60.3923V58.1987C62.1848 58.0772 62.1787 57.98 62.1603 57.8949C62.1481 57.8159 62.1236 57.7491 62.0869 57.7005C62.0502 57.6518 62.0013 57.6154 61.934 57.5911C61.8667 57.5668 61.781 57.5485 61.677 57.5425C61.6036 57.5303 61.5608 57.4939 61.5608 57.4331C61.5608 57.3966 61.5608 57.3602 61.5791 57.3116C61.6526 57.3116 61.7627 57.3116 61.8973 57.2994C62.0318 57.2873 62.142 57.2812 62.2337 57.269C62.3622 57.2447 62.4723 57.2204 62.5702 57.1961C62.6681 57.1718 62.7415 57.1597 62.7843 57.1597C62.8638 57.1597 62.9066 57.2022 62.9066 57.2873V57.8645C63.0902 57.664 63.2798 57.4939 63.4695 57.3602C63.6591 57.2265 63.8732 57.1597 64.1057 57.1597Z" fill="white"/>
<path d="M67.0667 60.386C67.0667 60.386 67.1217 60.3374 67.1401 60.3313C67.1584 60.3313 67.1768 60.3252 67.189 60.3252C67.2441 60.3252 67.2869 60.3617 67.3297 60.4346C67.1768 60.5987 67.0177 60.7384 66.8464 60.8417C66.6751 60.945 66.4855 60.9997 66.2897 60.9997C66.1735 60.9997 66.0634 60.9876 65.9594 60.9633C65.8554 60.939 65.7636 60.8903 65.6902 60.8114C65.6168 60.7384 65.5556 60.6351 65.5128 60.5075C65.47 60.3799 65.4455 60.2098 65.4455 60.0032V57.6213H64.9255V57.5241C64.9255 57.4815 64.9317 57.4451 64.95 57.4147C64.9684 57.3843 64.9928 57.36 65.0418 57.36C65.2008 57.36 65.3232 57.3175 65.4272 57.2385C65.5251 57.1595 65.6046 57.0562 65.6719 56.9286C65.7392 56.7888 65.8003 56.6612 65.8554 56.5397C65.9105 56.4182 65.9655 56.3574 66.0267 56.3574H66.1857V57.2567H67.2013C67.2013 57.3782 67.189 57.4694 67.1646 57.5301C67.1401 57.5909 67.0911 57.6213 67.0238 57.6213H66.1919V59.7602C66.1919 59.9424 66.198 60.0943 66.2163 60.2037C66.2347 60.3131 66.2592 60.4042 66.2959 60.465C66.3326 60.5258 66.3693 60.5622 66.4182 60.5805C66.4672 60.5987 66.5161 60.6048 66.5773 60.6048C66.6752 60.6048 66.7669 60.5805 66.8526 60.5379C66.9382 60.4954 67.0177 60.4468 67.0911 60.386H67.0667Z" fill="white"/>
<path d="M70.1681 58.211C70.1191 58.211 70.0886 58.1989 70.0702 58.1806C70.0518 58.1624 70.0396 58.1381 70.0335 58.1138C69.9907 57.8768 69.8989 57.7067 69.7521 57.6095C69.6053 57.5123 69.4217 57.4576 69.2015 57.4576C69.0363 57.4576 68.8834 57.5062 68.7549 57.5973C68.6265 57.6885 68.5592 57.8221 68.5592 57.9923C68.5592 58.1442 68.6203 58.2657 68.7366 58.369C68.8528 58.4723 69.073 58.5695 69.385 58.6668C69.5502 58.7214 69.7093 58.7761 69.85 58.8369C69.9907 58.8977 70.113 58.9766 70.217 59.0678C70.3149 59.1589 70.4005 59.2683 70.4556 59.3959C70.5107 59.5235 70.5412 59.6815 70.5412 59.8577C70.5412 60.0096 70.5107 60.1494 70.4617 60.2891C70.4067 60.4289 70.321 60.5504 70.2109 60.6537C70.1008 60.757 69.954 60.8421 69.7827 60.9028C69.6114 60.9636 69.4095 61.0001 69.1709 61.0001C68.9874 61.0001 68.7794 60.9757 68.5469 60.9332C68.3206 60.8907 68.1126 60.8178 67.9229 60.7145C67.9107 60.5626 67.8985 60.4107 67.8924 60.2466C67.8862 60.0825 67.8801 59.9185 67.8801 59.7483H67.9658C68.0208 59.7483 68.0759 59.7605 68.1126 59.7787C68.1554 59.7969 68.1738 59.8334 68.1799 59.8759C68.2044 60.119 68.2961 60.3134 68.4613 60.4593C68.6265 60.6051 68.8589 60.678 69.1526 60.678C69.3912 60.678 69.5747 60.6233 69.697 60.52C69.8255 60.4167 69.8867 60.2709 69.8867 60.0825C69.8867 59.8942 69.8194 59.7483 69.6787 59.645C69.538 59.5417 69.3361 59.4567 69.0608 59.3716C68.7182 59.2683 68.4491 59.1346 68.2594 58.9645C68.0637 58.8004 67.9658 58.5513 67.9658 58.2293C67.9658 58.0774 67.9964 57.9376 68.0514 57.8039C68.1065 57.6702 68.1921 57.5548 68.2961 57.4576C68.4001 57.3603 68.5286 57.2814 68.6815 57.2267C68.8345 57.172 68.9996 57.1416 69.1832 57.1416C69.4156 57.1416 69.6359 57.172 69.8377 57.2327C70.0396 57.2935 70.2048 57.3603 70.321 57.4272C70.321 57.4758 70.3333 57.5305 70.3394 57.5973C70.3455 57.6642 70.3516 57.731 70.3516 57.8039C70.3516 57.8768 70.3516 57.9497 70.3577 58.0227C70.3638 58.0956 70.3577 58.1563 70.3577 58.2171H70.1558L70.1681 58.211Z" fill="white"/>
<path d="M79.1182 60.8295C79.1182 60.8295 79.1182 60.8599 79.1182 60.8964C79.1182 60.9267 79.106 60.9571 79.0937 60.9875C78.9224 60.9693 78.7022 60.9632 78.4147 60.9632C78.3352 60.9632 78.2434 60.9571 78.1516 60.9389C78.0599 60.9267 77.9498 60.8903 77.8213 60.8356C77.6928 60.7809 77.5399 60.6958 77.3625 60.5743C77.1851 60.4589 76.9771 60.2948 76.7324 60.0882C76.4815 60.3616 76.2124 60.5865 75.9126 60.7505C75.6129 60.9146 75.2825 60.9997 74.9155 60.9997C74.6891 60.9997 74.4811 60.9753 74.2854 60.9207C74.0896 60.866 73.9244 60.7809 73.7837 60.6715C73.643 60.5561 73.539 60.4163 73.4595 60.234C73.38 60.0578 73.3433 59.8452 73.3433 59.6021C73.3433 59.274 73.4473 58.9762 73.6491 58.7028C73.851 58.4355 74.1385 58.1802 74.5117 57.9493C74.3588 57.7974 74.2364 57.6638 74.1447 57.5362C74.0529 57.4086 73.9795 57.287 73.9183 57.1716C73.8633 57.0561 73.8204 56.9407 73.8021 56.8252C73.7837 56.7098 73.7715 56.5943 73.7715 56.4728C73.7715 56.1568 73.8877 55.9016 74.1263 55.7072C74.3649 55.5128 74.6646 55.4155 75.0317 55.4155C75.2091 55.4155 75.3743 55.4459 75.5272 55.5006C75.6802 55.5553 75.8086 55.6404 75.9187 55.7376C76.0289 55.8409 76.1145 55.9563 76.1757 56.1022C76.2368 56.2419 76.2674 56.3999 76.2674 56.5639C76.2674 56.7645 76.2063 56.965 76.0778 57.1655C75.9554 57.366 75.7352 57.5726 75.4232 57.7792C75.7352 58.0952 76.0166 58.3808 76.2736 58.6299C76.5305 58.879 76.7568 59.0978 76.9587 59.2922C77.0688 59.1403 77.1728 58.9884 77.2646 58.8243C77.3564 58.6663 77.4359 58.5144 77.5032 58.3686C77.5705 58.2289 77.6194 58.1013 77.6622 57.9797C77.6989 57.8643 77.7173 57.7731 77.7173 57.7063C77.7173 57.6395 77.6928 57.5969 77.65 57.5665C77.6011 57.5362 77.5032 57.5058 77.3564 57.4754C77.2829 57.4754 77.2462 57.4329 77.2462 57.366C77.2462 57.3539 77.2462 57.3296 77.2462 57.2992C77.2462 57.2688 77.2585 57.2384 77.2707 57.2202C77.3808 57.2323 77.5032 57.2384 77.6378 57.2445C77.7723 57.2506 77.9069 57.2445 78.0476 57.2445C78.3168 57.2445 78.5432 57.2384 78.7328 57.2202C78.7328 57.2445 78.745 57.2688 78.7511 57.2992C78.7511 57.3296 78.7573 57.3539 78.7573 57.366C78.7573 57.4268 78.7206 57.4693 78.641 57.4875C78.5615 57.5058 78.4942 57.5179 78.4392 57.5362C78.3902 57.5483 78.3413 57.5726 78.3046 57.5969C78.2679 57.6212 78.2312 57.6577 78.1883 57.7063C78.1516 57.7549 78.1088 57.8217 78.0721 57.9068C77.9436 58.1742 77.809 58.4476 77.6622 58.721C77.5154 58.9945 77.3564 59.2558 77.1851 59.511C77.3992 59.7115 77.5888 59.8816 77.7479 60.0153C77.9069 60.149 78.0476 60.2583 78.17 60.3495C78.2862 60.4346 78.3902 60.5014 78.4697 60.55C78.5493 60.5986 78.6227 60.629 78.69 60.6472C78.7022 60.6472 78.7328 60.6594 78.7756 60.6594C78.8246 60.6594 78.8674 60.6715 78.9163 60.6837C78.9653 60.6958 79.0081 60.7141 79.0509 60.7323C79.0937 60.7566 79.1121 60.787 79.1121 60.8174L79.1182 60.8295ZM74.7136 58.1681C74.5117 58.3382 74.3527 58.5387 74.2425 58.7636C74.1324 58.9884 74.0774 59.2193 74.0774 59.4623C74.0774 59.6689 74.1141 59.8391 74.1875 59.9788C74.2609 60.1125 74.3465 60.2219 74.4566 60.3009C74.5606 60.3799 74.6769 60.4346 74.7992 60.4649C74.9216 60.4953 75.0317 60.5135 75.1296 60.5135C75.3743 60.5135 75.6006 60.4649 75.8147 60.3738C76.0289 60.2766 76.2491 60.1125 76.4877 59.8755C76.2552 59.675 75.9983 59.438 75.7046 59.1585C75.411 58.879 75.0868 58.557 74.7136 58.1742V58.1681ZM75.2152 57.5969C75.3804 57.445 75.5027 57.287 75.57 57.1169C75.6373 56.9468 75.674 56.7827 75.674 56.6369C75.674 56.3574 75.619 56.1447 75.5027 55.9989C75.3865 55.8469 75.2091 55.774 74.9705 55.774C74.8176 55.774 74.6952 55.8226 74.5974 55.9138C74.4995 56.011 74.4505 56.1386 74.4505 56.3087C74.4505 56.4789 74.4995 56.6672 74.6096 56.8678C74.7136 57.0683 74.9155 57.3113 75.2152 57.603V57.5969Z" fill="white"/>
<path d="M84.3975 60.9996C83.9081 60.9996 83.486 60.9267 83.1189 60.7748C82.7519 60.6229 82.4521 60.4223 82.2136 60.155C81.975 59.8937 81.7914 59.5838 81.6752 59.2314C81.559 58.879 81.4978 58.4962 81.4978 58.089C81.4978 57.7488 81.559 57.4085 81.6752 57.0622C81.7914 56.7158 81.975 56.4059 82.2136 56.1264C82.4521 55.8469 82.758 55.6221 83.1189 55.4459C83.486 55.2696 83.9081 55.1846 84.3975 55.1846C84.5872 55.1846 84.7646 55.1846 84.9236 55.1967C85.0827 55.2089 85.2356 55.221 85.3824 55.2393C85.5293 55.2575 85.67 55.2879 85.8107 55.3182C85.9514 55.3486 86.0921 55.3851 86.245 55.4276C86.245 55.5856 86.2695 55.774 86.3062 55.9988C86.3429 56.2236 86.3857 56.4484 86.4469 56.6793C86.3979 56.7036 86.3551 56.7158 86.3062 56.7158C86.2572 56.7158 86.2205 56.7158 86.1777 56.6976C86.141 56.6854 86.1165 56.655 86.1043 56.6003C86.0003 56.2175 85.8351 55.9502 85.6088 55.7861C85.3824 55.6281 85.0582 55.5431 84.6239 55.5431C84.2629 55.5431 83.9509 55.5978 83.6756 55.7132C83.4003 55.8287 83.1679 55.9866 82.9782 56.1993C82.7886 56.4059 82.6479 56.655 82.55 56.9467C82.4521 57.2384 82.4093 57.5604 82.4093 57.9189C82.4093 58.3139 82.4705 58.6784 82.5928 59.0126C82.7152 59.3468 82.8804 59.6324 83.0822 59.8755C83.2902 60.1185 83.5288 60.3008 83.8041 60.4345C84.0794 60.5682 84.373 60.635 84.685 60.635C84.9358 60.635 85.1438 60.6107 85.3151 60.5621C85.4864 60.5135 85.6271 60.4406 85.7434 60.3494C85.8596 60.2583 85.9514 60.1428 86.0309 60.0092C86.1104 59.8755 86.1838 59.7175 86.2511 59.5474C86.2939 59.4623 86.3612 59.4198 86.4591 59.4198C86.4897 59.4198 86.5203 59.4198 86.5509 59.4319C86.5815 59.4441 86.6059 59.4501 86.6243 59.4623C86.557 59.6628 86.4836 59.8876 86.4163 60.1246C86.349 60.3616 86.2878 60.6046 86.245 60.8477C85.9636 60.8963 85.6699 60.9267 85.3763 60.9571C85.0827 60.9814 84.7584 60.9935 84.4036 60.9935L84.3975 60.9996Z" fill="white"/>
<path d="M87.652 58.0468C87.652 57.8584 87.6275 57.7308 87.5724 57.6639C87.5174 57.5971 87.3889 57.5546 87.1931 57.5363C87.1197 57.5242 87.0769 57.4877 87.0769 57.4209C87.0769 57.3844 87.0769 57.348 87.0953 57.2994C87.1687 57.2994 87.2727 57.2994 87.395 57.2872C87.5174 57.2751 87.6275 57.2629 87.7131 57.2508C87.8416 57.2325 87.9517 57.2143 88.0496 57.1839C88.1475 57.1596 88.2148 57.1475 88.2637 57.1475C88.3432 57.1475 88.3861 57.19 88.3861 57.2751V59.4321C88.3861 59.578 88.3922 59.7117 88.4105 59.8271C88.4289 59.9486 88.4595 60.0519 88.5084 60.1431C88.5573 60.2342 88.6246 60.3011 88.7103 60.3497C88.7959 60.3983 88.906 60.4226 89.0406 60.4226C89.1875 60.4226 89.3282 60.3983 89.4689 60.3497C89.6096 60.3011 89.7319 60.2281 89.8359 60.137C89.9399 60.0459 90.0256 59.9243 90.0928 59.7846C90.1601 59.6448 90.1907 59.4868 90.1907 59.3045V58.0468C90.1907 57.8645 90.1663 57.7369 90.1112 57.67C90.0561 57.6032 89.9277 57.5546 89.7258 57.5424C89.6524 57.5303 89.6157 57.4938 89.6157 57.427C89.6157 57.3905 89.6157 57.3541 89.634 57.3054C89.7074 57.3054 89.8114 57.3054 89.9338 57.2933C90.0561 57.2811 90.1662 57.269 90.258 57.2568C90.3865 57.2386 90.4966 57.2204 90.5945 57.19C90.6862 57.1657 90.7596 57.1535 90.8025 57.1535C90.882 57.1535 90.9248 57.1961 90.9248 57.2811V60.0884C90.9248 60.1856 90.9248 60.2646 90.9432 60.3254C90.9554 60.3861 90.9799 60.4347 91.0105 60.4712C91.0472 60.5077 91.09 60.538 91.1512 60.5563C91.2123 60.5745 91.2919 60.5866 91.3898 60.5927C91.4632 60.6049 91.4999 60.6413 91.4999 60.7021C91.4999 60.7386 91.4999 60.775 91.4815 60.8236C91.3714 60.8236 91.2552 60.8297 91.1328 60.8479C91.0105 60.8662 90.8942 60.8844 90.7841 60.8965C90.674 60.9148 90.5761 60.933 90.4905 60.9512C90.4048 60.9695 90.3437 60.9755 90.3131 60.9755C90.2335 60.9755 90.1907 60.933 90.1907 60.8479V60.1309C90.1907 60.1309 90.1234 60.2038 90.0439 60.295C89.9644 60.3861 89.8543 60.4833 89.7258 60.5866C89.5973 60.6899 89.4444 60.7811 89.2731 60.8662C89.1018 60.9512 88.9183 60.9938 88.7225 60.9938C88.3677 60.9938 88.1046 60.8905 87.9272 60.6899C87.7498 60.4894 87.6642 60.2038 87.6642 59.8332V58.0407L87.652 58.0468Z" fill="white"/>
<path d="M94.051 60.9388C93.8981 60.9267 93.7452 60.9145 93.5922 60.9084C93.4332 60.9024 93.2802 60.8963 93.1212 60.8963C92.9621 60.8963 92.8031 60.8963 92.6379 60.9084C92.4727 60.9206 92.3198 60.9267 92.173 60.9388C92.1607 60.8841 92.1546 60.8355 92.1546 60.7991C92.1546 60.7444 92.1791 60.7079 92.2341 60.6958C92.3626 60.6715 92.4788 60.6411 92.589 60.5986C92.6991 60.556 92.7541 60.4892 92.7541 60.398V55.7557C92.7541 55.5735 92.7174 55.4458 92.644 55.379C92.5706 55.3122 92.436 55.2696 92.2341 55.2514C92.1607 55.2393 92.124 55.2028 92.124 55.1299C92.124 55.0934 92.124 55.057 92.1424 55.0084C92.2158 55.0084 92.3198 55.0084 92.4544 54.9962C92.589 54.984 92.7113 54.978 92.8214 54.9658C92.956 54.9476 93.0784 54.9233 93.1824 54.899C93.2864 54.8747 93.3659 54.8564 93.4087 54.8564C93.4638 54.8564 93.4944 54.8686 93.5127 54.8929C93.5311 54.9172 93.5372 54.9476 93.5372 54.9901C93.5372 55.0873 93.5311 55.2028 93.5127 55.3304C93.4944 55.458 93.4882 55.6099 93.4882 55.7861V60.4041C93.4882 60.4953 93.5433 60.5621 93.6473 60.6046C93.7513 60.6472 93.8736 60.6836 94.0082 60.7019C94.0572 60.714 94.0755 60.7505 94.0755 60.8051C94.0755 60.8416 94.0755 60.8841 94.0572 60.9449L94.051 60.9388Z" fill="white"/>
<path d="M96.7549 60.386C96.7549 60.386 96.81 60.3374 96.8283 60.3313C96.8467 60.3313 96.865 60.3252 96.8772 60.3252C96.9323 60.3252 96.9751 60.3617 97.0179 60.4346C96.865 60.5987 96.706 60.7384 96.5347 60.8417C96.3634 60.945 96.1737 60.9997 95.978 60.9997C95.8617 60.9997 95.7516 60.9876 95.6476 60.9633C95.5436 60.939 95.4519 60.8903 95.3785 60.8114C95.305 60.7384 95.2439 60.6351 95.201 60.5075C95.1582 60.3799 95.1338 60.2098 95.1338 60.0032V57.6213H94.6138V57.5241C94.6138 57.4815 94.6199 57.4451 94.6382 57.4147C94.6566 57.3843 94.6811 57.36 94.73 57.36C94.8891 57.36 95.0114 57.3175 95.1154 57.2385C95.2133 57.1595 95.2928 57.0562 95.3601 56.9286C95.4274 56.7888 95.4886 56.6612 95.5436 56.5397C95.5987 56.4182 95.6537 56.3574 95.7149 56.3574H95.874V57.2567H96.8895C96.8895 57.3782 96.8773 57.4694 96.8528 57.5301C96.8283 57.5909 96.7794 57.6213 96.7121 57.6213H95.8801V59.7602C95.8801 59.9424 95.8862 60.0943 95.9046 60.2037C95.9229 60.3131 95.9474 60.4042 95.9841 60.465C96.0208 60.5258 96.0575 60.5622 96.1064 60.5805C96.1554 60.5987 96.2043 60.6048 96.2655 60.6048C96.3634 60.6048 96.4551 60.5805 96.5408 60.5379C96.6264 60.4954 96.706 60.4468 96.7794 60.386H96.7549Z" fill="white"/>
<path d="M97.9784 58.0468C97.9784 57.8584 97.9539 57.7308 97.8988 57.6639C97.8438 57.5971 97.7153 57.5546 97.5196 57.5363C97.4461 57.5242 97.4033 57.4877 97.4033 57.4209C97.4033 57.3844 97.4033 57.348 97.4217 57.2994C97.4951 57.2994 97.5991 57.2994 97.7214 57.2872C97.8438 57.2751 97.9539 57.2629 98.0395 57.2508C98.168 57.2325 98.2781 57.2143 98.376 57.1839C98.4739 57.1596 98.5412 57.1475 98.5901 57.1475C98.6696 57.1475 98.7125 57.19 98.7125 57.2751V59.4321C98.7125 59.578 98.7186 59.7117 98.7369 59.8271C98.7553 59.9486 98.7859 60.0519 98.8348 60.1431C98.8838 60.2342 98.9511 60.3011 99.0367 60.3497C99.1223 60.3983 99.2325 60.4226 99.367 60.4226C99.5139 60.4226 99.6546 60.3983 99.7953 60.3497C99.936 60.3011 100.058 60.2281 100.162 60.137C100.266 60.0459 100.352 59.9243 100.419 59.7846C100.487 59.6448 100.517 59.4868 100.517 59.3045V58.0468C100.517 57.8645 100.493 57.7369 100.438 57.67C100.383 57.6032 100.254 57.5546 100.052 57.5424C99.9788 57.5303 99.9421 57.4938 99.9421 57.427C99.9421 57.3905 99.9421 57.3541 99.9604 57.3054C100.034 57.3054 100.138 57.3054 100.26 57.2933C100.383 57.2811 100.493 57.269 100.584 57.2568C100.713 57.2386 100.823 57.2204 100.921 57.19C101.013 57.1657 101.086 57.1535 101.129 57.1535C101.208 57.1535 101.251 57.1961 101.251 57.2811V60.0884C101.251 60.1856 101.251 60.2646 101.27 60.3254C101.282 60.3861 101.306 60.4347 101.337 60.4712C101.374 60.5077 101.416 60.538 101.478 60.5563C101.539 60.5745 101.618 60.5866 101.716 60.5927C101.79 60.6049 101.826 60.6413 101.826 60.7021C101.826 60.7386 101.826 60.775 101.808 60.8236C101.698 60.8236 101.582 60.8297 101.459 60.8479C101.337 60.8662 101.221 60.8844 101.111 60.8965C101 60.9148 100.903 60.933 100.817 60.9512C100.731 60.9695 100.67 60.9755 100.639 60.9755C100.56 60.9755 100.517 60.933 100.517 60.8479V60.1309C100.517 60.1309 100.45 60.2038 100.37 60.295C100.291 60.3861 100.181 60.4833 100.052 60.5866C99.9237 60.6899 99.7708 60.7811 99.5995 60.8662C99.4282 60.9512 99.2447 60.9938 99.0489 60.9938C98.6941 60.9938 98.4311 60.8905 98.2537 60.6899C98.0762 60.4894 97.9906 60.2038 97.9906 59.8332V58.0407L97.9784 58.0468Z" fill="white"/>
<path d="M104.977 57.1597C105.142 57.1597 105.27 57.2022 105.35 57.2812C105.429 57.3602 105.472 57.4513 105.472 57.5486C105.472 57.585 105.472 57.6154 105.454 57.6458C105.442 57.6762 105.417 57.7065 105.374 57.7369C105.332 57.7673 105.27 57.8038 105.191 57.8463C105.111 57.8888 105.001 57.9435 104.867 58.0043C104.812 57.9435 104.75 57.8888 104.677 57.8402C104.604 57.7916 104.524 57.7734 104.438 57.7734C104.341 57.7734 104.249 57.7977 104.169 57.8524C104.09 57.9071 104.016 57.98 103.961 58.0772C103.906 58.1744 103.857 58.2838 103.827 58.4053C103.796 58.5268 103.778 58.6544 103.778 58.7881V60.2707C103.778 60.3983 103.845 60.4895 103.98 60.5502C104.114 60.611 104.304 60.6596 104.555 60.69C104.61 60.7022 104.64 60.7386 104.64 60.7933C104.64 60.8298 104.64 60.8723 104.622 60.9331C104.561 60.9331 104.481 60.9209 104.383 60.9209C104.285 60.9209 104.188 60.9148 104.084 60.9087C103.98 60.9027 103.87 60.8966 103.759 60.8966C103.649 60.8966 103.545 60.8966 103.454 60.8966C103.294 60.8966 103.129 60.8966 102.964 60.9087C102.799 60.9209 102.634 60.927 102.487 60.9391C102.475 60.8844 102.469 60.8358 102.469 60.7994C102.469 60.7447 102.493 60.7082 102.548 60.6961C102.683 60.6718 102.799 60.6414 102.903 60.5928C103.007 60.5442 103.056 60.4834 103.056 60.3923V58.1987C103.056 58.0772 103.05 57.98 103.031 57.8949C103.019 57.8159 102.995 57.7491 102.958 57.7005C102.921 57.6518 102.872 57.6154 102.805 57.5911C102.738 57.5668 102.652 57.5485 102.548 57.5425C102.475 57.5303 102.432 57.4939 102.432 57.4331C102.432 57.3966 102.432 57.3602 102.45 57.3116C102.524 57.3116 102.634 57.3116 102.768 57.2994C102.903 57.2873 103.013 57.2812 103.105 57.269C103.233 57.2447 103.343 57.2204 103.441 57.1961C103.539 57.1718 103.613 57.1597 103.655 57.1597C103.735 57.1597 103.778 57.2022 103.778 57.2873V57.8645C103.961 57.664 104.151 57.4939 104.341 57.3602C104.53 57.2265 104.744 57.1597 104.977 57.1597Z" fill="white"/>
<path d="M109.351 60.6657C109.412 60.6657 109.449 60.7265 109.455 60.848C109.302 60.9513 109.112 61.006 108.88 61.006C108.751 61.006 108.641 60.9877 108.549 60.9513C108.458 60.9148 108.378 60.8662 108.311 60.7994C108.243 60.7386 108.195 60.6657 108.164 60.5806C108.127 60.5016 108.103 60.4166 108.091 60.3315C107.944 60.5928 107.772 60.769 107.577 60.8601C107.375 60.9574 107.148 60.9999 106.885 60.9999C106.769 60.9999 106.647 60.9877 106.518 60.9695C106.39 60.9513 106.268 60.9087 106.151 60.8419C106.035 60.7811 105.937 60.69 105.864 60.5746C105.79 60.4591 105.754 60.3072 105.754 60.1188C105.754 59.9062 105.803 59.7239 105.907 59.578C106.011 59.4322 106.139 59.3107 106.298 59.2135C106.457 59.1162 106.628 59.0433 106.818 58.9826C107.008 58.9279 107.185 58.8793 107.363 58.8367C107.46 58.8185 107.552 58.8003 107.638 58.782C107.724 58.7638 107.797 58.7395 107.858 58.7152C107.938 58.6909 107.993 58.6605 108.011 58.618C108.029 58.5754 108.042 58.5025 108.042 58.3871C108.042 58.1197 107.987 57.8949 107.883 57.7187C107.779 57.5425 107.595 57.4574 107.326 57.4574C107.228 57.4574 107.142 57.4696 107.075 57.4939C107.008 57.5182 106.947 57.5546 106.904 57.6032C106.855 57.6519 106.818 57.7187 106.781 57.7977C106.745 57.8767 106.714 57.9739 106.677 58.0833C106.659 58.144 106.622 58.1926 106.561 58.223C106.5 58.2534 106.396 58.2838 106.255 58.3263C106.219 58.3385 106.176 58.3506 106.127 58.3628C106.072 58.3749 106.029 58.381 105.998 58.381C105.943 58.381 105.913 58.3202 105.913 58.1987C105.913 58.0772 105.962 57.9435 106.06 57.822C106.157 57.6944 106.286 57.585 106.439 57.4878C106.592 57.3906 106.757 57.3116 106.94 57.2508C107.118 57.1901 107.289 57.1597 107.454 57.1597C107.656 57.1597 107.84 57.1779 108.005 57.2144C108.17 57.2508 108.311 57.3116 108.427 57.4027C108.543 57.4939 108.635 57.6215 108.696 57.7734C108.757 57.9314 108.788 58.1319 108.788 58.3749V59.8575C108.788 60.0581 108.794 60.2039 108.812 60.295C108.825 60.3862 108.849 60.453 108.88 60.5077C108.923 60.5867 108.965 60.6414 109.014 60.6657C109.063 60.69 109.112 60.7022 109.167 60.7022C109.228 60.7022 109.277 60.7022 109.302 60.6839C109.326 60.6718 109.357 60.6657 109.381 60.6657H109.351ZM108.036 58.9826L107.754 59.0251C107.601 59.0555 107.454 59.0859 107.314 59.1284C107.173 59.1709 107.044 59.2256 106.934 59.2985C106.824 59.3714 106.732 59.4626 106.665 59.572C106.598 59.6813 106.567 59.815 106.567 59.9791C106.567 60.1978 106.622 60.3619 106.739 60.4773C106.855 60.5928 106.996 60.6475 107.161 60.6475C107.271 60.6475 107.381 60.6232 107.491 60.5746C107.601 60.5259 107.693 60.4591 107.772 60.368C107.852 60.2768 107.913 60.1735 107.962 60.052C108.011 59.9305 108.036 59.7968 108.036 59.657V58.9826Z" fill="white"/>
<path d="M111.853 60.9388C111.7 60.9267 111.547 60.9145 111.394 60.9084C111.235 60.9024 111.082 60.8963 110.923 60.8963C110.764 60.8963 110.605 60.8963 110.44 60.9084C110.275 60.9206 110.122 60.9267 109.975 60.9388C109.963 60.8841 109.957 60.8355 109.957 60.7991C109.957 60.7444 109.981 60.7079 110.036 60.6958C110.165 60.6715 110.281 60.6411 110.391 60.5986C110.501 60.556 110.556 60.4892 110.556 60.398V55.7557C110.556 55.5735 110.519 55.4458 110.446 55.379C110.373 55.3122 110.238 55.2696 110.036 55.2514C109.963 55.2393 109.926 55.2028 109.926 55.1299C109.926 55.0934 109.926 55.057 109.944 55.0084C110.018 55.0084 110.122 55.0084 110.256 54.9962C110.391 54.984 110.513 54.978 110.623 54.9658C110.758 54.9476 110.88 54.9233 110.984 54.899C111.088 54.8747 111.168 54.8564 111.211 54.8564C111.266 54.8564 111.296 54.8686 111.315 54.8929C111.333 54.9172 111.339 54.9476 111.339 54.9901C111.339 55.0873 111.333 55.2028 111.315 55.3304C111.296 55.458 111.29 55.6099 111.29 55.7861V60.4041C111.29 60.4953 111.345 60.5621 111.449 60.6046C111.553 60.6472 111.676 60.6836 111.81 60.7019C111.859 60.714 111.878 60.7505 111.878 60.8051C111.878 60.8416 111.878 60.8841 111.859 60.9449L111.853 60.9388Z" fill="white"/>
<path d="M115.26 55.9016C115.26 55.7861 115.218 55.7071 115.126 55.6585C115.034 55.6099 114.875 55.5674 114.643 55.5309C114.6 55.5188 114.575 55.5005 114.569 55.4823C114.563 55.4641 114.557 55.4276 114.557 55.3851C114.557 55.3486 114.557 55.3061 114.575 55.2453C114.765 55.2575 114.955 55.2696 115.132 55.2757C115.309 55.2818 115.481 55.2879 115.646 55.2879H117.365C117.591 55.2879 117.805 55.2818 118.007 55.2636C118.209 55.2453 118.35 55.2393 118.423 55.2393C118.49 55.2393 118.539 55.2879 118.57 55.379C118.601 55.4762 118.625 55.5856 118.637 55.7193C118.656 55.853 118.674 55.9927 118.698 56.1385C118.723 56.2844 118.76 56.412 118.821 56.5214C118.802 56.5457 118.778 56.5578 118.754 56.57C118.729 56.5821 118.698 56.5821 118.668 56.5821C118.601 56.5821 118.552 56.5578 118.527 56.5031C118.46 56.3451 118.386 56.2175 118.325 56.1082C118.264 55.9988 118.185 55.9076 118.099 55.8408C118.013 55.774 117.915 55.7193 117.799 55.6889C117.683 55.6585 117.536 55.6403 117.365 55.6403H116.08V57.9371H117.377C117.493 57.9371 117.573 57.8824 117.622 57.767C117.671 57.6576 117.707 57.5239 117.738 57.366C117.756 57.293 117.805 57.2566 117.897 57.2566C117.946 57.2566 117.989 57.2566 118.038 57.2748C118.026 57.4024 118.013 57.5483 118.007 57.7123C118.001 57.8764 117.995 58.0161 117.995 58.1377C117.995 58.2349 117.995 58.3564 118.001 58.4901C118.007 58.6238 118.019 58.7878 118.038 58.964C117.989 58.9762 117.946 58.9823 117.909 58.9823C117.86 58.9823 117.824 58.9762 117.799 58.958C117.769 58.9458 117.75 58.9154 117.744 58.8668C117.72 58.7149 117.683 58.5873 117.634 58.4719C117.579 58.3564 117.499 58.3017 117.383 58.3017H116.086V60.3069C116.086 60.4223 116.16 60.5013 116.306 60.5439C116.453 60.5864 116.637 60.6229 116.851 60.6532C116.918 60.6532 116.955 60.7079 116.955 60.7991C116.955 60.8416 116.955 60.8902 116.937 60.9449C116.814 60.9449 116.686 60.9327 116.545 60.9267C116.429 60.9267 116.294 60.9145 116.141 60.9084C115.988 60.9084 115.829 60.9024 115.658 60.9024C115.499 60.9024 115.328 60.9024 115.126 60.9145C114.93 60.9206 114.747 60.9328 114.575 60.9449C114.563 60.8902 114.557 60.8416 114.557 60.8051C114.557 60.7201 114.587 60.6715 114.643 60.6654C114.832 60.6168 114.985 60.5743 115.095 60.5317C115.205 60.4892 115.26 60.4102 115.26 60.2947V55.9016Z" fill="white"/>
<path d="M119.041 59.0736C119.041 58.8063 119.09 58.5572 119.194 58.3202C119.298 58.0832 119.433 57.8827 119.604 57.7065C119.775 57.5303 119.983 57.3966 120.216 57.2994C120.448 57.2021 120.705 57.1475 120.974 57.1475C121.243 57.1475 121.519 57.1961 121.757 57.2872C121.996 57.3784 122.198 57.512 122.369 57.6822C122.54 57.8523 122.675 58.0528 122.767 58.2898C122.864 58.5268 122.907 58.7881 122.907 59.0736C122.907 59.3592 122.858 59.5962 122.754 59.8271C122.65 60.058 122.516 60.2646 122.344 60.4347C122.173 60.6049 121.965 60.7446 121.733 60.8418C121.5 60.9391 121.243 60.9938 120.974 60.9938C120.705 60.9938 120.43 60.9451 120.191 60.854C119.953 60.7568 119.751 60.6292 119.579 60.459C119.408 60.2889 119.273 60.0884 119.182 59.8575C119.09 59.6266 119.041 59.3592 119.041 59.0736ZM119.855 58.7881C119.855 59.0007 119.879 59.2195 119.922 59.4443C119.971 59.6691 120.038 59.8696 120.136 60.0519C120.234 60.2342 120.356 60.3801 120.503 60.5016C120.656 60.617 120.833 60.6778 121.048 60.6778C121.378 60.6778 121.635 60.5623 121.818 60.3314C122.002 60.1005 122.094 59.8028 122.094 59.4443C122.094 59.2316 122.069 59.0068 122.026 58.7759C121.984 58.545 121.91 58.3323 121.818 58.1379C121.72 57.9435 121.598 57.7855 121.445 57.6579C121.292 57.5303 121.103 57.4695 120.876 57.4695C120.57 57.4695 120.32 57.5728 120.136 57.7855C119.946 57.9981 119.855 58.3323 119.855 58.7881Z" fill="white"/>
<path d="M124.125 58.0468C124.125 57.8584 124.1 57.7308 124.045 57.6639C123.99 57.5971 123.862 57.5546 123.666 57.5363C123.592 57.5242 123.55 57.4877 123.55 57.4209C123.55 57.3844 123.55 57.348 123.568 57.2994C123.641 57.2994 123.745 57.2994 123.868 57.2872C123.99 57.2751 124.1 57.2629 124.186 57.2508C124.314 57.2325 124.424 57.2143 124.522 57.1839C124.62 57.1596 124.687 57.1475 124.736 57.1475C124.816 57.1475 124.859 57.19 124.859 57.2751V59.4321C124.859 59.578 124.865 59.7117 124.883 59.8271C124.902 59.9486 124.932 60.0519 124.981 60.1431C125.03 60.2342 125.097 60.3011 125.183 60.3497C125.269 60.3983 125.379 60.4226 125.513 60.4226C125.66 60.4226 125.801 60.3983 125.942 60.3497C126.082 60.3011 126.205 60.2281 126.309 60.137C126.413 60.0459 126.498 59.9243 126.565 59.7846C126.633 59.6448 126.663 59.4868 126.663 59.3045V58.0468C126.663 57.8645 126.639 57.7369 126.584 57.67C126.529 57.6032 126.4 57.5546 126.198 57.5424C126.125 57.5303 126.088 57.4938 126.088 57.427C126.088 57.3905 126.088 57.3541 126.107 57.3054C126.18 57.3054 126.284 57.3054 126.406 57.2933C126.529 57.2811 126.639 57.269 126.731 57.2568C126.859 57.2386 126.969 57.2204 127.067 57.19C127.159 57.1657 127.232 57.1535 127.275 57.1535C127.355 57.1535 127.397 57.1961 127.397 57.2811V60.0884C127.397 60.1856 127.397 60.2646 127.416 60.3254C127.428 60.3861 127.453 60.4347 127.483 60.4712C127.52 60.5077 127.563 60.538 127.624 60.5563C127.685 60.5745 127.765 60.5866 127.862 60.5927C127.936 60.6049 127.973 60.6413 127.973 60.7021C127.973 60.7386 127.973 60.775 127.954 60.8236C127.844 60.8236 127.728 60.8297 127.605 60.8479C127.483 60.8662 127.367 60.8844 127.257 60.8965C127.147 60.9148 127.049 60.933 126.963 60.9512C126.877 60.9695 126.816 60.9755 126.786 60.9755C126.706 60.9755 126.663 60.933 126.663 60.8479V60.1309C126.663 60.1309 126.596 60.2038 126.517 60.295C126.437 60.3861 126.327 60.4833 126.198 60.5866C126.07 60.6899 125.917 60.7811 125.746 60.8662C125.574 60.9512 125.391 60.9938 125.195 60.9938C124.84 60.9938 124.577 60.8905 124.4 60.6899C124.222 60.4894 124.137 60.2038 124.137 59.8332V58.0407L124.125 58.0468Z" fill="white"/>
<path d="M132.438 60.4044C132.438 60.4895 132.493 60.5563 132.597 60.5989C132.701 60.6414 132.818 60.6778 132.946 60.6961C133.001 60.7082 133.026 60.7447 133.026 60.7994C133.026 60.8358 133.019 60.8784 133.007 60.9391C132.854 60.927 132.707 60.9148 132.567 60.9087C132.426 60.9027 132.267 60.8966 132.096 60.8966C131.937 60.8966 131.784 60.8966 131.631 60.9087C131.478 60.9148 131.325 60.927 131.172 60.9391C131.16 60.8844 131.154 60.8358 131.154 60.7994C131.154 60.7447 131.178 60.7082 131.233 60.6961C131.355 60.6718 131.466 60.6414 131.563 60.5989C131.661 60.5563 131.71 60.4895 131.71 60.4044V58.7152C131.71 58.5694 131.704 58.4357 131.686 58.3202C131.667 58.1987 131.637 58.0954 131.588 58.0043C131.539 57.9131 131.472 57.8463 131.392 57.7977C131.307 57.7491 131.203 57.7248 131.068 57.7248C130.921 57.7248 130.78 57.7491 130.646 57.7977C130.505 57.8463 130.383 57.9192 130.279 58.0104C130.175 58.1076 130.089 58.223 130.022 58.3628C129.961 58.5025 129.924 58.6605 129.924 58.8367V60.4044C129.924 60.4895 129.973 60.5563 130.077 60.5989C130.181 60.6414 130.285 60.6778 130.401 60.6961C130.45 60.7082 130.481 60.7447 130.481 60.7994C130.481 60.8358 130.481 60.8784 130.462 60.9391C130.309 60.927 130.163 60.9148 130.016 60.9087C129.869 60.9027 129.716 60.8966 129.551 60.8966C129.386 60.8966 129.22 60.8966 129.067 60.9087C128.915 60.9209 128.768 60.927 128.621 60.9391C128.609 60.8844 128.603 60.8358 128.603 60.7994C128.603 60.7447 128.627 60.7082 128.682 60.6961C128.811 60.6718 128.927 60.6414 129.031 60.5989C129.135 60.5563 129.19 60.4895 129.19 60.3983V58.0529C129.19 57.8827 129.159 57.7551 129.098 57.6822C129.037 57.6093 128.902 57.5607 128.7 57.5425C128.627 57.5303 128.59 57.4878 128.59 57.4209C128.59 57.3906 128.59 57.3541 128.609 57.3116C128.682 57.3116 128.792 57.3116 128.927 57.2994C129.061 57.2873 129.178 57.2812 129.263 57.269C129.398 57.2447 129.52 57.2204 129.624 57.1961C129.728 57.1718 129.808 57.1597 129.851 57.1597C129.93 57.1597 129.973 57.2022 129.973 57.2873C129.973 57.3663 129.967 57.4635 129.948 57.5789C129.93 57.6883 129.924 57.8402 129.924 58.0225C130.175 57.7491 130.407 57.5303 130.64 57.3845C130.866 57.2326 131.117 57.1597 131.386 57.1597C131.741 57.1597 132.004 57.263 132.175 57.4635C132.353 57.6701 132.438 57.9496 132.438 58.3142V60.4105V60.4044Z" fill="white"/>
<path d="M137.283 60.1246C137.283 60.1914 137.283 60.2522 137.302 60.3008C137.314 60.3494 137.339 60.392 137.369 60.4284C137.4 60.4649 137.449 60.4892 137.51 60.5074C137.571 60.5256 137.651 60.5439 137.748 60.556C137.822 60.5682 137.859 60.6046 137.859 60.6654C137.859 60.7018 137.859 60.7383 137.84 60.7869C137.767 60.7869 137.663 60.7869 137.54 60.7991C137.418 60.8112 137.308 60.8173 137.222 60.8295C137.094 60.8538 136.978 60.8781 136.886 60.9024C136.794 60.9267 136.715 60.9388 136.672 60.9388C136.592 60.9388 136.549 60.8963 136.549 60.8112V60.155C136.47 60.2644 136.384 60.3677 136.305 60.4709C136.225 60.5742 136.127 60.6593 136.023 60.7383C135.919 60.8173 135.791 60.8781 135.656 60.9267C135.516 60.9753 135.35 60.9935 135.155 60.9935C134.959 60.9935 134.769 60.951 134.592 60.872C134.414 60.793 134.255 60.6715 134.115 60.5135C133.974 60.3555 133.864 60.1611 133.778 59.9302C133.692 59.6993 133.65 59.438 133.65 59.1463C133.65 58.8303 133.711 58.5448 133.833 58.2956C133.956 58.0465 134.102 57.8338 134.286 57.6637C134.463 57.4936 134.659 57.366 134.873 57.2748C135.087 57.1837 135.277 57.1411 135.46 57.1411C135.681 57.1411 135.876 57.1654 136.048 57.208C136.219 57.2505 136.39 57.3052 136.555 57.3781V55.7497C136.555 55.5795 136.525 55.458 136.464 55.3851C136.403 55.3122 136.274 55.2696 136.066 55.2514C135.993 55.2393 135.95 55.2028 135.95 55.1299C135.95 55.0934 135.95 55.057 135.968 55.0084C136.042 55.0084 136.152 55.0084 136.286 54.9962C136.421 54.984 136.531 54.978 136.623 54.9658C136.757 54.9476 136.88 54.9233 136.984 54.899C137.088 54.8747 137.167 54.8564 137.21 54.8564C137.29 54.8564 137.332 54.899 137.332 54.984C137.332 55.0813 137.326 55.1967 137.308 55.3182C137.29 55.4458 137.283 55.5978 137.283 55.7861V60.1246ZM136.555 57.9432C136.409 57.7913 136.25 57.6758 136.078 57.5908C135.907 57.5057 135.705 57.4632 135.485 57.4632C135.148 57.4632 134.898 57.6029 134.726 57.8764C134.555 58.1498 134.469 58.5083 134.469 58.9397C134.469 59.1585 134.494 59.3651 134.543 59.5656C134.592 59.7661 134.665 59.9362 134.757 60.0881C134.855 60.24 134.971 60.3555 135.106 60.4406C135.24 60.5256 135.393 60.5682 135.564 60.5682C135.681 60.5682 135.797 60.5317 135.913 60.4649C136.029 60.398 136.133 60.3069 136.231 60.2036C136.329 60.1003 136.403 59.9788 136.464 59.839C136.525 59.6993 136.555 59.5717 136.555 59.438V57.9432Z" fill="white"/>
<path d="M142.153 60.6657C142.214 60.6657 142.251 60.7265 142.257 60.848C142.104 60.9513 141.914 61.006 141.682 61.006C141.553 61.006 141.443 60.9877 141.352 60.9513C141.26 60.9148 141.18 60.8662 141.113 60.7994C141.046 60.7386 140.997 60.6657 140.966 60.5806C140.929 60.5016 140.905 60.4166 140.893 60.3315C140.746 60.5928 140.575 60.769 140.379 60.8601C140.177 60.9574 139.951 60.9999 139.688 60.9999C139.571 60.9999 139.449 60.9877 139.321 60.9695C139.192 60.9513 139.07 60.9087 138.954 60.8419C138.837 60.7811 138.739 60.69 138.666 60.5746C138.593 60.4591 138.556 60.3072 138.556 60.1188C138.556 59.9062 138.605 59.7239 138.709 59.578C138.813 59.4322 138.941 59.3107 139.1 59.2135C139.259 59.1162 139.431 59.0433 139.62 58.9826C139.81 58.9279 139.987 58.8793 140.165 58.8367C140.263 58.8185 140.354 58.8003 140.44 58.782C140.526 58.7638 140.599 58.7395 140.66 58.7152C140.74 58.6909 140.795 58.6605 140.813 58.618C140.832 58.5754 140.844 58.5025 140.844 58.3871C140.844 58.1197 140.789 57.8949 140.685 57.7187C140.581 57.5425 140.397 57.4574 140.128 57.4574C140.03 57.4574 139.945 57.4696 139.877 57.4939C139.81 57.5182 139.749 57.5546 139.706 57.6032C139.657 57.6519 139.62 57.7187 139.584 57.7977C139.547 57.8767 139.516 57.9739 139.48 58.0833C139.461 58.144 139.425 58.1926 139.363 58.223C139.302 58.2534 139.198 58.2838 139.058 58.3263C139.021 58.3385 138.978 58.3506 138.929 58.3628C138.874 58.3749 138.831 58.381 138.801 58.381C138.746 58.381 138.715 58.3202 138.715 58.1987C138.715 58.0772 138.764 57.9435 138.862 57.822C138.96 57.6944 139.088 57.585 139.241 57.4878C139.394 57.3906 139.559 57.3116 139.743 57.2508C139.92 57.1901 140.091 57.1597 140.257 57.1597C140.458 57.1597 140.642 57.1779 140.807 57.2144C140.972 57.2508 141.113 57.3116 141.229 57.4027C141.345 57.4939 141.437 57.6215 141.498 57.7734C141.56 57.9314 141.59 58.1319 141.59 58.3749V59.8575C141.59 60.0581 141.596 60.2039 141.615 60.295C141.627 60.3862 141.651 60.453 141.682 60.5077C141.725 60.5867 141.768 60.6414 141.817 60.6657C141.865 60.69 141.914 60.7022 141.969 60.7022C142.031 60.7022 142.08 60.7022 142.104 60.6839C142.129 60.6718 142.159 60.6657 142.184 60.6657H142.153ZM140.832 58.9826L140.55 59.0251C140.397 59.0555 140.25 59.0859 140.11 59.1284C139.969 59.1709 139.841 59.2256 139.73 59.2985C139.62 59.3714 139.529 59.4626 139.461 59.572C139.394 59.6813 139.363 59.815 139.363 59.9791C139.363 60.1978 139.418 60.3619 139.535 60.4773C139.651 60.5928 139.792 60.6475 139.957 60.6475C140.067 60.6475 140.177 60.6232 140.287 60.5746C140.397 60.5259 140.489 60.4591 140.569 60.368C140.648 60.2768 140.709 60.1735 140.758 60.052C140.807 59.9305 140.832 59.7968 140.832 59.657V58.9826Z" fill="white"/>
<path d="M144.747 60.386C144.747 60.386 144.802 60.3374 144.82 60.3313C144.839 60.3313 144.857 60.3252 144.869 60.3252C144.924 60.3252 144.967 60.3617 145.01 60.4346C144.857 60.5987 144.698 60.7384 144.527 60.8417C144.355 60.945 144.166 60.9997 143.97 60.9997C143.854 60.9997 143.744 60.9876 143.64 60.9633C143.536 60.939 143.444 60.8903 143.37 60.8114C143.297 60.7384 143.236 60.6351 143.193 60.5075C143.15 60.3799 143.126 60.2098 143.126 60.0032V57.6213H142.606V57.5241C142.606 57.4815 142.612 57.4451 142.63 57.4147C142.649 57.3843 142.673 57.36 142.722 57.36C142.881 57.36 143.003 57.3175 143.107 57.2385C143.205 57.1595 143.285 57.0562 143.352 56.9286C143.419 56.7888 143.481 56.6612 143.536 56.5397C143.591 56.4182 143.646 56.3574 143.707 56.3574H143.866V57.2567H144.881C144.881 57.3782 144.869 57.4694 144.845 57.5301C144.82 57.5909 144.771 57.6213 144.704 57.6213H143.872V59.7602C143.872 59.9424 143.878 60.0943 143.897 60.2037C143.915 60.3131 143.939 60.4042 143.976 60.465C144.013 60.5258 144.049 60.5622 144.098 60.5805C144.147 60.5987 144.196 60.6048 144.257 60.6048C144.355 60.6048 144.447 60.5805 144.533 60.5379C144.618 60.4954 144.698 60.4468 144.771 60.386H144.747Z" fill="white"/>
<path d="M146.429 60.8964C146.331 60.8964 146.227 60.8964 146.123 60.8964C146.019 60.8964 145.928 60.9024 145.842 60.9085C145.756 60.9085 145.677 60.9207 145.616 60.9267C145.554 60.9267 145.512 60.9328 145.493 60.9328C145.493 60.9328 145.493 60.9085 145.487 60.872C145.487 60.8356 145.481 60.8113 145.481 60.7931C145.481 60.7384 145.505 60.7019 145.561 60.6898C145.713 60.6594 145.83 60.629 145.928 60.5865C146.019 60.5439 146.068 60.4832 146.068 60.3859V58.0405C146.068 57.8704 146.038 57.7428 145.977 57.6698C145.915 57.5969 145.781 57.5483 145.579 57.5301C145.505 57.5179 145.469 57.4754 145.469 57.4086C145.469 57.3782 145.469 57.3417 145.487 57.2992C145.561 57.2992 145.671 57.2992 145.805 57.287C145.94 57.2749 146.056 57.2688 146.142 57.2566C146.276 57.2323 146.399 57.208 146.503 57.1837C146.607 57.1594 146.686 57.1473 146.729 57.1473C146.808 57.1473 146.851 57.1898 146.851 57.2749C146.851 57.3539 146.845 57.4511 146.827 57.5665C146.808 57.6759 146.802 57.8278 146.802 58.0101V60.392C146.802 60.4832 146.845 60.55 146.937 60.5925C147.029 60.6351 147.151 60.6655 147.316 60.6958C147.365 60.708 147.384 60.7444 147.384 60.7991C147.384 60.8174 147.384 60.8417 147.384 60.8781C147.384 60.9146 147.377 60.9328 147.371 60.9389C147.353 60.9389 147.316 60.9389 147.255 60.9328C147.194 60.9267 147.12 60.9207 147.035 60.9146C146.949 60.9085 146.851 60.9024 146.753 60.9024C146.649 60.9024 146.552 60.9024 146.448 60.9024L146.429 60.8964ZM145.921 55.7072C145.921 55.5674 145.97 55.452 146.062 55.3487C146.16 55.2454 146.276 55.1968 146.423 55.1968C146.57 55.1968 146.68 55.2454 146.772 55.3487C146.864 55.452 146.912 55.5674 146.912 55.7072C146.912 55.8591 146.864 55.9745 146.772 56.0718C146.68 56.169 146.564 56.2115 146.423 56.2115C146.282 56.2115 146.16 56.1629 146.062 56.0718C145.964 55.9806 145.921 55.8591 145.921 55.7072Z" fill="white"/>
<path d="M148.001 59.0736C148.001 58.8063 148.05 58.5572 148.154 58.3202C148.258 58.0832 148.393 57.8827 148.564 57.7065C148.735 57.5303 148.943 57.3966 149.176 57.2994C149.408 57.2021 149.665 57.1475 149.934 57.1475C150.204 57.1475 150.479 57.1961 150.717 57.2872C150.956 57.3784 151.158 57.512 151.329 57.6822C151.5 57.8523 151.635 58.0528 151.727 58.2898C151.825 58.5268 151.867 58.7881 151.867 59.0736C151.867 59.3592 151.819 59.5962 151.715 59.8271C151.611 60.058 151.476 60.2646 151.305 60.4347C151.133 60.6049 150.925 60.7446 150.693 60.8418C150.46 60.9391 150.204 60.9938 149.934 60.9938C149.665 60.9938 149.39 60.9451 149.151 60.854C148.913 60.7568 148.711 60.6292 148.54 60.459C148.368 60.2889 148.234 60.0884 148.142 59.8575C148.05 59.6266 148.001 59.3592 148.001 59.0736ZM148.815 58.7881C148.815 59.0007 148.839 59.2195 148.882 59.4443C148.931 59.6691 148.998 59.8696 149.096 60.0519C149.194 60.2342 149.316 60.3801 149.463 60.5016C149.616 60.617 149.794 60.6778 150.008 60.6778C150.338 60.6778 150.595 60.5623 150.779 60.3314C150.962 60.1005 151.054 59.8028 151.054 59.4443C151.054 59.2316 151.029 59.0068 150.987 58.7759C150.944 58.545 150.87 58.3323 150.779 58.1379C150.681 57.9435 150.558 57.7855 150.405 57.6579C150.252 57.5303 150.063 57.4695 149.836 57.4695C149.531 57.4695 149.28 57.5728 149.096 57.7855C148.907 57.9981 148.815 58.3323 148.815 58.7881Z" fill="white"/>
<path d="M156.419 60.4044C156.419 60.4895 156.474 60.5563 156.578 60.5989C156.682 60.6414 156.798 60.6778 156.927 60.6961C156.982 60.7082 157.006 60.7447 157.006 60.7994C157.006 60.8358 157 60.8784 156.988 60.9391C156.835 60.927 156.688 60.9148 156.547 60.9087C156.407 60.9027 156.248 60.8966 156.076 60.8966C155.917 60.8966 155.764 60.8966 155.611 60.9087C155.459 60.9148 155.306 60.927 155.153 60.9391C155.14 60.8844 155.134 60.8358 155.134 60.7994C155.134 60.7447 155.159 60.7082 155.214 60.6961C155.336 60.6718 155.446 60.6414 155.544 60.5989C155.642 60.5563 155.691 60.4895 155.691 60.4044V58.7152C155.691 58.5694 155.685 58.4357 155.667 58.3202C155.648 58.1987 155.618 58.0954 155.569 58.0043C155.52 57.9131 155.452 57.8463 155.373 57.7977C155.287 57.7491 155.183 57.7248 155.049 57.7248C154.902 57.7248 154.761 57.7491 154.627 57.7977C154.486 57.8463 154.363 57.9192 154.259 58.0104C154.155 58.1076 154.07 58.223 154.003 58.3628C153.941 58.5025 153.905 58.6605 153.905 58.8367V60.4044C153.905 60.4895 153.954 60.5563 154.058 60.5989C154.162 60.6414 154.266 60.6778 154.382 60.6961C154.431 60.7082 154.461 60.7447 154.461 60.7994C154.461 60.8358 154.461 60.8784 154.443 60.9391C154.29 60.927 154.143 60.9148 153.996 60.9087C153.85 60.9027 153.697 60.8966 153.531 60.8966C153.366 60.8966 153.201 60.8966 153.048 60.9087C152.895 60.9209 152.748 60.927 152.602 60.9391C152.589 60.8844 152.583 60.8358 152.583 60.7994C152.583 60.7447 152.608 60.7082 152.663 60.6961C152.791 60.6718 152.908 60.6414 153.012 60.5989C153.116 60.5563 153.171 60.4895 153.171 60.3983V58.0529C153.171 57.8827 153.14 57.7551 153.079 57.6822C153.018 57.6093 152.883 57.5607 152.681 57.5425C152.608 57.5303 152.571 57.4878 152.571 57.4209C152.571 57.3906 152.571 57.3541 152.589 57.3116C152.663 57.3116 152.773 57.3116 152.908 57.2994C153.042 57.2873 153.158 57.2812 153.244 57.269C153.379 57.2447 153.501 57.2204 153.605 57.1961C153.709 57.1718 153.788 57.1597 153.831 57.1597C153.911 57.1597 153.954 57.2022 153.954 57.2873C153.954 57.3663 153.947 57.4635 153.929 57.5789C153.911 57.6883 153.905 57.8402 153.905 58.0225C154.155 57.7491 154.388 57.5303 154.62 57.3845C154.847 57.2326 155.098 57.1597 155.367 57.1597C155.722 57.1597 155.985 57.263 156.156 57.4635C156.333 57.6701 156.419 57.9496 156.419 58.3142V60.4105V60.4044Z" fill="white"/>
<path d="M31.1565 0L25.302 2.71611L5.25493 24.7123L0.00610352 48.0271V60.9757H38.6321C38.6321 60.9757 33.5668 20.9329 31.1565 0ZM1.24796 48.8717L6.29491 25.5509L25.9872 3.95567L30.037 1.85935L37.1272 59.6875H14.9451L1.24796 48.8717Z" fill="white"/>
</g>
<defs>
<clipPath id="clip0_1_973">
<rect width="157" height="61" fill="white"/>
</clipPath>
</defs>
</svg>
