<svg width="99" height="24" viewBox="0 0 99 24" fill="none" xmlns="http://www.w3.org/2000/svg">
<path d="M27.0428 6.75483H36.2992V7.67497H27.0428V6.75483ZM28.787 12.3993H29.8582V13.086H28.787V12.3993ZM31.0805 9.51526H32.0006V17.9339H31.0805V9.51526ZM34.9396 10.7238H35.8734V17.0824C35.8734 17.3204 35.8414 17.5036 35.7773 17.6317C35.7132 17.7599 35.5988 17.8606 35.434 17.9339C35.2692 17.998 35.0449 18.0346 34.761 18.0437C34.4772 18.0621 34.1247 18.0712 33.7036 18.0712C33.6852 17.9522 33.6486 17.8194 33.5937 17.6729C33.5479 17.5264 33.4976 17.3937 33.4426 17.2747C33.7356 17.2838 34.0011 17.2884 34.2392 17.2884C34.4864 17.2884 34.6466 17.2884 34.7198 17.2884C34.8663 17.2884 34.9396 17.2197 34.9396 17.0824V10.7238ZM27.3587 10.7238H35.3928V11.6027H28.2514V18.0712H27.3587V10.7238ZM24.2687 6.34283L24.8592 5.61495C25.1247 5.72482 25.3948 5.86215 25.6695 6.02696C25.9441 6.1826 26.2051 6.3474 26.4523 6.52136C26.6995 6.68616 26.9009 6.84639 27.0566 7.00203L26.4385 7.82604C26.2921 7.67039 26.0952 7.50559 25.848 7.33164C25.61 7.14852 25.349 6.96999 25.0652 6.79603C24.7905 6.62207 24.525 6.47101 24.2687 6.34283ZM23.6781 10.0509L24.2412 9.29552C24.5159 9.39623 24.7997 9.51984 25.0927 9.66633C25.3857 9.81282 25.6557 9.96388 25.9029 10.1195C26.1593 10.2752 26.3653 10.4262 26.521 10.5727L25.9304 11.4105C25.7748 11.264 25.5688 11.1083 25.3124 10.9435C25.0652 10.7787 24.7951 10.6185 24.5021 10.4629C24.2183 10.3072 23.9436 10.1699 23.6781 10.0509ZM23.9528 17.3708C24.1451 17.0137 24.3511 16.5926 24.5708 16.1073C24.7997 15.6221 25.024 15.1094 25.2437 14.5692C25.4726 14.0198 25.6786 13.4934 25.8617 12.9898L26.6858 13.5254C26.521 14.0015 26.3333 14.5005 26.1227 15.0224C25.9213 15.5351 25.7153 16.0432 25.5047 16.5468C25.2941 17.0412 25.0881 17.499 24.8867 17.9201L23.9528 17.3708ZM29.1166 5.45015H30.0917V8.84232H33.0718V5.45015H34.0881V9.73499H29.1166V5.45015ZM29.3775 12.3993H30.1054C30.1329 13.1775 30.2336 13.8642 30.4075 14.4593C30.5906 15.0453 30.8424 15.4847 31.1629 15.7777C31.0896 15.8235 31.0026 15.8922 30.9019 15.9837C30.8012 16.0753 30.7234 16.1668 30.6685 16.2584C30.3389 15.9105 30.0779 15.4344 29.8857 14.8301C29.7025 14.2258 29.5927 13.5346 29.556 12.7564H29.3775V12.3993ZM29.3912 13.6216H30.023C29.9589 14.1434 29.8261 14.6516 29.6247 15.146C29.4324 15.6312 29.1486 16.0341 28.7732 16.3545C28.7183 16.2813 28.6451 16.2035 28.5535 16.1211C28.4619 16.0295 28.3795 15.9608 28.3063 15.9151C28.6359 15.6495 28.8877 15.3062 29.0616 14.885C29.2356 14.4639 29.3455 14.0427 29.3912 13.6216ZM32.5087 12.3993H33.5525V13.086H32.5087V12.3993ZM33.0856 12.3993H33.8272C33.8638 13.1775 33.9782 13.8596 34.1705 14.4456C34.3719 15.0315 34.6466 15.4619 34.9945 15.7365C34.9121 15.7823 34.8205 15.8555 34.7198 15.9563C34.6191 16.0478 34.5413 16.1348 34.4864 16.2172C34.1384 15.8784 33.8592 15.4115 33.6486 14.8164C33.438 14.2213 33.3099 13.5346 33.2641 12.7564H33.0856V12.3993ZM33.1268 13.6078H33.7722C33.699 14.1205 33.5616 14.615 33.3602 15.091C33.168 15.558 32.875 15.9425 32.4813 16.2447C32.4355 16.1806 32.3623 16.1027 32.2615 16.0112C32.17 15.9196 32.0876 15.851 32.0143 15.8052C32.3531 15.558 32.6095 15.233 32.7834 14.8301C32.9574 14.4273 33.0718 14.0198 33.1268 13.6078ZM40.9823 14.9537H41.9848V16.7253C41.9848 16.8901 42.0352 16.9954 42.1359 17.0412C42.2366 17.087 42.4655 17.1099 42.8226 17.1099C42.905 17.1099 43.0515 17.1099 43.2621 17.1099C43.4818 17.1099 43.7244 17.1099 43.9899 17.1099C44.2554 17.1099 44.5026 17.1099 44.7315 17.1099C44.9696 17.1099 45.1435 17.1099 45.2534 17.1099C45.4457 17.1099 45.5876 17.0778 45.6791 17.0137C45.7799 16.9588 45.8485 16.8352 45.8851 16.6429C45.9309 16.4415 45.963 16.1348 45.9813 15.7228C46.1003 15.796 46.2468 15.8647 46.4207 15.9288C46.5947 15.9929 46.7504 16.0387 46.8877 16.0661C46.8511 16.588 46.7824 16.9817 46.6817 17.2472C46.581 17.5219 46.4253 17.7096 46.2147 17.8103C46.0042 17.9201 45.7112 17.9751 45.3358 17.9751C45.2809 17.9751 45.1618 17.9751 44.9787 17.9751C44.8048 17.9751 44.6034 17.9751 44.3745 17.9751C44.1547 17.9751 43.9304 17.9751 43.7015 17.9751C43.4726 17.9751 43.2666 17.9751 43.0835 17.9751C42.9096 17.9751 42.7951 17.9751 42.7402 17.9751C42.2732 17.9751 41.9116 17.9385 41.6552 17.8652C41.3989 17.8011 41.2203 17.6775 41.1196 17.4944C41.0281 17.3113 40.9823 17.0549 40.9823 16.7253V14.9537ZM42.493 14.6928L43.0973 14.116C43.3536 14.2442 43.6191 14.3952 43.8938 14.5692C44.1685 14.7431 44.4294 14.9217 44.6766 15.1048C44.9238 15.2787 45.1252 15.439 45.2809 15.5855L44.6354 16.2309C44.4889 16.0753 44.2921 15.9059 44.0449 15.7228C43.8068 15.5397 43.5505 15.3566 43.2758 15.1734C43.0103 14.9903 42.7493 14.8301 42.493 14.6928ZM47.0662 15.0773L47.8765 14.7065C48.1145 14.9446 48.3526 15.2055 48.5906 15.4893C48.8287 15.764 49.0438 16.0432 49.2361 16.3271C49.4375 16.6017 49.5886 16.8535 49.6893 17.0824L48.8241 17.5081C48.7234 17.2792 48.5769 17.0275 48.3846 16.7528C48.2015 16.469 47.9955 16.1806 47.7666 15.8876C47.5377 15.5946 47.3043 15.3245 47.0662 15.0773ZM39.3755 14.8438L40.2407 15.2284C40.0393 15.6404 39.8012 16.0799 39.5265 16.5468C39.2519 17.0137 38.936 17.412 38.5789 17.7416L37.7275 17.2335C38.0754 16.9313 38.3912 16.5605 38.6751 16.1211C38.9681 15.6724 39.2015 15.2467 39.3755 14.8438ZM38.5103 6.48016H48.9889V7.3179H38.5103V6.48016ZM37.8923 8.69125H49.703V9.52899H37.8923V8.69125ZM40.584 7.51017L41.5179 7.29044C41.6552 7.51017 41.7788 7.7528 41.8887 8.01831C42.0077 8.28382 42.0901 8.51271 42.1359 8.70498L41.1471 8.95219C41.1105 8.75076 41.0372 8.51729 40.9274 8.25178C40.8266 7.97711 40.7122 7.72991 40.584 7.51017ZM45.995 7.26297L47.0388 7.49644C46.8831 7.79857 46.7275 8.09155 46.5718 8.37538C46.4253 8.65005 46.2788 8.89725 46.1323 9.11699L45.2397 8.86979C45.3679 8.64089 45.5006 8.37538 45.6379 8.07324C45.7844 7.76195 45.9035 7.49186 45.995 7.26297ZM40.4742 12.5641V13.5254H47.08V12.5641H40.4742ZM40.4742 10.9435V11.8774H47.08V10.9435H40.4742ZM39.4991 10.2294H48.11V14.2396H39.4991V10.2294ZM42.9736 5.57375L43.9625 5.34028C44.1089 5.56002 44.2554 5.8118 44.4019 6.09562C44.5484 6.37029 44.6537 6.60834 44.7178 6.80976L43.6741 7.0707C43.61 6.86928 43.5093 6.62665 43.3719 6.34283C43.2437 6.059 43.111 5.80264 42.9736 5.57375ZM53.7132 9.35046H63.4915V10.2019H53.7132V9.35046ZM53.9055 13.3606H61.7748V14.2121H53.9055V13.3606ZM55.9243 8.15564H56.9131V11.6577H60.2504V8.15564H61.2666V12.4817H55.9243V8.15564ZM61.5001 13.3606H61.7061L61.8846 13.3194L62.5301 13.6628C62.1547 14.3678 61.6557 14.972 61.0332 15.4756C60.4197 15.9791 59.7193 16.4003 58.9319 16.7391C58.1446 17.0687 57.3068 17.3342 56.4187 17.5356C55.5306 17.7462 54.6151 17.9064 53.672 18.0163C53.6446 17.8973 53.5896 17.7508 53.5072 17.5768C53.4248 17.4028 53.3424 17.2564 53.26 17.1373C54.1298 17.0641 54.9859 16.9405 55.8282 16.7665C56.6797 16.5926 57.4716 16.3637 58.2041 16.0799C58.9457 15.7869 59.6003 15.4298 60.168 15.0086C60.7356 14.5875 61.1797 14.0885 61.5001 13.5117V13.3606ZM56.1028 14.0473C56.5606 14.6516 57.1741 15.1734 57.9431 15.6129C58.7214 16.0432 59.6095 16.3911 60.6074 16.6567C61.6145 16.9222 62.6903 17.1053 63.8348 17.206C63.7615 17.2792 63.6837 17.3662 63.6013 17.4669C63.5281 17.5768 63.4594 17.6867 63.3953 17.7965C63.3312 17.9064 63.2763 18.0071 63.2305 18.0987C62.0678 17.9613 60.9737 17.737 59.9482 17.4257C58.9319 17.1236 58.021 16.7208 57.2153 16.2172C56.4096 15.7136 55.7458 15.1094 55.2239 14.4044L56.1028 14.0473ZM52.8343 6.8235H63.6425V7.79857H52.8343V6.8235ZM52.3536 6.8235H53.3836V10.559C53.3836 11.1083 53.3653 11.708 53.3287 12.3581C53.3012 12.999 53.2417 13.6582 53.1502 14.3357C53.0586 15.0132 52.9258 15.6724 52.7519 16.3133C52.5779 16.9542 52.3445 17.5493 52.0515 18.0987C51.9874 18.0437 51.8958 17.9842 51.7768 17.9201C51.6669 17.8652 51.5525 17.8057 51.4335 17.7416C51.3144 17.6867 51.2137 17.6501 51.1313 17.6317C51.4152 17.1099 51.6349 16.5468 51.7905 15.9425C51.9553 15.3382 52.0789 14.7202 52.1613 14.0885C52.2437 13.4568 52.2941 12.8433 52.3124 12.2482C52.3399 11.6439 52.3536 11.0855 52.3536 10.5727V6.8235ZM57.1191 5.64242L58.1491 5.39522C58.3139 5.66989 58.4696 5.9766 58.6161 6.31536C58.7717 6.64496 58.8816 6.92421 58.9457 7.1531L57.8745 7.4415C57.8104 7.20346 57.7097 6.91505 57.5723 6.57629C57.435 6.22838 57.2839 5.91709 57.1191 5.64242ZM65.4553 9.61139H69.1771V10.4354H65.4553V9.61139ZM65.8811 13.2508H69.1908V17.2747H65.8811V16.4095H68.3394V14.116H65.8811V13.2508ZM65.4416 13.2508H66.2931V17.8927H65.4416V13.2508ZM65.4416 11.4242H69.1634V12.2345H65.4416V11.4242ZM64.906 7.78484H69.6028V8.65005H64.906V7.78484ZM66.3755 5.83469L67.1308 5.49135C67.3322 5.77518 67.5291 6.08647 67.7214 6.42523C67.9136 6.75483 68.0647 7.03408 68.1746 7.26297L67.3643 7.67497C67.2636 7.43693 67.1171 7.14395 66.9248 6.79603C66.7326 6.44812 66.5494 6.12767 66.3755 5.83469ZM70.3719 6.08189H71.2234V11.2319C71.2234 11.7538 71.2097 12.3169 71.1822 12.9212C71.1547 13.5163 71.0998 14.1251 71.0174 14.7477C70.935 15.3611 70.8068 15.9563 70.6329 16.5331C70.4681 17.1099 70.2437 17.6363 69.9599 18.1124C69.9141 18.0666 69.8455 18.0071 69.7539 17.9339C69.6624 17.8698 69.5708 17.8057 69.4792 17.7416C69.3877 17.6775 69.3099 17.6317 69.2458 17.6043C69.5845 17 69.8317 16.3316 69.9874 15.5992C70.1522 14.8576 70.2575 14.1114 70.3033 13.3606C70.349 12.6007 70.3719 11.8957 70.3719 11.2457V6.08189ZM70.8114 6.08189H76.7168V7.00203H70.8114V6.08189ZM76.2636 6.08189H77.1425V16.8352C77.1425 17.0916 77.1059 17.2976 77.0327 17.4532C76.9686 17.6089 76.8495 17.7233 76.6756 17.7965C76.4925 17.8789 76.2498 17.9293 75.9477 17.9476C75.6547 17.9659 75.2702 17.9751 74.7941 17.9751C74.7758 17.8469 74.7346 17.6958 74.6705 17.5219C74.6156 17.3479 74.5561 17.2014 74.492 17.0824C74.849 17.0916 75.1649 17.0961 75.4396 17.0961C75.7234 17.0961 75.9111 17.0916 76.0026 17.0824C76.1034 17.0824 76.172 17.0641 76.2086 17.0275C76.2453 16.9908 76.2636 16.9222 76.2636 16.8215V6.08189ZM71.0174 8.47151H76.4696V9.32299H71.0174V8.47151ZM70.9899 10.7238H76.4833V11.5753H70.9899V10.7238ZM73.2972 6.60376H74.1624V11.1907H73.2972V6.60376ZM72.2946 12.4817H75.522V15.7228H72.2946V14.94H74.7117V13.2645H72.2946V12.4817ZM71.8414 12.4817H72.6105V16.3683H71.8414V12.4817ZM82.2788 13.8413V15.0361H87.5937V13.8413H82.2788ZM82.2788 11.9323V13.1134H87.5937V11.9323H82.2788ZM81.2626 11.1907H88.6512V15.7915H81.2626V11.1907ZM78.8729 7.20803H91.0545V8.11444H78.8729V7.20803ZM84.4075 5.46388H85.4238V11.4791H84.4075V5.46388ZM83.8994 7.4827L84.7646 7.82604C84.4625 8.26551 84.1008 8.69583 83.6797 9.11699C83.2677 9.53815 82.8236 9.93184 82.3475 10.2981C81.8714 10.6643 81.377 10.9939 80.8643 11.2869C80.3607 11.5799 79.8572 11.8271 79.3536 12.0285C79.3078 11.9461 79.2437 11.8545 79.1613 11.7538C79.0789 11.6531 78.9965 11.557 78.9141 11.4654C78.8317 11.3647 78.7539 11.2777 78.6807 11.2045C79.1659 11.0305 79.6603 10.8154 80.1639 10.559C80.6674 10.2935 81.1527 9.99593 81.6196 9.66633C82.0866 9.33672 82.5123 8.98881 82.8968 8.62258C83.2905 8.2472 83.6247 7.86724 83.8994 7.4827ZM79.1064 16.7253H90.8623V17.6592H79.1064V16.7253ZM85.053 8.08698L85.6847 7.46897C86.1242 7.73448 86.5866 8.02747 87.0718 8.34791C87.5662 8.66836 88.0515 8.99796 88.5276 9.33672C89.0128 9.66633 89.4614 9.99135 89.8735 10.3118C90.2855 10.6231 90.6425 10.9115 90.9447 11.177L90.258 11.9186C89.9833 11.6623 89.64 11.3739 89.228 11.0534C88.8251 10.7238 88.3857 10.385 87.9096 10.0371C87.4335 9.68922 86.9482 9.35046 86.4538 9.02085C85.9594 8.68209 85.4925 8.3708 85.053 8.08698Z" fill="#45827D"/>
<g clip-path="url(#clip0_110_4042)">
<path d="M11.9288 4.80811C11.7993 4.83276 11.6826 4.9024 11.5994 5.00474C11.5162 5.10707 11.4718 5.23552 11.4741 5.36739V5.92668H9.46408C9.01666 5.92668 8.67773 6.2656 8.67773 6.71303V18.5105C8.67773 19.0139 9.01666 19.3494 9.46408 19.3494H19.0244C19.4719 19.3494 19.8108 19.0105 19.8108 18.5631V6.71303C19.8667 6.2656 19.5244 5.92668 19.077 5.92668H17.067V5.36739C17.067 5.21906 17.008 5.07681 16.9031 4.97192C16.7983 4.86704 16.656 4.80811 16.5077 4.80811H12.0334C12.0159 4.80729 11.9984 4.80729 11.9809 4.80811C11.9633 4.80729 11.9464 4.80729 11.9288 4.80811ZM12.5927 5.92668H15.9484V7.04524H12.5927V5.92668ZM9.7963 7.04524H11.4741V7.60452C11.4741 7.75285 11.5331 7.89511 11.638 7.99999C11.7428 8.10488 11.8851 8.1638 12.0334 8.1638H16.5077C16.656 8.1638 16.7983 8.10488 16.9031 7.99999C17.008 7.89511 17.067 7.75285 17.067 7.60452V7.04524H18.7448V18.2309H9.7963V7.04524ZM10.9149 9.84165V12.0788H13.152V9.84165H10.9149ZM11.4741 10.4009H12.5927V11.5195H11.4741V10.4009ZM14.2706 10.4009V11.5195H17.6262V10.4009H14.2706ZM10.9149 13.1973V15.4345H13.152V13.1973H10.9149ZM14.2706 13.7566V14.8752H17.6262V13.7566H14.2706Z" fill="#45827D"/>
</g>
<rect x="0.5" y="0.5" width="98" height="23" rx="11.5" stroke="#45827D"/>
<defs>
<clipPath id="clip0_110_4042">
<rect width="14.5413" height="14.5413" fill="white" transform="translate(7 4.80786)"/>
</clipPath>
</defs>
</svg>
