<svg width="83" height="24" viewBox="0 0 83 24" fill="none" xmlns="http://www.w3.org/2000/svg">
<path d="M25.8394 12.1246H30.5499V16.1623H25.8394V15.2833H29.5749V13.0036H25.8394V12.1246ZM25.3862 12.1246H26.3475V16.9863H25.3862V12.1246ZM22.9004 8.04578H26.7183V8.80112H22.9004V8.04578ZM29.2315 8.04578H33.1318V8.80112H29.2315V8.04578ZM32.6649 6.05442H33.7086V16.7116C33.7086 17.0595 33.6629 17.3204 33.5713 17.4944C33.4798 17.6775 33.3195 17.8149 33.0906 17.9064C32.8617 17.998 32.5413 18.0529 32.1293 18.0712C31.7264 18.0895 31.2229 18.0987 30.6186 18.0987C30.6095 17.998 30.582 17.8835 30.5362 17.7553C30.4996 17.6272 30.4538 17.499 30.3989 17.3708C30.3531 17.2426 30.3027 17.1328 30.2478 17.0412C30.5591 17.0504 30.8521 17.0549 31.1268 17.0549C31.4106 17.0549 31.6578 17.0549 31.8684 17.0549C32.0881 17.0549 32.2392 17.0549 32.3216 17.0549C32.4497 17.0458 32.5367 17.0183 32.5825 16.9725C32.6374 16.9176 32.6649 16.8306 32.6649 16.7116V6.05442ZM22.9828 6.05442H27.3775V10.8886H22.9828V10.0646H26.4162V6.87843H22.9828V6.05442ZM33.2142 6.05442V6.87843H29.6023V10.0783H33.2142V10.9023H28.6273V6.05442H33.2142ZM22.4197 6.05442H23.436V18.1124H22.4197V6.05442ZM39.0235 12.5504H43.9263V13.4568H39.0235V12.5504ZM38.4055 12.5504H39.408V16.382C39.408 16.5468 39.4355 16.675 39.4904 16.7665C39.5545 16.8581 39.6781 16.9176 39.8612 16.9451C40.0535 16.9725 40.3282 16.9863 40.6852 16.9863C40.786 16.9863 40.9553 16.9863 41.1934 16.9863C41.4406 16.9863 41.7198 16.9863 42.0311 16.9863C42.3424 16.9863 42.6583 16.9863 42.9787 16.9863C43.3083 16.9863 43.6013 16.9863 43.8577 16.9863C44.1232 16.9863 44.3246 16.9863 44.462 16.9863C44.7641 16.9863 44.9884 16.9451 45.1349 16.8627C45.2814 16.7803 45.3867 16.62 45.4508 16.382C45.5149 16.1348 45.5606 15.7686 45.5881 15.2833C45.7163 15.3657 45.8719 15.4435 46.055 15.5168C46.2381 15.5809 46.3984 15.6312 46.5357 15.6679C46.4808 16.263 46.3938 16.7253 46.2748 17.0549C46.1557 17.3845 45.9589 17.6089 45.6842 17.7279C45.4096 17.8561 45.0159 17.9201 44.5032 17.9201C44.4208 17.9201 44.2514 17.9201 43.995 17.9201C43.7387 17.9201 43.4365 17.9201 43.0886 17.9201C42.7498 17.9201 42.4111 17.9201 42.0723 17.9201C41.7336 17.9201 41.436 17.9201 41.1797 17.9201C40.9233 17.9201 40.7539 17.9201 40.6715 17.9201C40.0947 17.9201 39.6369 17.8789 39.2982 17.7965C38.9686 17.7141 38.7351 17.5631 38.5978 17.3433C38.4696 17.1236 38.4055 16.8077 38.4055 16.3957V12.5504ZM43.6105 12.5504H44.6268C44.6268 12.5504 44.6268 12.6007 44.6268 12.7014C44.6268 12.793 44.6176 12.8754 44.5993 12.9486C44.5444 13.7177 44.4803 14.2899 44.407 14.6653C44.3338 15.0407 44.2285 15.297 44.0911 15.4344C43.9813 15.5443 43.8577 15.6221 43.7203 15.6679C43.583 15.7136 43.4228 15.7411 43.2397 15.7503C43.0566 15.7594 42.8002 15.764 42.4706 15.764C42.1501 15.7548 41.8022 15.7411 41.4269 15.7228C41.4177 15.5946 41.3902 15.4573 41.3445 15.3108C41.3078 15.1551 41.2483 15.0224 41.1659 14.9125C41.5138 14.94 41.8389 14.9583 42.141 14.9674C42.4523 14.9674 42.6629 14.9674 42.7727 14.9674C43.0016 14.9674 43.1573 14.9354 43.2397 14.8713C43.3221 14.7798 43.3907 14.5738 43.4457 14.2533C43.5006 13.9237 43.5555 13.3973 43.6105 12.674V12.5504ZM35.7412 10.2019H47.8129V11.1358H35.7412V10.2019ZM36.5927 7.81231H46.8653V8.71872H36.5927V7.81231ZM43.789 10.2843C44.0728 10.7696 44.4436 11.2228 44.9014 11.6439C45.3684 12.056 45.8902 12.4222 46.467 12.7426C47.0438 13.0539 47.6481 13.2965 48.2799 13.4705C48.1975 13.5437 48.1105 13.6307 48.0189 13.7314C47.9365 13.823 47.8587 13.9237 47.7855 14.0336C47.7122 14.1434 47.6481 14.2442 47.5932 14.3357C46.9431 14.1068 46.3205 13.8093 45.7254 13.443C45.1395 13.0768 44.6039 12.6511 44.1186 12.1658C43.6334 11.6806 43.2305 11.1587 42.9101 10.6002L43.789 10.2843ZM41.5093 5.42268L42.5805 5.53255C42.4431 6.37487 42.2142 7.21719 41.8938 8.05951C41.5733 8.89267 41.1476 9.69837 40.6166 10.4766C40.0947 11.2457 39.4492 11.9598 38.6802 12.619C37.9202 13.2691 37.0276 13.8321 36.0021 14.3082C35.9655 14.2167 35.9106 14.1205 35.8373 14.0198C35.7641 13.91 35.6817 13.8093 35.5901 13.7177C35.5077 13.617 35.4299 13.5346 35.3567 13.4705C36.3455 13.031 37.2015 12.5092 37.9248 11.9049C38.6573 11.3006 39.2707 10.6414 39.7651 9.92726C40.2595 9.20397 40.6486 8.46236 40.9324 7.70244C41.2163 6.93337 41.4085 6.17345 41.5093 5.42268ZM37.7737 6.20549L38.5703 5.76602C38.7992 6.02238 39.0281 6.31078 39.257 6.63123C39.495 6.94252 39.6735 7.21261 39.7926 7.4415L38.9548 7.93591C38.845 7.70702 38.6756 7.42777 38.4467 7.09817C38.227 6.76856 38.0026 6.47101 37.7737 6.20549ZM44.9426 5.80722L45.8902 6.12309C45.6522 6.50763 45.3912 6.89674 45.1074 7.29044C44.8236 7.67497 44.5581 8.00458 44.3109 8.27925L43.5281 7.99084C43.6929 7.78942 43.8623 7.5651 44.0362 7.3179C44.2193 7.06154 44.3887 6.80061 44.5444 6.53509C44.7 6.26958 44.8328 6.02696 44.9426 5.80722ZM49.7219 9.61139H53.4436V10.4354H49.7219V9.61139ZM50.1476 13.2508H53.4574V17.2747H50.1476V16.4095H52.6059V14.116H50.1476V13.2508ZM49.7081 13.2508H50.5596V17.8927H49.7081V13.2508ZM49.7081 11.4242H53.4299V12.2345H49.7081V11.4242ZM49.1725 7.78484H53.8694V8.65005H49.1725V7.78484ZM50.642 5.83469L51.3974 5.49135C51.5988 5.77518 51.7956 6.08647 51.9879 6.42523C52.1802 6.75483 52.3312 7.03408 52.4411 7.26297L51.6308 7.67497C51.5301 7.43693 51.3836 7.14395 51.1914 6.79603C50.9991 6.44812 50.816 6.12767 50.642 5.83469ZM54.6385 6.08189H55.4899V11.2319C55.4899 11.7538 55.4762 12.3169 55.4487 12.9212C55.4213 13.5163 55.3663 14.1251 55.2839 14.7477C55.2015 15.3611 55.0733 15.9563 54.8994 16.5331C54.7346 17.1099 54.5103 17.6363 54.2264 18.1124C54.1807 18.0666 54.112 18.0071 54.0204 17.9339C53.9289 17.8698 53.8373 17.8057 53.7458 17.7416C53.6542 17.6775 53.5764 17.6317 53.5123 17.6043C53.8511 17 54.0983 16.3316 54.2539 15.5992C54.4187 14.8576 54.524 14.1114 54.5698 13.3606C54.6156 12.6007 54.6385 11.8957 54.6385 11.2457V6.08189ZM55.0779 6.08189H60.9833V7.00203H55.0779V6.08189ZM60.5301 6.08189H61.4091V16.8352C61.4091 17.0916 61.3724 17.2976 61.2992 17.4532C61.2351 17.6089 61.1161 17.7233 60.9421 17.7965C60.759 17.8789 60.5164 17.9293 60.2142 17.9476C59.9213 17.9659 59.5367 17.9751 59.0606 17.9751C59.0423 17.8469 59.0011 17.6958 58.937 17.5219C58.8821 17.3479 58.8226 17.2014 58.7585 17.0824C59.1156 17.0916 59.4314 17.0961 59.7061 17.0961C59.9899 17.0961 60.1776 17.0916 60.2692 17.0824C60.3699 17.0824 60.4386 17.0641 60.4752 17.0275C60.5118 16.9908 60.5301 16.9222 60.5301 16.8215V6.08189ZM55.2839 8.47151H60.7361V9.32299H55.2839V8.47151ZM55.2565 10.7238H60.7498V11.5753H55.2565V10.7238ZM57.5637 6.60376H58.4289V11.1907H57.5637V6.60376ZM56.5611 12.4817H59.7885V15.7228H56.5611V14.94H58.9782V13.2645H56.5611V12.4817ZM56.1079 12.4817H56.877V16.3683H56.1079V12.4817ZM66.5454 13.8413V15.0361H71.8602V13.8413H66.5454ZM66.5454 11.9323V13.1134H71.8602V11.9323H66.5454ZM65.5291 11.1907H72.9177V15.7915H65.5291V11.1907ZM63.1395 7.20803H75.3211V8.11444H63.1395V7.20803ZM68.6741 5.46388H69.6903V11.4791H68.6741V5.46388ZM68.1659 7.4827L69.0311 7.82604C68.729 8.26551 68.3673 8.69583 67.9462 9.11699C67.5342 9.53815 67.0901 9.93184 66.614 10.2981C66.1379 10.6643 65.6435 10.9939 65.1308 11.2869C64.6273 11.5799 64.1237 11.8271 63.6201 12.0285C63.5744 11.9461 63.5103 11.8545 63.4279 11.7538C63.3455 11.6531 63.2631 11.557 63.1807 11.4654C63.0983 11.3647 63.0204 11.2777 62.9472 11.2045C63.4325 11.0305 63.9269 10.8154 64.4304 10.559C64.934 10.2935 65.4192 9.99593 65.8862 9.66633C66.3531 9.33672 66.7788 8.98881 67.1634 8.62258C67.5571 8.2472 67.8913 7.86724 68.1659 7.4827ZM63.3729 16.7253H75.1288V17.6592H63.3729V16.7253ZM69.3195 8.08698L69.9513 7.46897C70.3907 7.73448 70.8531 8.02747 71.3384 8.34791C71.8328 8.66836 72.318 8.99796 72.7941 9.33672C73.2794 9.66633 73.728 9.99135 74.14 10.3118C74.552 10.6231 74.9091 10.9115 75.2112 11.177L74.5245 11.9186C74.2498 11.6623 73.9065 11.3739 73.4945 11.0534C73.0917 10.7238 72.6522 10.385 72.1761 10.0371C71.7 9.68922 71.2148 9.35046 70.7203 9.02085C70.2259 8.68209 69.759 8.3708 69.3195 8.08698Z" fill="#45827D"/>
<g clip-path="url(#clip0_76_3716)">
<path d="M9.92981 4.80811C9.80025 4.83276 9.68355 4.9024 9.60035 5.00474C9.51715 5.10707 9.4728 5.23552 9.47512 5.36739V5.92668H7.46506C7.01764 5.92668 6.67871 6.2656 6.67871 6.71303V18.5105C6.67871 19.0139 7.01764 19.3494 7.46506 19.3494H17.0254C17.4728 19.3494 17.8118 19.0105 17.8118 18.5631V6.71303C17.8677 6.2656 17.5254 5.92668 17.078 5.92668H15.0679V5.36739C15.0679 5.21906 15.009 5.07681 14.9041 4.97192C14.7992 4.86704 14.657 4.80811 14.5087 4.80811H10.0344C10.0169 4.80729 9.99934 4.80729 9.98183 4.80811C9.96431 4.80729 9.94733 4.80729 9.92981 4.80811ZM10.5937 5.92668H13.9494V7.04524H10.5937V5.92668ZM7.79727 7.04524H9.47512V7.60452C9.47512 7.75285 9.53404 7.89511 9.63893 7.99999C9.74381 8.10488 9.88607 8.1638 10.0344 8.1638H14.5087C14.657 8.1638 14.7992 8.10488 14.9041 7.99999C15.009 7.89511 15.0679 7.75285 15.0679 7.60452V7.04524H16.7458V18.2309H7.79727V7.04524ZM8.91584 9.84165V12.0788H11.153V9.84165H8.91584ZM9.47512 10.4009H10.5937V11.5195H9.47512V10.4009ZM12.2715 10.4009V11.5195H15.6272V10.4009H12.2715ZM8.91584 13.1973V15.4345H11.153V13.1973H8.91584ZM12.2715 13.7566V14.8752H15.6272V13.7566H12.2715Z" fill="#45827D"/>
</g>
<rect x="0.5" y="0.5" width="82" height="23" rx="11.5" stroke="#45827D"/>
<defs>
<clipPath id="clip0_76_3716">
<rect width="14.5413" height="14.5413" fill="white" transform="translate(5 4.80786)"/>
</clipPath>
</defs>
</svg>
