<svg width="99" height="24" viewBox="0 0 99 24" fill="none" xmlns="http://www.w3.org/2000/svg">
<path d="M26.8043 16.156C26.1803 16.156 25.6043 16.04 25.0763 15.808C24.5563 15.576 24.1083 15.26 23.7323 14.86L24.3923 14.092C24.7043 14.42 25.0723 14.684 25.4963 14.884C25.9203 15.084 26.3603 15.184 26.8163 15.184C27.4003 15.184 27.8523 15.052 28.1723 14.788C28.5003 14.524 28.6643 14.18 28.6643 13.756C28.6643 13.444 28.5963 13.196 28.4603 13.012C28.3323 12.828 28.1563 12.676 27.9323 12.556C27.7163 12.428 27.4683 12.304 27.1883 12.184L25.9283 11.632C25.6563 11.512 25.3803 11.36 25.1003 11.176C24.8283 10.992 24.6003 10.752 24.4163 10.456C24.2323 10.16 24.1403 9.8 24.1403 9.376C24.1403 8.92 24.2603 8.52 24.5003 8.176C24.7403 7.824 25.0683 7.548 25.4843 7.348C25.9003 7.148 26.3763 7.048 26.9123 7.048C27.4403 7.048 27.9243 7.148 28.3643 7.348C28.8123 7.548 29.1883 7.808 29.4922 8.128L28.9163 8.836C28.6443 8.588 28.3443 8.392 28.0163 8.248C27.6963 8.096 27.3283 8.02 26.9123 8.02C26.4163 8.02 26.0163 8.136 25.7123 8.368C25.4163 8.592 25.2683 8.9 25.2683 9.292C25.2683 9.58 25.3403 9.816 25.4843 10C25.6363 10.184 25.8243 10.332 26.0483 10.444C26.2723 10.556 26.5003 10.664 26.7323 10.768L27.9803 11.308C28.3163 11.452 28.6203 11.624 28.8923 11.824C29.1723 12.024 29.3923 12.272 29.5523 12.568C29.7123 12.864 29.7923 13.228 29.7923 13.66C29.7923 14.124 29.6723 14.548 29.4323 14.932C29.1923 15.308 28.8483 15.608 28.4003 15.832C27.9523 16.048 27.4203 16.156 26.8043 16.156ZM32.9087 16.156C32.5487 16.156 32.2247 16.084 31.9367 15.94C31.6487 15.796 31.4207 15.588 31.2527 15.316C31.0927 15.036 31.0127 14.7 31.0127 14.308C31.0127 13.596 31.3287 13.052 31.9607 12.676C32.6007 12.292 33.6167 12.024 35.0087 11.872C35.0087 11.592 34.9687 11.328 34.8887 11.08C34.8167 10.824 34.6847 10.62 34.4927 10.468C34.3007 10.308 34.0247 10.228 33.6647 10.228C33.2887 10.228 32.9327 10.304 32.5967 10.456C32.2687 10.6 31.9727 10.756 31.7087 10.924L31.2887 10.168C31.4887 10.04 31.7207 9.912 31.9847 9.784C32.2487 9.648 32.5367 9.536 32.8487 9.448C33.1607 9.36 33.4927 9.316 33.8447 9.316C34.3727 9.316 34.8007 9.428 35.1287 9.652C35.4647 9.876 35.7087 10.188 35.8607 10.588C36.0207 10.98 36.1007 11.448 36.1007 11.992V16H35.2007L35.1047 15.22H35.0687C34.7647 15.476 34.4287 15.696 34.0607 15.88C33.7007 16.064 33.3167 16.156 32.9087 16.156ZM33.2207 15.268C33.5327 15.268 33.8287 15.196 34.1087 15.052C34.3967 14.908 34.6967 14.696 35.0087 14.416V12.604C34.2807 12.684 33.7007 12.8 33.2687 12.952C32.8367 13.096 32.5287 13.276 32.3447 13.492C32.1607 13.7 32.0687 13.948 32.0687 14.236C32.0687 14.612 32.1807 14.88 32.4047 15.04C32.6287 15.192 32.9007 15.268 33.2207 15.268ZM39.9995 16.156C39.5435 16.156 39.1795 16.068 38.9075 15.892C38.6355 15.708 38.4395 15.452 38.3195 15.124C38.2075 14.796 38.1515 14.416 38.1515 13.984V10.372H37.1795V9.544L38.2115 9.484L38.3315 7.648H39.2435V9.484H41.0195V10.372H39.2435V14.02C39.2435 14.412 39.3155 14.72 39.4595 14.944C39.6115 15.16 39.8755 15.268 40.2515 15.268C40.3715 15.268 40.4995 15.252 40.6355 15.22C40.7715 15.18 40.8915 15.136 40.9955 15.088L41.2115 15.916C41.0275 15.98 40.8315 16.036 40.6235 16.084C40.4155 16.132 40.2075 16.156 39.9995 16.156ZM42.4829 16V9.484H43.5869V16H42.4829ZM43.0349 8.14C42.8189 8.14 42.6429 8.076 42.5069 7.948C42.3789 7.812 42.3149 7.632 42.3149 7.408C42.3149 7.192 42.3789 7.02 42.5069 6.892C42.6429 6.764 42.8189 6.7 43.0349 6.7C43.2509 6.7 43.4269 6.764 43.5629 6.892C43.6989 7.02 43.7669 7.192 43.7669 7.408C43.7669 7.632 43.6989 7.812 43.5629 7.948C43.4269 8.076 43.2509 8.14 43.0349 8.14ZM47.4916 16.156C47.0356 16.156 46.5916 16.072 46.1596 15.904C45.7356 15.728 45.3716 15.512 45.0676 15.256L45.5956 14.524C45.8836 14.756 46.1796 14.944 46.4836 15.088C46.7876 15.232 47.1356 15.304 47.5276 15.304C47.9596 15.304 48.2796 15.208 48.4876 15.016C48.7036 14.816 48.8116 14.572 48.8116 14.284C48.8116 14.06 48.7356 13.876 48.5836 13.732C48.4396 13.58 48.2516 13.452 48.0196 13.348C47.7956 13.236 47.5636 13.136 47.3236 13.048C47.0196 12.928 46.7196 12.796 46.4236 12.652C46.1356 12.5 45.8956 12.308 45.7036 12.076C45.5196 11.836 45.4276 11.532 45.4276 11.164C45.4276 10.812 45.5156 10.5 45.6916 10.228C45.8676 9.948 46.1236 9.728 46.4596 9.568C46.7956 9.4 47.1996 9.316 47.6716 9.316C48.0716 9.316 48.4436 9.388 48.7876 9.532C49.1396 9.676 49.4396 9.852 49.6876 10.06L49.1596 10.744C48.9356 10.584 48.7036 10.448 48.4636 10.336C48.2316 10.224 47.9716 10.168 47.6836 10.168C47.2676 10.168 46.9596 10.264 46.7596 10.456C46.5676 10.64 46.4716 10.86 46.4716 11.116C46.4716 11.316 46.5356 11.484 46.6636 11.62C46.7996 11.756 46.9756 11.872 47.1916 11.968C47.4076 12.056 47.6356 12.148 47.8756 12.244C48.1156 12.332 48.3516 12.428 48.5836 12.532C48.8236 12.636 49.0356 12.76 49.2196 12.904C49.4116 13.048 49.5636 13.228 49.6756 13.444C49.7956 13.652 49.8556 13.912 49.8556 14.224C49.8556 14.576 49.7636 14.9 49.5796 15.196C49.4036 15.492 49.1396 15.728 48.7876 15.904C48.4436 16.072 48.0116 16.156 47.4916 16.156ZM51.5809 16V8.44C51.5809 8 51.6489 7.62 51.7849 7.3C51.9209 6.98 52.1289 6.732 52.4089 6.556C52.6889 6.38 53.0449 6.292 53.4769 6.292C53.6769 6.292 53.8689 6.312 54.0529 6.352C54.2449 6.392 54.4169 6.44 54.5689 6.496L54.3289 7.348C54.0889 7.228 53.8449 7.168 53.5969 7.168C53.2849 7.168 53.0529 7.276 52.9009 7.492C52.7489 7.708 52.6729 8.028 52.6729 8.452V16H51.5809ZM50.6929 10.372V9.544L51.6289 9.484H54.0529V10.372H50.6929ZM56.4985 16.156C56.1385 16.156 55.8145 16.084 55.5265 15.94C55.2385 15.796 55.0105 15.588 54.8425 15.316C54.6825 15.036 54.6025 14.7 54.6025 14.308C54.6025 13.596 54.9185 13.052 55.5505 12.676C56.1905 12.292 57.2065 12.024 58.5985 11.872C58.5985 11.592 58.5585 11.328 58.4785 11.08C58.4065 10.824 58.2745 10.62 58.0825 10.468C57.8905 10.308 57.6145 10.228 57.2545 10.228C56.8785 10.228 56.5225 10.304 56.1865 10.456C55.8585 10.6 55.5625 10.756 55.2985 10.924L54.8785 10.168C55.0785 10.04 55.3105 9.912 55.5745 9.784C55.8385 9.648 56.1265 9.536 56.4385 9.448C56.7505 9.36 57.0825 9.316 57.4345 9.316C57.9625 9.316 58.3905 9.428 58.7185 9.652C59.0545 9.876 59.2985 10.188 59.4505 10.588C59.6105 10.98 59.6905 11.448 59.6905 11.992V16H58.7905L58.6945 15.22H58.6585C58.3545 15.476 58.0185 15.696 57.6505 15.88C57.2905 16.064 56.9065 16.156 56.4985 16.156ZM56.8105 15.268C57.1225 15.268 57.4185 15.196 57.6985 15.052C57.9865 14.908 58.2865 14.696 58.5985 14.416V12.604C57.8705 12.684 57.2905 12.8 56.8585 12.952C56.4265 13.096 56.1185 13.276 55.9345 13.492C55.7505 13.7 55.6585 13.948 55.6585 14.236C55.6585 14.612 55.7705 14.88 55.9945 15.04C56.2185 15.192 56.4905 15.268 56.8105 15.268ZM64.3283 16.156C63.7523 16.156 63.2323 16.024 62.7683 15.76C62.3123 15.488 61.9483 15.1 61.6763 14.596C61.4123 14.084 61.2803 13.468 61.2803 12.748C61.2803 12.02 61.4243 11.404 61.7123 10.9C62.0003 10.388 62.3843 9.996 62.8643 9.724C63.3443 9.452 63.8603 9.316 64.4123 9.316C64.8363 9.316 65.2003 9.392 65.5043 9.544C65.8163 9.696 66.0843 9.876 66.3083 10.084L65.7563 10.804C65.5723 10.636 65.3723 10.5 65.1563 10.396C64.9483 10.292 64.7163 10.24 64.4603 10.24C64.0683 10.24 63.7163 10.344 63.4043 10.552C63.0923 10.76 62.8483 11.052 62.6723 11.428C62.4963 11.804 62.4083 12.244 62.4083 12.748C62.4083 13.244 62.4923 13.68 62.6603 14.056C62.8363 14.432 63.0723 14.724 63.3683 14.932C63.6723 15.14 64.0243 15.244 64.4243 15.244C64.7283 15.244 65.0083 15.184 65.2643 15.064C65.5203 14.936 65.7523 14.78 65.9603 14.596L66.4403 15.34C66.1443 15.596 65.8163 15.796 65.4563 15.94C65.0963 16.084 64.7203 16.156 64.3283 16.156ZM69.7534 16.156C69.2974 16.156 68.9334 16.068 68.6614 15.892C68.3894 15.708 68.1934 15.452 68.0734 15.124C67.9614 14.796 67.9054 14.416 67.9054 13.984V10.372H66.9334V9.544L67.9654 9.484L68.0854 7.648H68.9974V9.484H70.7734V10.372H68.9974V14.02C68.9974 14.412 69.0694 14.72 69.2134 14.944C69.3654 15.16 69.6294 15.268 70.0054 15.268C70.1254 15.268 70.2534 15.252 70.3894 15.22C70.5254 15.18 70.6454 15.136 70.7494 15.088L70.9654 15.916C70.7814 15.98 70.5854 16.036 70.3774 16.084C70.1694 16.132 69.9614 16.156 69.7534 16.156ZM72.2368 16V9.484H73.3408V16H72.2368ZM72.7888 8.14C72.5728 8.14 72.3968 8.076 72.2608 7.948C72.1328 7.812 72.0688 7.632 72.0688 7.408C72.0688 7.192 72.1328 7.02 72.2608 6.892C72.3968 6.764 72.5728 6.7 72.7888 6.7C73.0048 6.7 73.1808 6.764 73.3168 6.892C73.4528 7.02 73.5208 7.192 73.5208 7.408C73.5208 7.632 73.4528 7.812 73.3168 7.948C73.1808 8.076 73.0048 8.14 72.7888 8.14ZM78.0735 16.156C77.5455 16.156 77.0495 16.024 76.5855 15.76C76.1215 15.488 75.7495 15.1 75.4695 14.596C75.1975 14.084 75.0615 13.468 75.0615 12.748C75.0615 12.02 75.1975 11.404 75.4695 10.9C75.7495 10.388 76.1215 9.996 76.5855 9.724C77.0495 9.452 77.5455 9.316 78.0735 9.316C78.4735 9.316 78.8535 9.392 79.2135 9.544C79.5815 9.696 79.9055 9.92 80.1855 10.216C80.4655 10.512 80.6855 10.872 80.8455 11.296C81.0055 11.72 81.0855 12.204 81.0855 12.748C81.0855 13.468 80.9455 14.084 80.6655 14.596C80.3855 15.1 80.0175 15.488 79.5615 15.76C79.1055 16.024 78.6095 16.156 78.0735 16.156ZM78.0735 15.244C78.4495 15.244 78.7775 15.14 79.0575 14.932C79.3455 14.724 79.5695 14.432 79.7295 14.056C79.8895 13.68 79.9695 13.244 79.9695 12.748C79.9695 12.244 79.8895 11.804 79.7295 11.428C79.5695 11.052 79.3455 10.76 79.0575 10.552C78.7775 10.344 78.4495 10.24 78.0735 10.24C77.6975 10.24 77.3655 10.344 77.0775 10.552C76.7975 10.76 76.5775 11.052 76.4175 11.428C76.2655 11.804 76.1895 12.244 76.1895 12.748C76.1895 13.244 76.2655 13.68 76.4175 14.056C76.5775 14.432 76.7975 14.724 77.0775 14.932C77.3655 15.14 77.6975 15.244 78.0735 15.244ZM82.8188 16V9.484H83.7188L83.8268 10.432H83.8508C84.1628 10.12 84.4908 9.856 84.8348 9.64C85.1868 9.424 85.5868 9.316 86.0348 9.316C86.7228 9.316 87.2268 9.536 87.5468 9.976C87.8668 10.408 88.0268 11.04 88.0268 11.872V16H86.9348V12.016C86.9348 11.4 86.8348 10.956 86.6348 10.684C86.4428 10.412 86.1308 10.276 85.6988 10.276C85.3628 10.276 85.0628 10.36 84.7988 10.528C84.5348 10.696 84.2428 10.944 83.9228 11.272V16H82.8188Z" fill="#45827D"/>
<g clip-path="url(#clip0_112_4053)">
<path d="M11.9288 4.80811C11.7993 4.83276 11.6826 4.9024 11.5994 5.00474C11.5162 5.10707 11.4718 5.23552 11.4741 5.36739V5.92668H9.46408C9.01666 5.92668 8.67773 6.2656 8.67773 6.71303V18.5105C8.67773 19.0139 9.01666 19.3494 9.46408 19.3494H19.0244C19.4719 19.3494 19.8108 19.0105 19.8108 18.5631V6.71303C19.8667 6.2656 19.5244 5.92668 19.077 5.92668H17.067V5.36739C17.067 5.21906 17.008 5.07681 16.9031 4.97192C16.7983 4.86704 16.656 4.80811 16.5077 4.80811H12.0334C12.0159 4.80729 11.9984 4.80729 11.9809 4.80811C11.9633 4.80729 11.9464 4.80729 11.9288 4.80811ZM12.5927 5.92668H15.9484V7.04524H12.5927V5.92668ZM9.7963 7.04524H11.4741V7.60452C11.4741 7.75285 11.5331 7.89511 11.638 7.99999C11.7428 8.10488 11.8851 8.1638 12.0334 8.1638H16.5077C16.656 8.1638 16.7983 8.10488 16.9031 7.99999C17.008 7.89511 17.067 7.75285 17.067 7.60452V7.04524H18.7448V18.2309H9.7963V7.04524ZM10.9149 9.84165V12.0788H13.152V9.84165H10.9149ZM11.4741 10.4009H12.5927V11.5195H11.4741V10.4009ZM14.2706 10.4009V11.5195H17.6262V10.4009H14.2706ZM10.9149 13.1973V15.4345H13.152V13.1973H10.9149ZM14.2706 13.7566V14.8752H17.6262V13.7566H14.2706Z" fill="#45827D"/>
</g>
<rect x="0.5" y="0.5" width="98" height="23" rx="11.5" stroke="#45827D"/>
<defs>
<clipPath id="clip0_112_4053">
<rect width="14.5413" height="14.5413" fill="white" transform="translate(7 4.80786)"/>
</clipPath>
</defs>
</svg>
