<svg width="203" height="37" viewBox="0 0 203 37" fill="none" xmlns="http://www.w3.org/2000/svg">
<g clip-path="url(#clip0_1_956)">
<path d="M0 7.27295H9.60388L15.5455 25.4778H15.6657L20.6492 7.27295H30.4905L35.8902 25.4778H36.0104L41.4743 7.27295H50.5978L40.2145 36.2848H31.3341L25.2723 17.0045H25.1522L19.7525 36.2848H10.6877L0 7.27295Z" fill="white"/>
<path d="M62.0901 0H52.4946V7.27583H62.0901V0Z" fill="white"/>
<path d="M62.0901 7.27588H52.4946V36.2849H62.0901V7.27588Z" fill="#B0D261"/>
<path d="M82.5912 15.8103C81.2699 14.1972 79.5268 13.3629 77.3674 13.3629C75.8674 13.3629 74.0656 14.017 74.0656 15.7494C74.0656 20.0456 89.2536 16.4063 89.2536 27.4489C89.2536 34.8522 82.0549 37.0003 75.8115 37.0003C71.7303 37.0003 67.23 35.9859 64.3472 33.0644L69.8084 27.0331C71.49 29.062 73.4706 30.1985 76.1718 30.1985C78.2139 30.1985 80.2503 29.6607 80.2503 28.1113C80.2503 23.4548 65.0679 27.3907 65.0679 16.3508C65.0679 9.54343 71.1883 6.56104 77.3088 6.56104C81.1526 6.56104 85.4126 7.51451 88.1138 10.3777L82.594 15.8131L82.5912 15.8103Z" fill="white"/>
<path d="M111.297 14.4354H103.375V24.106C103.375 27.2104 103.735 29.4804 107.637 29.4804C108.596 29.4804 110.515 29.3612 111.297 28.6434V36.1049C109.316 36.82 107.095 36.9974 104.995 36.9974C98.9944 36.9974 94.3713 34.5527 94.3713 28.222V14.4326H88.6084V7.27044H94.3713V0.00292969H103.375V7.27321H111.297V14.4354Z" fill="white"/>
<path d="M114.459 7.27322H123.462V11.9297H123.582C125.504 8.40963 128.021 6.55811 131.985 6.55811C133.002 6.55811 134.144 6.61908 134.982 6.85468V15.0313C133.725 14.6738 132.465 14.4354 131.144 14.4354C124.303 14.4354 123.462 18.3768 123.462 24.167V36.2851H114.459V7.27322Z" fill="white"/>
<path d="M143.025 21.7777C143.025 17.4206 145.723 14.4354 150.226 14.4354C154.729 14.4354 157.43 17.4206 157.43 21.7777C157.43 26.1349 154.726 29.1229 150.226 29.1229C145.726 29.1229 143.025 26.1349 143.025 21.7777ZM134.021 21.7777C134.021 31.0326 141.226 37.0002 150.226 37.0002C159.227 37.0002 166.431 31.0326 166.431 21.7777C166.431 12.5229 159.229 6.55811 150.226 6.55811C141.223 6.55811 134.021 12.5284 134.021 21.7777Z" fill="white"/>
<path d="M168.981 7.27322H177.624V11.2146H177.742C178.943 8.94458 181.884 6.55811 186.264 6.55811C195.388 6.55811 197.064 12.5284 197.064 20.2866V36.2851H188.066V22.0771C188.066 18.7344 188.005 14.4354 183.384 14.4354C178.764 14.4354 177.979 18.0775 177.979 21.8387V36.2851H168.979V7.27322H168.981Z" fill="white"/>
<path d="M203 3.53931C203 4.3542 202.71 5.04991 202.131 5.62366C201.55 6.20018 200.852 6.48567 200.028 6.48567C199.204 6.48567 198.5 6.20018 197.922 5.62643C197.343 5.05268 197.056 4.35697 197.056 3.53654C197.056 2.7161 197.343 2.02039 197.922 1.44664C198.5 0.872892 199.201 0.587402 200.028 0.587402C200.855 0.587402 201.55 0.872892 202.131 1.4411C202.71 2.01208 203 2.71056 203 3.53377V3.53931ZM202.45 3.53931C202.45 2.87686 202.212 2.31143 201.74 1.843C201.265 1.37458 200.696 1.13898 200.028 1.13898C199.36 1.13898 198.782 1.37181 198.313 1.83746C197.841 2.30311 197.609 2.86855 197.609 3.53654C197.609 4.20453 197.843 4.76996 198.313 5.23562C198.782 5.70127 199.352 5.93409 200.028 5.93409C200.704 5.93409 201.265 5.70404 201.74 5.23839C202.212 4.77551 202.45 4.2073 202.45 3.53377V3.53931ZM201.603 2.95447C201.603 3.52545 201.31 3.81371 200.726 3.81371L201.508 5.14415H200.777L200.061 3.81648H199.436V5.14415H198.804V1.96496H200.349C200.743 1.96496 201.05 2.04811 201.271 2.21719C201.492 2.38626 201.603 2.63018 201.603 2.95447ZM200.958 2.863C200.958 2.66898 200.891 2.54702 200.757 2.49713C200.623 2.44724 200.439 2.42507 200.207 2.42507H199.438V3.34251H200.374C200.564 3.34251 200.712 3.30925 200.81 3.2455C200.908 3.18175 200.958 3.05425 200.958 2.86578V2.863Z" fill="white"/>
</g>
<defs>
<clipPath id="clip0_1_956">
<rect width="203" height="37" fill="white"/>
</clipPath>
</defs>
</svg>
